<svg xmlns="http://www.w3.org/2000/svg" width="80.019" height="84.002" viewBox="0 0 80.019 84.002">
  <g id="Group_908" data-name="Group 908" transform="translate(-1737.077 -3423.497)">
    <g id="Group_892" data-name="Group 892">
      <path id="Path_1049" data-name="Path 1049" d="M1788.267,3502.249h-35.94a1.5,1.5,0,0,1-1.5-1.5v-39.8a1.5,1.5,0,0,1,1.99-1.418,15.7,15.7,0,0,0,5.135.848,16.021,16.021,0,0,0,15.538-19.832,1.5,1.5,0,0,1,1.457-1.858h26.505a1.5,1.5,0,0,1,1.5,1.5v16.285a1.5,1.5,0,0,1-3,0v-14.785h-23.19a19.022,19.022,0,0,1-18.81,21.69,18.986,18.986,0,0,1-4.125-.449v36.321h31.015a16.749,16.749,0,0,1,13.437-26.745c.56,0,1.119.028,1.673.083v-10.71a1.5,1.5,0,0,1,3,0v12.458a1.5,1.5,0,0,1-1.81,1.467,13.761,13.761,0,0,0-16.61,13.45,13.723,13.723,0,0,0,4.719,10.365,1.5,1.5,0,0,1-.984,2.632Z" fill="#396fef"/>
    </g>
    <g id="Group_893" data-name="Group 893">
      <path id="Path_1050" data-name="Path 1050" d="M1798.28,3496.847a1.5,1.5,0,0,1-1.5-1.5v-12.188a1.5,1.5,0,0,1,3,0v12.188A1.5,1.5,0,0,1,1798.28,3496.847Z" fill="#396fef"/>
    </g>
    <g id="Group_894" data-name="Group 894">
      <path id="Path_1051" data-name="Path 1051" d="M1804.374,3490.753h-12.188a1.5,1.5,0,0,1,0-3h12.188a1.5,1.5,0,0,1,0,3Z" fill="#396fef"/>
    </g>
    <g id="Group_895" data-name="Group 895">
      <path id="Path_1052" data-name="Path 1052" d="M1798.279,3506a16.731,16.731,0,1,1,4.712-.672,1.5,1.5,0,1,1-.842-2.879,13.775,13.775,0,1,0-3.87.551,1.5,1.5,0,0,1,0,3Z" fill="#ef39a6"/>
    </g>
    <g id="Group_896" data-name="Group 896">
      <path id="Path_1053" data-name="Path 1053" d="M1813.3,3507.5a3.784,3.784,0,0,1-2.631-1.058l-4.031-3.879a1.5,1.5,0,0,1,2.08-2.162l4.03,3.878a.8.8,0,1,0,1.106-1.148l-4.032-3.878a1.5,1.5,0,1,1,2.08-2.162l4.032,3.878a3.8,3.8,0,0,1-2.634,6.531Z" fill="#ef39a6"/>
    </g>
    <g id="Group_897" data-name="Group 897">
      <path id="Path_1054" data-name="Path 1054" d="M1757.952,3463.377a18.731,18.731,0,0,1-6.114-1.012,18.983,18.983,0,0,1-12.883-17.993,1.5,1.5,0,0,1,1.5-1.5h16v-16a1.5,1.5,0,0,1,1.5-1.5,19,19,0,0,1,0,38Zm-15.928-17.5a15.985,15.985,0,0,0,10.784,13.655,15.743,15.743,0,0,0,5.144.85,16,16,0,0,0,1.5-31.933v15.928a1.5,1.5,0,0,1-1.5,1.5Z" fill="#396fef"/>
    </g>
    <g id="Group_898" data-name="Group 898">
      <path id="Path_1055" data-name="Path 1055" d="M1752.7,3440.622h-14.125a1.5,1.5,0,0,1-1.5-1.5A15.642,15.642,0,0,1,1752.7,3423.5a1.5,1.5,0,0,1,1.5,1.5v14.125A1.5,1.5,0,0,1,1752.7,3440.622Zm-12.537-3H1751.2v-11.036A12.65,12.65,0,0,0,1740.165,3437.622Z" fill="#396fef"/>
    </g>
    <g id="Group_899" data-name="Group 899">
      <path id="Path_1056" data-name="Path 1056" d="M1793.39,3450.874h-4.062a1.5,1.5,0,1,1,0-3h4.062a1.5,1.5,0,0,1,0,3Z" fill="#396fef"/>
    </g>
    <g id="Group_900" data-name="Group 900">
      <path id="Path_1057" data-name="Path 1057" d="M1785.515,3450.874h-2.625a1.5,1.5,0,1,1,0-3h2.625a1.5,1.5,0,0,1,0,3Z" fill="#396fef"/>
    </g>
    <g id="Group_901" data-name="Group 901">
      <path id="Path_1058" data-name="Path 1058" d="M1793.39,3455.937h-10.5a1.5,1.5,0,1,1,0-3h10.5a1.5,1.5,0,0,1,0,3Z" fill="#396fef"/>
    </g>
    <g id="Group_902" data-name="Group 902">
      <path id="Path_1059" data-name="Path 1059" d="M1776.89,3472.718h-16.5a1.5,1.5,0,1,1,0-3h16.5a1.5,1.5,0,0,1,0,3Z" fill="#396fef"/>
    </g>
    <g id="Group_903" data-name="Group 903">
      <path id="Path_1060" data-name="Path 1060" d="M1776.89,3477.781h-8.767a1.5,1.5,0,0,1,0-3h8.767a1.5,1.5,0,0,1,0,3Z" fill="#396fef"/>
    </g>
    <g id="Group_904" data-name="Group 904">
      <path id="Path_1061" data-name="Path 1061" d="M1764.027,3477.781h-3.637a1.5,1.5,0,1,1,0-3h3.637a1.5,1.5,0,0,1,0,3Z" fill="#396fef"/>
    </g>
    <g id="Group_905" data-name="Group 905">
      <path id="Path_1062" data-name="Path 1062" d="M1776.89,3482.843h-2.622a1.5,1.5,0,1,1,0-3h2.622a1.5,1.5,0,0,1,0,3Z" fill="#396fef"/>
    </g>
    <g id="Group_906" data-name="Group 906">
      <path id="Path_1063" data-name="Path 1063" d="M1770.172,3482.843h-9.782a1.5,1.5,0,1,1,0-3h9.782a1.5,1.5,0,0,1,0,3Z" fill="#396fef"/>
    </g>
    <g id="Group_907" data-name="Group 907">
      <path id="Path_1064" data-name="Path 1064" d="M1769.39,3487.906h-9a1.5,1.5,0,1,1,0-3h9a1.5,1.5,0,0,1,0,3Z" fill="#396fef"/>
    </g>
  </g>
</svg>
