<svg xmlns="http://www.w3.org/2000/svg" width="75.011" height="78.884" viewBox="0 0 75.011 78.884">
  <g id="Group_548" data-name="Group 548" transform="translate(-2345.889 -2509.601)">
    <g id="Group_534" data-name="Group 534">
      <g id="Group_532" data-name="Group 532">
        <path id="Path_760" data-name="Path 760" d="M2369.679,2542.115h-12.006a1.5,1.5,0,0,1-1.5-1.5v-12.007a1.5,1.5,0,0,1,1.5-1.5h12.006a1.5,1.5,0,0,1,1.5,1.5v12.007A1.5,1.5,0,0,1,2369.679,2542.115Zm-10.506-3h9.006v-9.007h-9.006Z" fill="#396fef"/>
      </g>
      <g id="Group_533" data-name="Group 533">
        <path id="Path_761" data-name="Path 761" d="M2386.98,2542.115h-12.006a1.5,1.5,0,0,1-1.5-1.5v-12.007a1.5,1.5,0,0,1,1.5-1.5h12.006a1.5,1.5,0,0,1,1.5,1.5v12.007A1.5,1.5,0,0,1,2386.98,2542.115Zm-10.506-3h9.006v-9.007h-9.006Z" fill="#396fef"/>
      </g>
    </g>
    <g id="Group_538" data-name="Group 538">
      <g id="Group_535" data-name="Group 535">
        <path id="Path_762" data-name="Path 762" d="M2397.263,2578.8h-.049a1.5,1.5,0,0,1-1.451-1.547v-2.577a1.5,1.5,0,0,1,3,0l0,2.674A1.5,1.5,0,0,1,2397.263,2578.8Z" fill="#396fef"/>
      </g>
      <g id="Group_536" data-name="Group 536">
        <path id="Path_763" data-name="Path 763" d="M2392.452,2583.476h-2.883a1.5,1.5,0,0,1,0-3h2.883a3.279,3.279,0,0,0,1.5-.359,1.5,1.5,0,1,1,1.362,2.673A6.334,6.334,0,0,1,2392.452,2583.476Zm-8.032,0h-5.148a1.5,1.5,0,0,1,0-3h5.148a1.5,1.5,0,0,1,0,3Zm-10.3,0h-5.149a1.5,1.5,0,0,1,0-3h5.149a1.5,1.5,0,0,1,0,3Zm-10.3,0h-5.149a1.5,1.5,0,0,1,0-3h5.149a1.5,1.5,0,0,1,0,3Zm-10.3,0H2352.2a6.266,6.266,0,0,1-4.5-1.887,1.5,1.5,0,1,1,2.139-2.1,3.287,3.287,0,0,0,2.362.99h1.327a1.5,1.5,0,0,1,0,3Zm-6.139-6.221a1.5,1.5,0,0,1-1.5-1.5v-5.149a1.5,1.5,0,0,1,3,0v5.149A1.5,1.5,0,0,1,2347.389,2577.255Zm0-10.3a1.5,1.5,0,0,1-1.5-1.5v-5.148a1.5,1.5,0,0,1,3,0v5.148A1.5,1.5,0,0,1,2347.389,2566.957Zm0-10.3a1.5,1.5,0,0,1-1.5-1.5v-5.149a1.5,1.5,0,0,1,3,0v5.149A1.5,1.5,0,0,1,2347.389,2556.66Zm49.875-.446a1.5,1.5,0,0,1-1.5-1.5v-5.148a1.5,1.5,0,0,1,3,0v5.148A1.5,1.5,0,0,1,2397.264,2556.214Zm-49.875-9.852a1.5,1.5,0,0,1-1.5-1.5v-5.148a1.5,1.5,0,0,1,3,0v5.148A1.5,1.5,0,0,1,2347.389,2546.362Zm49.875-.445a1.5,1.5,0,0,1-1.5-1.5v-5.149a1.5,1.5,0,0,1,3,0v5.149A1.5,1.5,0,0,1,2397.264,2545.917Zm-49.875-9.852a1.5,1.5,0,0,1-1.5-1.5v-5.149a1.5,1.5,0,0,1,3,0v5.149A1.5,1.5,0,0,1,2347.389,2536.065Zm49.875-.445a1.5,1.5,0,0,1-1.5-1.5v-5.149a1.5,1.5,0,0,1,3,0v5.149A1.5,1.5,0,0,1,2397.264,2535.62Zm-49.875-9.853a1.5,1.5,0,0,1-1.5-1.5v-.853a6.289,6.289,0,0,1,2.349-4.914,1.5,1.5,0,1,1,1.884,2.334,3.3,3.3,0,0,0-1.233,2.58v.853A1.5,1.5,0,0,1,2347.389,2525.767Zm49.875-.445a1.5,1.5,0,0,1-1.5-1.5v-.408a3.308,3.308,0,0,0-1.481-2.761,1.5,1.5,0,0,1,1.662-2.5,6.3,6.3,0,0,1,2.819,5.259v.408A1.5,1.5,0,0,1,2397.264,2525.322Zm-7.14-5.221h-5.148a1.5,1.5,0,0,1,0-3h5.148a1.5,1.5,0,0,1,0,3Zm-10.3,0h-5.149a1.5,1.5,0,0,1,0-3h5.149a1.5,1.5,0,0,1,0,3Zm-10.3,0h-5.149a1.5,1.5,0,0,1,0-3h5.149a1.5,1.5,0,0,1,0,3Zm-10.3,0h-5.149a1.5,1.5,0,0,1,0-3h5.149a1.5,1.5,0,0,1,0,3Z" fill="#396fef"/>
      </g>
      <g id="Group_537" data-name="Group 537">
        <path id="Path_764" data-name="Path 764" d="M2397.264,2564.034a1.5,1.5,0,0,1-1.5-1.5v-2.625a1.5,1.5,0,0,1,3,0v2.625A1.5,1.5,0,0,1,2397.264,2564.034Z" fill="#396fef"/>
      </g>
    </g>
    <g id="Group_542" data-name="Group 542">
      <g id="Group_539" data-name="Group 539">
        <path id="Path_765" data-name="Path 765" d="M2373.639,2559.676h-16.5a1.5,1.5,0,0,1,0-3h16.5a1.5,1.5,0,0,1,0,3Z" fill="#396fef"/>
      </g>
      <g id="Group_540" data-name="Group 540">
        <path id="Path_766" data-name="Path 766" d="M2373.639,2564.738h-16.5a1.5,1.5,0,0,1,0-3h16.5a1.5,1.5,0,0,1,0,3Z" fill="#396fef"/>
      </g>
      <g id="Group_541" data-name="Group 541">
        <path id="Path_767" data-name="Path 767" d="M2366.139,2569.8h-9a1.5,1.5,0,0,1,0-3h9a1.5,1.5,0,0,1,0,3Z" fill="#396fef"/>
      </g>
    </g>
    <g id="Group_546" data-name="Group 546">
      <g id="Group_543" data-name="Group 543">
        <path id="Path_768" data-name="Path 768" d="M2354.889,2520.1a1.5,1.5,0,0,1-1.5-1.5v-2.625a1.5,1.5,0,0,1,3,0v2.625A1.5,1.5,0,0,1,2354.889,2520.1Z" fill="#396fef"/>
      </g>
      <g id="Group_544" data-name="Group 544">
        <path id="Path_769" data-name="Path 769" d="M2404.764,2557.7a1.5,1.5,0,0,1-1.5-1.5v-5.374a1.5,1.5,0,0,1,3,0v5.374A1.5,1.5,0,0,1,2404.764,2557.7Zm0-10.748a1.5,1.5,0,0,1-1.5-1.5v-5.374a1.5,1.5,0,0,1,3,0v5.374A1.5,1.5,0,0,1,2404.764,2546.956Zm0-10.748a1.5,1.5,0,0,1-1.5-1.5v-5.375a1.5,1.5,0,0,1,3,0v5.375A1.5,1.5,0,0,1,2404.764,2536.208Zm0-10.749a1.5,1.5,0,0,1-1.5-1.5v-5.374a1.5,1.5,0,0,1,3,0v5.374A1.5,1.5,0,0,1,2404.764,2525.459Zm-.165-10.722a1.5,1.5,0,0,1-1.369-.886c-.226-.5-1.425-1.25-3.278-1.25a1.5,1.5,0,0,1-.008-3h.008c2.785,0,5.2,1.214,6.014,3.02a1.5,1.5,0,0,1-1.367,2.116Zm-47.586-1.642a1.5,1.5,0,0,1-.565-2.89,8.721,8.721,0,0,1,3.253-.6h2.623a1.5,1.5,0,0,1,0,3H2359.7a5.726,5.726,0,0,0-2.125.383A1.493,1.493,0,0,1,2357.013,2513.095Zm37.556-.494H2389.2a1.5,1.5,0,0,1,0-3h5.374a1.5,1.5,0,0,1,0,3Zm-10.748,0h-5.374a1.5,1.5,0,0,1,0-3h5.374a1.5,1.5,0,0,1,0,3Zm-10.749,0H2367.7a1.5,1.5,0,0,1,0-3h5.373a1.5,1.5,0,0,1,0,3Z" fill="#396fef"/>
      </g>
      <g id="Group_545" data-name="Group 545">
        <path id="Path_770" data-name="Path 770" d="M2404.764,2565.712a1.5,1.5,0,0,1-1.5-1.5v-2.625a1.5,1.5,0,0,1,3,0v2.625A1.5,1.5,0,0,1,2404.764,2565.712Z" fill="#396fef"/>
      </g>
    </g>
    <g id="Group_547" data-name="Group 547">
      <path id="Path_771" data-name="Path 771" d="M2407.451,2588.485a1.5,1.5,0,0,1-1.156-.544l-22.516-27.209a1.5,1.5,0,0,1,1.483-2.42l34.465,7.709a1.5,1.5,0,0,1,.453,2.745l-10.319,6.284-.915,12.048a1.5,1.5,0,0,1-1.5,1.387Zm-18.566-26.288,17.352,20.967.69-9.108a1.5,1.5,0,0,1,.716-1.168l7.8-4.751Z" fill="#ef39a6"/>
    </g>
  </g>
</svg>
