<svg xmlns="http://www.w3.org/2000/svg" width="73.88" height="72.113" viewBox="0 0 73.88 72.113">
  <g id="Group_623" data-name="Group 623" transform="translate(-2300.932 -2982.365)">
    <g id="Group_611" data-name="Group 611">
      <path id="Path_824" data-name="Path 824" d="M2351.182,2999.615h-14.25a1.5,1.5,0,0,1-1.5-1.5v-14.25a1.5,1.5,0,0,1,3,0v12.75h12.75a1.5,1.5,0,0,1,0,3Z" fill="#396fef"/>
    </g>
    <g id="Group_614" data-name="Group 614">
      <g id="Group_612" data-name="Group 612">
        <path id="Path_825" data-name="Path 825" d="M2316.785,3014.848a1.5,1.5,0,0,1-1.082-.461l-5.818-6.054a1.5,1.5,0,0,1,0-2.078l5.818-6.054a1.5,1.5,0,0,1,2.164,2.079l-4.82,5.014,4.82,5.014a1.5,1.5,0,0,1-1.082,2.54Z" fill="#396fef"/>
      </g>
      <g id="Group_613" data-name="Group 613">
        <path id="Path_826" data-name="Path 826" d="M2324.176,3014.848a1.5,1.5,0,0,1-1.081-2.54l4.819-5.014-4.819-5.014a1.5,1.5,0,0,1,2.163-2.079l5.818,6.054a1.5,1.5,0,0,1,0,2.078l-5.818,6.054A1.5,1.5,0,0,1,2324.176,3014.848Z" fill="#396fef"/>
      </g>
    </g>
    <g id="Group_615" data-name="Group 615">
      <path id="Path_827" data-name="Path 827" d="M2331.967,3047.365h-29.535a1.5,1.5,0,0,1-1.5-1.5v-12.843a1.5,1.5,0,0,1,3,0v11.343h28.035a1.5,1.5,0,0,1,0,3Z" fill="#396fef"/>
    </g>
    <g id="Group_616" data-name="Group 616">
      <path id="Path_828" data-name="Path 828" d="M2351.182,3031.8a1.5,1.5,0,0,1-1.5-1.5v-31.566l-13.372-13.372h-32.378v43.344a1.5,1.5,0,0,1-3,0v-44.844a1.5,1.5,0,0,1,1.5-1.5h34.5a1.5,1.5,0,0,1,1.06.44l14.25,14.25a1.5,1.5,0,0,1,.44,1.06V3030.3A1.5,1.5,0,0,1,2351.182,3031.8Z" fill="#396fef"/>
    </g>
    <g id="Group_617" data-name="Group 617">
      <path id="Path_829" data-name="Path 829" d="M2368.136,3054.478h-28.51a9.41,9.41,0,0,1,0-18.82c.125,0,.25,0,.374.008a12.841,12.841,0,0,1,23.5,1.787,8.78,8.78,0,0,1,4.79,3.67,6.678,6.678,0,0,1-.156,13.355Zm-28.51-15.82a6.41,6.41,0,0,0,0,12.82h28.51a3.678,3.678,0,0,0,0-7.357,2.284,2.284,0,0,0-.419.031,1.5,1.5,0,0,1-1.63-.828,5.745,5.745,0,0,0-4.06-3.154,1.5,1.5,0,0,1-1.161-1.084,9.839,9.839,0,0,0-18.576-1.245,1.5,1.5,0,0,1-1.635.9A6.163,6.163,0,0,0,2339.626,3038.658Z" fill="#ef39a6"/>
    </g>
    <g id="Group_622" data-name="Group 622">
      <g id="Group_619" data-name="Group 619">
        <path id="Path_831" data-name="Path 831" d="M2331.967,3028.018h-21a1.5,1.5,0,0,1,0-3h21a1.5,1.5,0,0,1,0,3Z" fill="#396fef"/>
      </g>
      <g id="Group_620" data-name="Group 620">
        <path id="Path_832" data-name="Path 832" d="M2331.967,3033.081h-21a1.5,1.5,0,0,1,0-3h21a1.5,1.5,0,0,1,0,3Z" fill="#396fef"/>
      </g>
      <g id="Group_621" data-name="Group 621">
        <path id="Path_833" data-name="Path 833" d="M2324.467,3038.143h-13.5a1.5,1.5,0,0,1,0-3h13.5a1.5,1.5,0,0,1,0,3Z" fill="#396fef"/>
      </g>
    </g>
  </g>
</svg>
