<svg xmlns="http://www.w3.org/2000/svg" width="75.348" height="78.042" viewBox="0 0 75.348 78.042">
  <g id="Group_706" data-name="Group 706" transform="translate(-1232.411 -2229.076)">
    <g id="Group_706-2" data-name="Group 706">
      <path id="Path_901" data-name="Path 901" d="M1300.723,2247.975h-66.812a1.5,1.5,0,0,1-1.5-1.5v-10.318a1.5,1.5,0,0,1,1.5-1.5h10.784a1.5,1.5,0,0,1,0,3h-9.284v7.318h63.812v-7.318h-10.414a1.5,1.5,0,0,1,0-3h11.914a1.5,1.5,0,0,1,1.5,1.5v10.318A1.5,1.5,0,0,1,1300.723,2247.975Z" fill="#396fef"/>
    </g>
    <g id="Group_707" data-name="Group 707">
      <path id="Path_902" data-name="Path 902" d="M1279.133,2237.657H1254.76a1.5,1.5,0,0,1,0-3h24.373a1.5,1.5,0,0,1,0,3Z" fill="#396fef"/>
    </g>
    <g id="Group_708" data-name="Group 708">
      <path id="Path_903" data-name="Path 903" d="M1249.8,2240.532a1.5,1.5,0,0,1-1.5-1.5v-8.456a1.5,1.5,0,0,1,3,0v8.456A1.5,1.5,0,0,1,1249.8,2240.532Z" fill="#396fef"/>
    </g>
    <g id="Group_709" data-name="Group 709">
      <path id="Path_904" data-name="Path 904" d="M1283.971,2240.532a1.5,1.5,0,0,1-1.5-1.5v-8.456a1.5,1.5,0,0,1,3,0v8.456A1.5,1.5,0,0,1,1283.971,2240.532Z" fill="#396fef"/>
    </g>
    <g id="Group_712" data-name="Group 712">
      <g id="Group_710" data-name="Group 710">
        <path id="Path_905" data-name="Path 905" d="M1233.911,2276.344a1.5,1.5,0,0,1-1.5-1.5v-28.369a1.5,1.5,0,0,1,1.5-1.5h66.812a1.5,1.5,0,0,1,1.5,1.5V2270.7a1.5,1.5,0,0,1-3,0v-22.726h-63.812v26.869A1.5,1.5,0,0,1,1233.911,2276.344Z" fill="#396fef"/>
      </g>
      <g id="Group_711" data-name="Group 711">
        <path id="Path_906" data-name="Path 906" d="M1277.41,2291.774h-43.5a1.5,1.5,0,0,1-1.5-1.5V2281.6a1.5,1.5,0,0,1,3,0v7.172h42a1.5,1.5,0,0,1,0,3Z" fill="#396fef"/>
      </g>
    </g>
    <g id="Group_713" data-name="Group 713">
      <path id="Path_907" data-name="Path 907" d="M1291.834,2307.118a1.516,1.516,0,0,1-.421-.06c-6.272-1.833-11.07-7.1-13.372-10.071a10.22,10.22,0,0,1-2.131-6.221V2272.4a1.5,1.5,0,0,1,1.026-1.423,46.2,46.2,0,0,1,29.8,0,1.5,1.5,0,0,1,1.027,1.423v18.366a10.221,10.221,0,0,1-2.131,6.221c-.327.422-.694.878-1.1,1.355a1.5,1.5,0,1,1-2.288-1.939c.373-.441.712-.862,1.014-1.252a7.2,7.2,0,0,0,1.5-4.385V2273.5a43.11,43.11,0,0,0-25.849,0v17.271a7.2,7.2,0,0,0,1.5,4.385c2.025,2.617,6.161,7.188,11.42,8.9a19.7,19.7,0,0,0,6.229-3.523,1.5,1.5,0,1,1,1.887,2.332,22.273,22.273,0,0,1-7.695,4.2A1.511,1.511,0,0,1,1291.834,2307.118Z" fill="#ef39a6"/>
    </g>
    <g id="Group_718" data-name="Group 718">
      <g id="Group_717" data-name="Group 717">
        <g id="Group_714" data-name="Group 714">
          <path id="Path_908" data-name="Path 908" d="M1252.165,2271.794h-.885a3.973,3.973,0,0,1-3.969-3.968V2264.5a3.974,3.974,0,0,1,3.969-3.969h.885a3.974,3.974,0,0,1,3.969,3.969v3.326A3.973,3.973,0,0,1,1252.165,2271.794Zm-.885-8.263a.97.97,0,0,0-.969.969v3.326a.969.969,0,0,0,.969.968h.885a.97.97,0,0,0,.969-.968V2264.5a.971.971,0,0,0-.969-.969Z" fill="#396fef"/>
        </g>
        <g id="Group_715" data-name="Group 715">
          <path id="Path_909" data-name="Path 909" d="M1262.331,2276.615h-.886a3.974,3.974,0,0,1-3.968-3.969V2264.5a3.973,3.973,0,0,1,3.968-3.969h.886a3.973,3.973,0,0,1,3.968,3.969v8.146A3.973,3.973,0,0,1,1262.331,2276.615Zm-.886-13.084a.97.97,0,0,0-.968.969v8.146a.97.97,0,0,0,.968.969h.886a.97.97,0,0,0,.968-.969V2264.5a.97.97,0,0,0-.968-.969Z" fill="#396fef"/>
        </g>
        <g id="Group_716" data-name="Group 716">
          <path id="Path_910" data-name="Path 910" d="M1249.267,2276.615a1.5,1.5,0,0,1-.643-2.856l3.3-1.562a1.885,1.885,0,0,0,1.212-1.589v-2.472a1.5,1.5,0,0,1,3,0v2.472a4.835,4.835,0,0,1-2.927,4.3l-3.3,1.563A1.5,1.5,0,0,1,1249.267,2276.615Z" fill="#396fef"/>
        </g>
      </g>
    </g>
    <g id="Group_719" data-name="Group 719">
      <path id="Path_911" data-name="Path 911" d="M1290.69,2292.781a1.5,1.5,0,0,1-1.06-.44l-3.33-3.33a1.5,1.5,0,0,1,2.121-2.121l2.173,2.172,7.067-8.425a1.5,1.5,0,0,1,2.3,1.929l-8.121,9.679a1.5,1.5,0,0,1-1.084.534Z" fill="#396fef"/>
    </g>
    <g id="Group_722" data-name="Group 722">
      <g id="Group_720" data-name="Group 720">
        <path id="Path_912" data-name="Path 912" d="M1291.2,2257.986h-13.5a1.5,1.5,0,0,1,0-3h13.5a1.5,1.5,0,0,1,0,3Z" fill="#396fef"/>
      </g>
      <g id="Group_721" data-name="Group 721">
        <path id="Path_913" data-name="Path 913" d="M1283.7,2263.049h-6a1.5,1.5,0,0,1,0-3h6a1.5,1.5,0,0,1,0,3Z" fill="#396fef"/>
      </g>
    </g>
  </g>
</svg>
