<svg xmlns="http://www.w3.org/2000/svg" width="89.952" height="62.588" viewBox="0 0 89.952 62.588">
  <g id="Group_833" data-name="Group 833" transform="translate(-1751.354 -2948.981)">
    <g id="Group_819" data-name="Group 819">
      <path id="Path_985" data-name="Path 985" d="M1824.5,3001.667a1.491,1.491,0,0,1-.85-.265l-4.2-2.9a1.5,1.5,0,1,1,1.7-2.469l3.076,2.12,6.181-7.368a1.5,1.5,0,1,1,2.3,1.927l-7.059,8.414A1.5,1.5,0,0,1,1824.5,3001.667Z" fill="#ef39a6"/>
    </g>
    <g id="Group_820" data-name="Group 820">
      <path id="Path_986" data-name="Path 986" d="M1836.8,3011.569h-21.735a4.517,4.517,0,0,1-4.508-4.516v-36.194a4.516,4.516,0,0,1,4.508-4.515H1836.8a4.516,4.516,0,0,1,4.507,4.515v25.26a1.5,1.5,0,0,1-3,0v-25.26a1.512,1.512,0,0,0-1.507-1.515h-21.735a1.513,1.513,0,0,0-1.508,1.515v36.194a1.514,1.514,0,0,0,1.508,1.516H1836.8a1.513,1.513,0,0,0,1.507-1.516v-5.386a1.5,1.5,0,0,1,3,0v5.386A4.517,4.517,0,0,1,1836.8,3011.569Z" fill="#396fef"/>
    </g>
    <g id="Group_821" data-name="Group 821">
      <path id="Path_987" data-name="Path 987" d="M1831.494,2974.859h-10.5a1.5,1.5,0,1,1,0-3h10.5a1.5,1.5,0,0,1,0,3Z" fill="#396fef"/>
    </g>
    <g id="Group_822" data-name="Group 822">
      <path id="Path_988" data-name="Path 988" d="M1769.493,2978.452a4.095,4.095,0,1,1,4.095-4.095A4.1,4.1,0,0,1,1769.493,2978.452Zm0-5.19a1.095,1.095,0,1,0,1.095,1.095A1.1,1.1,0,0,0,1769.493,2973.262Z" fill="#396fef"/>
    </g>
    <g id="Group_823" data-name="Group 823">
      <path id="Path_989" data-name="Path 989" d="M1812.056,2979.03h-9.338a1.5,1.5,0,0,1,0-3h9.338a1.5,1.5,0,0,1,0,3Z" fill="#396fef"/>
    </g>
    <g id="Group_824" data-name="Group 824">
      <path id="Path_990" data-name="Path 990" d="M1798.3,2979.03h-2.064a1.5,1.5,0,0,1,0-3h2.064a1.5,1.5,0,0,1,0,3Z" fill="#396fef"/>
    </g>
    <g id="Group_825" data-name="Group 825">
      <path id="Path_991" data-name="Path 991" d="M1812.056,2983.7H1798.3a1.5,1.5,0,0,1,0-3h13.754a1.5,1.5,0,0,1,0,3Z" fill="#396fef"/>
    </g>
    <g id="Group_826" data-name="Group 826">
      <path id="Path_992" data-name="Path 992" d="M1793.886,2983.7h-2.064a1.5,1.5,0,0,1,0-3h2.064a1.5,1.5,0,0,1,0,3Z" fill="#396fef"/>
    </g>
    <g id="Group_827" data-name="Group 827">
      <path id="Path_993" data-name="Path 993" d="M1783.3,2983.7h-2.064a1.5,1.5,0,1,1,0-3h2.064a1.5,1.5,0,0,1,0,3Z" fill="#396fef"/>
    </g>
    <g id="Group_828" data-name="Group 828">
      <path id="Path_994" data-name="Path 994" d="M1812.056,2988.375h-18.683a1.5,1.5,0,0,1,0-3h18.683a1.5,1.5,0,0,1,0,3Z" fill="#396fef"/>
    </g>
    <g id="Group_829" data-name="Group 829">
      <path id="Path_995" data-name="Path 995" d="M1788.957,2988.375h-2.064a1.5,1.5,0,1,1,0-3h2.064a1.5,1.5,0,0,1,0,3Z" fill="#396fef"/>
    </g>
    <g id="Group_830" data-name="Group 830">
      <path id="Path_996" data-name="Path 996" d="M1812.056,2999.734h-31.688a1.5,1.5,0,1,1,0-3h30.188v-25.875a4.516,4.516,0,0,1,4.508-4.515h17.677v-12.113a2.252,2.252,0,0,0-2.25-2.25h-64.245a2.252,2.252,0,0,0-2.25,2.25v2.424a1.5,1.5,0,0,1-3,0v-2.424a5.256,5.256,0,0,1,5.25-5.25h64.245a5.256,5.256,0,0,1,5.25,5.25v13.613a1.5,1.5,0,0,1-1.5,1.5h-19.177a1.513,1.513,0,0,0-1.508,1.515v27.375A1.5,1.5,0,0,1,1812.056,2999.734Z" fill="#396fef"/>
    </g>
    <g id="Group_831" data-name="Group 831">
      <path id="Path_997" data-name="Path 997" d="M1774.368,2999.734h-8.122a5.256,5.256,0,0,1-5.25-5.25v-32.6a1.5,1.5,0,0,1,3,0v32.6a2.253,2.253,0,0,0,2.25,2.25h8.122a1.5,1.5,0,0,1,0,3Z" fill="#396fef"/>
    </g>
    <g id="Group_832" data-name="Group 832">
      <path id="Path_998" data-name="Path 998" d="M1797.744,2963.28h-44.89a1.5,1.5,0,0,1-1.5-1.5v-5.125a1.5,1.5,0,0,1,1.5-1.5h44.89a1.485,1.485,0,0,1,.523.095l6.876,2.562a1.5,1.5,0,0,1,0,2.811l-6.876,2.563A1.506,1.506,0,0,1,1797.744,2963.28Zm-43.39-3h43.119l2.851-1.062-2.851-1.063h-43.119Z" fill="#ef39a6"/>
    </g>
  </g>
</svg>
