<svg xmlns="http://www.w3.org/2000/svg" width="77.221" height="76.094" viewBox="0 0 77.221 76.094">
  <g id="Group_877" data-name="Group 877" transform="translate(-2018.864 -2966.595)">
    <g id="Group_855" data-name="Group 855">
      <path id="Path_1017" data-name="Path 1017" d="M2082.088,2977.382H2045.83a1.5,1.5,0,1,1,0-3h36.258a1.5,1.5,0,0,1,0,3Z" fill="#396fef"/>
    </g>
    <g id="Group_856" data-name="Group 856">
      <path id="Path_1018" data-name="Path 1018" d="M2094.585,2996.468h-74.221a1.5,1.5,0,0,1,0-3h74.221a1.5,1.5,0,0,1,0,3Z" fill="#396fef"/>
    </g>
    <g id="Group_857" data-name="Group 857">
      <path id="Path_1019" data-name="Path 1019" d="M2056.213,3042.689a1.5,1.5,0,0,1-1.186-.581l-15.963-20.582a1.5,1.5,0,0,1,2.371-1.838l15.962,20.582a1.5,1.5,0,0,1-1.184,2.419Z" fill="#396fef"/>
    </g>
    <g id="Group_858" data-name="Group 858">
      <path id="Path_1020" data-name="Path 1020" d="M2037.591,3018.678a1.493,1.493,0,0,1-1.186-.581l-.7-.9a1.5,1.5,0,0,1,2.37-1.838l.7.9a1.5,1.5,0,0,1-1.184,2.419Z" fill="#396fef"/>
    </g>
    <g id="Group_859" data-name="Group 859">
      <path id="Path_1021" data-name="Path 1021" d="M2034.077,3014.148a1.493,1.493,0,0,1-1.185-.581l-13.713-17.68a1.5,1.5,0,1,1,2.37-1.838l13.713,17.68a1.5,1.5,0,0,1-1.185,2.419Z" fill="#396fef"/>
    </g>
    <g id="Group_860" data-name="Group 860">
      <path id="Path_1022" data-name="Path 1022" d="M2020.363,2996.468a1.5,1.5,0,0,1-1.253-2.322l7.936-12.12a1.5,1.5,0,1,1,2.509,1.643l-7.936,12.121A1.5,1.5,0,0,1,2020.363,2996.468Z" fill="#396fef"/>
    </g>
    <g id="Group_861" data-name="Group 861">
      <path id="Path_1023" data-name="Path 1023" d="M2084.023,3009.189a1.5,1.5,0,0,1-1.154-2.458l10.562-12.721a1.5,1.5,0,0,1,2.308,1.916l-10.561,12.721A1.5,1.5,0,0,1,2084.023,3009.189Z" fill="#396fef"/>
    </g>
    <g id="Group_862" data-name="Group 862">
      <path id="Path_1024" data-name="Path 1024" d="M2056.211,3042.689a1.5,1.5,0,0,1-1.153-2.458l19.258-23.2a1.5,1.5,0,0,1,2.308,1.916l-19.258,23.2A1.5,1.5,0,0,1,2056.211,3042.689Z" fill="#396fef"/>
    </g>
    <g id="Group_863" data-name="Group 863">
      <path id="Path_1025" data-name="Path 1025" d="M2045.17,2996.468a1.5,1.5,0,0,1-1.262-.687l-8.046-12.478a1.5,1.5,0,1,1,2.521-1.626l8.046,12.478a1.5,1.5,0,0,1-.448,2.073A1.484,1.484,0,0,1,2045.17,2996.468Z" fill="#396fef"/>
    </g>
    <g id="Group_864" data-name="Group 864">
      <path id="Path_1026" data-name="Path 1026" d="M2069.783,2996.468a1.5,1.5,0,0,1-1.262-.687l-12.307-19.086a1.5,1.5,0,1,1,2.521-1.626l12.307,19.086a1.5,1.5,0,0,1-.448,2.073A1.484,1.484,0,0,1,2069.783,2996.468Z" fill="#396fef"/>
    </g>
    <g id="Group_865" data-name="Group 865">
      <path id="Path_1027" data-name="Path 1027" d="M2045.167,2996.468a1.5,1.5,0,0,1-1.259-2.313l12.306-19.086a1.5,1.5,0,1,1,2.521,1.626l-12.306,19.086A1.5,1.5,0,0,1,2045.167,2996.468Z" fill="#396fef"/>
    </g>
    <g id="Group_866" data-name="Group 866">
      <path id="Path_1028" data-name="Path 1028" d="M2069.78,2996.468a1.5,1.5,0,0,1-1.259-2.313l12.306-19.086a1.5,1.5,0,0,1,1.256-.687h0a1.5,1.5,0,0,1,1.254.678l12.5,19.086a1.5,1.5,0,0,1-2.51,1.644l-11.233-17.155-11.055,17.146A1.5,1.5,0,0,1,2069.78,2996.468Z" fill="#396fef"/>
    </g>
    <g id="Group_867" data-name="Group 867">
      <path id="Path_1029" data-name="Path 1029" d="M2047.428,3005.931a1.5,1.5,0,0,1-1.458-1.151l-2.261-9.464a1.5,1.5,0,0,1,2.918-.7l2.261,9.463a1.5,1.5,0,0,1-1.46,1.849Z" fill="#396fef"/>
    </g>
    <g id="Group_868" data-name="Group 868">
      <path id="Path_1030" data-name="Path 1030" d="M2056.21,3042.689a1.5,1.5,0,0,1-1.457-1.152l-7.371-30.85a1.5,1.5,0,1,1,2.918-.7l7.371,30.85a1.5,1.5,0,0,1-1.461,1.849Z" fill="#396fef"/>
    </g>
    <g id="Group_869" data-name="Group 869">
      <path id="Path_1031" data-name="Path 1031" d="M2056.213,3042.689a1.523,1.523,0,0,1-.424-.061,1.5,1.5,0,0,1-1.016-1.862l5.145-17.526a1.5,1.5,0,0,1,2.878.846l-5.145,17.525A1.5,1.5,0,0,1,2056.213,3042.689Z" fill="#396fef"/>
    </g>
    <g id="Group_870" data-name="Group 870">
      <path id="Path_1032" data-name="Path 1032" d="M2062.883,3019.97a1.525,1.525,0,0,1-.424-.061,1.5,1.5,0,0,1-1.016-1.862l6.9-23.5a1.5,1.5,0,0,1,2.879.845l-6.9,23.5A1.5,1.5,0,0,1,2062.883,3019.97Z" fill="#396fef"/>
    </g>
    <g id="Group_873" data-name="Group 873">
      <g id="Group_871" data-name="Group 871">
        <path id="Path_1033" data-name="Path 1033" d="M2079.625,3022.274a1.5,1.5,0,0,1-1.5-1.5V3005.2a1.5,1.5,0,0,1,3,0v15.573A1.5,1.5,0,0,1,2079.625,3022.274Z" fill="#ef39a6"/>
      </g>
      <g id="Group_872" data-name="Group 872">
        <path id="Path_1034" data-name="Path 1034" d="M2087.412,3014.488h-15.574a1.5,1.5,0,0,1,0-3h15.574a1.5,1.5,0,0,1,0,3Z" fill="#ef39a6"/>
      </g>
    </g>
    <g id="Group_876" data-name="Group 876">
      <g id="Group_874" data-name="Group 874">
        <path id="Path_1035" data-name="Path 1035" d="M2032.862,2985.168a1.5,1.5,0,0,1-1.5-1.5v-15.573a1.5,1.5,0,0,1,3,0v15.573A1.5,1.5,0,0,1,2032.862,2985.168Z" fill="#ef39a6"/>
      </g>
      <g id="Group_875" data-name="Group 875">
        <path id="Path_1036" data-name="Path 1036" d="M2040.649,2977.382h-15.574a1.5,1.5,0,0,1,0-3h15.574a1.5,1.5,0,0,1,0,3Z" fill="#ef39a6"/>
      </g>
    </g>
  </g>
</svg>
