<svg xmlns="http://www.w3.org/2000/svg" width="78.672" height="82.575" viewBox="0 0 78.672 82.575">
  <g id="Group_774" data-name="Group 774" transform="translate(-2726.976 -2203.162)">
    <g id="Group_758" data-name="Group 758">
      <path id="Path_930" data-name="Path 930" d="M2746.555,2264.783h-5.862a8.894,8.894,0,0,1-8.884-8.883v-14.07a8.894,8.894,0,0,1,8.884-8.883h5.862a1.5,1.5,0,0,1,1.5,1.5v28.836A1.5,1.5,0,0,1,2746.555,2264.783Zm-5.862-28.836a5.89,5.89,0,0,0-5.884,5.883v14.07a5.89,5.89,0,0,0,5.884,5.883h4.362v-25.836Z" fill="#396fef"/>
    </g>
    <g id="Group_759" data-name="Group 759">
      <path id="Path_931" data-name="Path 931" d="M2733.309,2256.1a6.34,6.34,0,0,1-6.333-6.334v-1.806a6.34,6.34,0,0,1,6.333-6.334,1.5,1.5,0,0,1,1.5,1.5V2254.6A1.5,1.5,0,0,1,2733.309,2256.1Zm-1.5-11.117a3.338,3.338,0,0,0-1.833,2.977v1.806a3.339,3.339,0,0,0,1.833,2.977Z" fill="#396fef"/>
    </g>
    <g id="Group_760" data-name="Group 760">
      <path id="Path_932" data-name="Path 932" d="M2751.348,2260.562h-4.793a1.5,1.5,0,0,1-1.5-1.5v-20.394a1.5,1.5,0,0,1,1.5-1.5h4.793a1.5,1.5,0,0,1,1.5,1.5v20.394A1.5,1.5,0,0,1,2751.348,2260.562Zm-3.293-3h1.793v-17.394h-1.793Z" fill="#396fef"/>
    </g>
    <g id="Group_761" data-name="Group 761">
      <path id="Path_933" data-name="Path 933" d="M2792.242,2264.783h-6.173a1.5,1.5,0,0,1-1.5-1.5v-28.836a1.5,1.5,0,0,1,1.5-1.5h6.173a8.513,8.513,0,0,1,4.971,1.588,1.5,1.5,0,1,1-1.741,2.442,5.534,5.534,0,0,0-3.23-1.03h-4.673v25.836h4.673a5.578,5.578,0,0,0,5.572-5.572v-14.692a5.59,5.59,0,0,0-.133-1.218,1.5,1.5,0,0,1,2.928-.655,8.592,8.592,0,0,1,.205,1.873v14.692A8.581,8.581,0,0,1,2792.242,2264.783Z" fill="#396fef"/>
    </g>
    <g id="Group_762" data-name="Group 762">
      <path id="Path_934" data-name="Path 934" d="M2799.314,2256.1a1.5,1.5,0,0,1-1.5-1.5v-11.474a1.5,1.5,0,0,1,1.5-1.5,6.341,6.341,0,0,1,6.334,6.334v1.806A6.341,6.341,0,0,1,2799.314,2256.1Zm1.5-11.117v7.76a3.337,3.337,0,0,0,1.834-2.977v-1.806A3.336,3.336,0,0,0,2800.814,2244.985Z" fill="#396fef"/>
    </g>
    <g id="Group_763" data-name="Group 763">
      <path id="Path_935" data-name="Path 935" d="M2786.069,2260.562h-4.793a1.5,1.5,0,0,1-1.5-1.5v-20.394a1.5,1.5,0,0,1,1.5-1.5h4.793a1.5,1.5,0,0,1,1.5,1.5v20.394A1.5,1.5,0,0,1,2786.069,2260.562Zm-3.293-3h1.793v-17.394h-1.793Z" fill="#396fef"/>
    </g>
    <g id="Group_764" data-name="Group 764">
      <path id="Path_936" data-name="Path 936" d="M2741.362,2245.885a1.5,1.5,0,0,1-1.5-1.5v-9.938a1.5,1.5,0,0,1,3,0v9.938A1.5,1.5,0,0,1,2741.362,2245.885Z" fill="#396fef"/>
    </g>
    <g id="Group_765" data-name="Group 765">
      <path id="Path_937" data-name="Path 937" d="M2741.362,2252.232a1.5,1.5,0,0,1-1.5-1.5v-1.867a1.5,1.5,0,0,1,3,0v1.867A1.5,1.5,0,0,1,2741.362,2252.232Z" fill="#396fef"/>
    </g>
    <g id="Group_768" data-name="Group 768">
      <g id="Group_766" data-name="Group 766">
        <path id="Path_938" data-name="Path 938" d="M2791.351,2264.783a1.5,1.5,0,0,1-1.5-1.5v-9.938a1.5,1.5,0,0,1,3,0v9.938A1.5,1.5,0,0,1,2791.351,2264.783Z" fill="#396fef"/>
      </g>
      <g id="Group_767" data-name="Group 767">
        <path id="Path_939" data-name="Path 939" d="M2791.351,2250.365a1.5,1.5,0,0,1-1.5-1.5V2247a1.5,1.5,0,0,1,3,0v1.868A1.5,1.5,0,0,1,2791.351,2250.365Z" fill="#396fef"/>
      </g>
    </g>
    <g id="Group_769" data-name="Group 769">
      <path id="Path_940" data-name="Path 940" d="M2749.731,2220.216a5.06,5.06,0,0,1-3.6-1.49,5.119,5.119,0,0,1,0-7.2,28.868,28.868,0,0,1,4.054-3.373,1.5,1.5,0,0,1,1.7,2.472,25.819,25.819,0,0,0-3.63,3.02,2.109,2.109,0,0,0,0,2.967,2.149,2.149,0,0,0,2.955,0,21.347,21.347,0,0,1,30.2,0,2.15,2.15,0,0,0,2.833.108,1.568,1.568,0,0,0,.122-.106,2.1,2.1,0,0,0,0-2.961,25.592,25.592,0,0,0-27.606-5.648,1.5,1.5,0,1,1-1.12-2.783,28.59,28.59,0,0,1,30.847,6.31,5.1,5.1,0,0,1,0,7.2,3.666,3.666,0,0,1-.327.293,5.006,5.006,0,0,1-3.272,1.2,5.089,5.089,0,0,1-3.6-1.482,18.348,18.348,0,0,0-25.966-.006A5.058,5.058,0,0,1,2749.731,2220.216Z" fill="#396fef"/>
    </g>
    <g id="Group_770" data-name="Group 770">
      <path id="Path_941" data-name="Path 941" d="M2789.762,2235.947a1.5,1.5,0,0,1-1.5-1.5V2231.7a21.779,21.779,0,0,0-4.241-12.971,1.5,1.5,0,1,1,2.418-1.775,24.756,24.756,0,0,1,4.823,14.746v2.743A1.5,1.5,0,0,1,2789.762,2235.947Z" fill="#396fef"/>
    </g>
    <g id="Group_771" data-name="Group 771">
      <path id="Path_942" data-name="Path 942" d="M2742.862,2235.947a1.5,1.5,0,0,1-1.5-1.5V2231.7a24.756,24.756,0,0,1,4.823-14.746,1.5,1.5,0,1,1,2.418,1.775,21.777,21.777,0,0,0-4.241,12.971v2.743A1.5,1.5,0,0,1,2742.862,2235.947Z" fill="#396fef"/>
    </g>
    <g id="Group_772" data-name="Group 772">
      <path id="Path_943" data-name="Path 943" d="M2772.991,2282.385h-.857a1.5,1.5,0,0,1,0-3h.857a12.181,12.181,0,0,0,6.554-1.909,16.743,16.743,0,0,0,7.792-14.193,1.5,1.5,0,0,1,3,0,19.729,19.729,0,0,1-9.181,16.724A15.178,15.178,0,0,1,2772.991,2282.385Z" fill="#396fef"/>
    </g>
    <g id="Group_773" data-name="Group 773">
      <path id="Path_944" data-name="Path 944" d="M2768.662,2285.737h-4.071a4.972,4.972,0,1,1,0-9.944h4.071a4.972,4.972,0,0,1,0,9.944Zm-4.071-6.944a1.972,1.972,0,1,0,0,3.944h4.071a1.972,1.972,0,0,0,0-3.944Z" fill="#ef39a6"/>
    </g>
  </g>
</svg>
