<svg xmlns="http://www.w3.org/2000/svg" width="79.375" height="79.374" viewBox="0 0 79.375 79.374">
  <g id="Group_797" data-name="Group 797" transform="translate(-1155.282 -2947.813)">
    <g id="Group_790" data-name="Group 790">
      <path id="Path_959" data-name="Path 959" d="M1198.367,3027.187h-6.8a4,4,0,0,1-3.819-2.862l-1.794-6.116a.822.822,0,0,0-.546-.55,31.42,31.42,0,0,1-5.008-2.074.829.829,0,0,0-.777,0l-5.595,3.058a4,4,0,0,1-4.724-.678l-4.8-4.806a4,4,0,0,1-.677-4.724l3.057-5.593a.826.826,0,0,0,0-.777,31.377,31.377,0,0,1-2.075-5.009.823.823,0,0,0-.549-.546l-6.118-1.794a4,4,0,0,1-2.861-3.819v-6.8a4,4,0,0,1,2.861-3.819l6.117-1.794a.827.827,0,0,0,.551-.547,31.4,31.4,0,0,1,2.073-5.008.821.821,0,0,0,0-.776l-3.057-5.595a4,4,0,0,1,.677-4.723l4.8-4.806a4.006,4.006,0,0,1,4.725-.678l5.593,3.058a.832.832,0,0,0,.777,0,31.554,31.554,0,0,1,5.01-2.074.82.82,0,0,0,.544-.549l1.795-6.119a4,4,0,0,1,3.819-2.86h6.8a4,4,0,0,1,3.819,2.861l1.794,6.117a.822.822,0,0,0,.547.55,31.544,31.544,0,0,1,5.008,2.074.821.821,0,0,0,.776,0l5.6-3.058a4,4,0,0,1,4.722.678l4.806,4.806a4,4,0,0,1,.678,4.723l-3.058,5.594a.826.826,0,0,0,0,.777,31.679,31.679,0,0,1,2.075,5.009.823.823,0,0,0,.548.546l6.118,1.794a4,4,0,0,1,2.862,3.819v6.8a4,4,0,0,1-2.862,3.819l-6.117,1.794a.819.819,0,0,0-.549.546,31.631,31.631,0,0,1-2.075,5.008.828.828,0,0,0,0,.778l2.56,4.684a1.5,1.5,0,0,1-2.632,1.438l-2.56-4.684a3.818,3.818,0,0,1-.031-3.6,28.631,28.631,0,0,0,1.876-4.531,3.815,3.815,0,0,1,2.567-2.52l6.116-1.794a.984.984,0,0,0,.706-.94v-6.8a.984.984,0,0,0-.7-.94l-6.118-1.8a3.812,3.812,0,0,1-2.566-2.519,28.593,28.593,0,0,0-1.877-4.532,3.821,3.821,0,0,1,.032-3.6l3.058-5.594a.987.987,0,0,0-.167-1.163l-4.806-4.806a.987.987,0,0,0-1.162-.167l-5.6,3.058a3.815,3.815,0,0,1-3.6.031,28.585,28.585,0,0,0-4.53-1.875,3.82,3.82,0,0,1-2.521-2.568l-1.793-6.116a.987.987,0,0,0-.941-.705h-6.8a.984.984,0,0,0-.94.7l-1.795,6.119a3.815,3.815,0,0,1-2.518,2.566,28.621,28.621,0,0,0-4.533,1.877,3.82,3.82,0,0,1-3.6-.032l-5.594-3.057a.984.984,0,0,0-1.163.167l-4.806,4.8a.985.985,0,0,0-.167,1.162l3.058,5.6a3.818,3.818,0,0,1,.032,3.6,28.458,28.458,0,0,0-1.876,4.531,3.82,3.82,0,0,1-2.568,2.52l-6.117,1.793a.986.986,0,0,0-.7.941v6.8a.985.985,0,0,0,.7.94l6.118,1.794a3.818,3.818,0,0,1,2.566,2.519,28.568,28.568,0,0,0,1.877,4.533,3.816,3.816,0,0,1-.032,3.6l-3.057,5.595a.986.986,0,0,0,.166,1.163l4.806,4.8a.984.984,0,0,0,1.163.167l5.595-3.057a3.815,3.815,0,0,1,3.6-.032,28.471,28.471,0,0,0,4.531,1.876,3.819,3.819,0,0,1,2.52,2.568l1.794,6.116a.984.984,0,0,0,.94.705h6.8a.987.987,0,0,0,.941-.705l1.793-6.117a3.818,3.818,0,0,1,2.451-2.544l4.665-1.932a3.818,3.818,0,0,1,3.534.065l5.594,3.057a.985.985,0,0,0,1.163-.167l3.465-3.465a1.5,1.5,0,1,1,2.121,2.121l-3.465,3.465a4,4,0,0,1-4.722.679l-5.595-3.058a.832.832,0,0,0-.777,0,1.216,1.216,0,0,1-.117.055l-4.77,1.976c-.04.016-.081.031-.122.044a.817.817,0,0,0-.545.549l-1.795,6.119A4,4,0,0,1,1198.367,3027.187Z" fill="#396fef"/>
    </g>
    <g id="Group_791" data-name="Group 791">
      <path id="Path_960" data-name="Path 960" d="M1189.8,2989a1.5,1.5,0,0,1-1.082-.461l-8.141-8.47a1.5,1.5,0,0,1,0-2.079l8.141-8.47a1.5,1.5,0,0,1,2.164,2.079l-7.142,7.431,7.142,7.431A1.5,1.5,0,0,1,1189.8,2989Z" fill="#ef39a6"/>
    </g>
    <g id="Group_792" data-name="Group 792">
      <path id="Path_961" data-name="Path 961" d="M1200.141,2989a1.5,1.5,0,0,1-1.082-2.539l7.142-7.431-7.142-7.431a1.5,1.5,0,0,1,2.163-2.079l8.14,8.47a1.5,1.5,0,0,1,0,2.079l-8.14,8.47A1.492,1.492,0,0,1,1200.141,2989Z" fill="#ef39a6"/>
    </g>
    <g id="Group_793" data-name="Group 793">
      <path id="Path_962" data-name="Path 962" d="M1205.56,3002.125h-2.692a1.5,1.5,0,1,1,0-3h2.692a1.5,1.5,0,0,1,0,3Z" fill="#396fef"/>
    </g>
    <g id="Group_794" data-name="Group 794">
      <path id="Path_963" data-name="Path 963" d="M1198.06,3002.125h-12a1.5,1.5,0,0,1,0-3h12a1.5,1.5,0,0,1,0,3Z" fill="#396fef"/>
    </g>
    <g id="Group_795" data-name="Group 795">
      <path id="Path_964" data-name="Path 964" d="M1205.56,2997.115h-19.5a1.5,1.5,0,0,1,0-3h19.5a1.5,1.5,0,0,1,0,3Z" fill="#396fef"/>
    </g>
    <g id="Group_796" data-name="Group 796">
      <path id="Path_965" data-name="Path 965" d="M1198.06,3007.135h-12a1.5,1.5,0,0,1,0-3h12a1.5,1.5,0,0,1,0,3Z" fill="#396fef"/>
    </g>
  </g>
</svg>
