<svg xmlns="http://www.w3.org/2000/svg" width="71.5" height="74.125" viewBox="0 0 71.5 74.125">
  <g id="Group_518" data-name="Group 518" transform="translate(-2080.592 -1987.875)">
    <g id="Group_501" data-name="Group 501">
      <path id="Path_734" data-name="Path 734" d="M2107.012,2036.053a11.115,11.115,0,1,1,11.116-11.115A11.127,11.127,0,0,1,2107.012,2036.053Zm0-19.231a8.115,8.115,0,1,0,8.116,8.116A8.124,8.124,0,0,0,2107.012,2016.822Z" fill="#396fef"/>
    </g>
    <g id="Group_502" data-name="Group 502">
      <path id="Path_735" data-name="Path 735" d="M2102.313,2026.438a1.5,1.5,0,0,1-1.5-1.5,6.206,6.206,0,0,1,6.2-6.2,1.5,1.5,0,0,1,0,3,3.2,3.2,0,0,0-3.2,3.2A1.5,1.5,0,0,1,2102.313,2026.438Z" fill="#396fef"/>
    </g>
    <g id="Group_503" data-name="Group 503">
      <path id="Path_736" data-name="Path 736" d="M2107.012,2062a11.115,11.115,0,1,1,11.116-11.115A11.127,11.127,0,0,1,2107.012,2062Zm0-19.231a8.115,8.115,0,1,0,8.116,8.116A8.125,8.125,0,0,0,2107.012,2042.769Z" fill="#396fef"/>
    </g>
    <g id="Group_504" data-name="Group 504">
      <path id="Path_737" data-name="Path 737" d="M2126.244,2010.106a11.115,11.115,0,1,1,11.116-11.116A11.128,11.128,0,0,1,2126.244,2010.106Zm0-19.231a8.115,8.115,0,1,0,8.116,8.115A8.125,8.125,0,0,0,2126.244,1990.875Z" fill="#396fef"/>
    </g>
    <g id="Group_505" data-name="Group 505">
      <path id="Path_738" data-name="Path 738" d="M2115.507,2000.49H2101.9a1.5,1.5,0,0,1,0-3h13.61a1.5,1.5,0,0,1,0,3Z" fill="#396fef"/>
    </g>
    <g id="Group_506" data-name="Group 506">
      <path id="Path_739" data-name="Path 739" d="M2139.32,2026.438h-3.269a1.5,1.5,0,0,1,0-3h3.269a4.662,4.662,0,0,0,4.656-4.657v-13.635a4.662,4.662,0,0,0-4.656-4.656h-3.46a1.5,1.5,0,0,1,0-3h3.46a7.665,7.665,0,0,1,7.656,7.656v13.635A7.665,7.665,0,0,1,2139.32,2026.438Z" fill="#396fef"/>
    </g>
    <g id="Group_507" data-name="Group 507">
      <path id="Path_740" data-name="Path 740" d="M2122.124,2026.438h-5.5a1.5,1.5,0,0,1,0-3h5.5a1.5,1.5,0,0,1,0,3Z" fill="#396fef"/>
    </g>
    <g id="Group_508" data-name="Group 508">
      <path id="Path_741" data-name="Path 741" d="M2097.4,2052.385h-9.15a7.664,7.664,0,0,1-7.655-7.656v-13.635a7.664,7.664,0,0,1,7.655-7.656h9.15a1.5,1.5,0,0,1,0,3h-9.15a4.66,4.66,0,0,0-4.655,4.656v13.635a4.661,4.661,0,0,0,4.655,4.656h9.15a1.5,1.5,0,0,1,0,3Z" fill="#396fef"/>
    </g>
    <g id="Group_509" data-name="Group 509">
      <path id="Path_742" data-name="Path 742" d="M2130.238,2052.385h-13.61a1.5,1.5,0,0,1,0-3h13.61a1.5,1.5,0,0,1,0,3Z" fill="#396fef"/>
    </g>
    <g id="Group_510" data-name="Group 510">
      <path id="Path_743" data-name="Path 743" d="M2092.281,2010.106a11.115,11.115,0,1,1,11.116-11.116A11.128,11.128,0,0,1,2092.281,2010.106Zm0-19.231a8.115,8.115,0,1,0,8.116,8.115A8.124,8.124,0,0,0,2092.281,1990.875Z" fill="#ef39a6"/>
    </g>
    <g id="Group_511" data-name="Group 511">
      <path id="Path_744" data-name="Path 744" d="M2092.281,2005.025a6.034,6.034,0,1,1,6.034-6.035A6.041,6.041,0,0,1,2092.281,2005.025Zm0-9.069a3.034,3.034,0,1,0,3.034,3.034A3.038,3.038,0,0,0,2092.281,1995.956Z" fill="#ef39a6"/>
    </g>
    <g id="Group_512" data-name="Group 512">
      <path id="Path_745" data-name="Path 745" d="M2140.976,2056.919a6.034,6.034,0,1,1,6.034-6.034A6.041,6.041,0,0,1,2140.976,2056.919Zm0-9.069a3.034,3.034,0,1,0,3.034,3.035A3.038,3.038,0,0,0,2140.976,2047.85Z" fill="#ef39a6"/>
    </g>
    <g id="Group_513" data-name="Group 513">
      <path id="Path_746" data-name="Path 746" d="M2140.976,2062a11.115,11.115,0,1,1,11.116-11.115A11.128,11.128,0,0,1,2140.976,2062Zm0-19.231a8.115,8.115,0,1,0,8.116,8.116A8.125,8.125,0,0,0,2140.976,2042.769Z" fill="#ef39a6"/>
    </g>
    <g id="Group_514" data-name="Group 514">
      <path id="Path_747" data-name="Path 747" d="M2102.313,2052.385a1.5,1.5,0,0,1-1.5-1.5,6.206,6.206,0,0,1,6.2-6.2,1.5,1.5,0,0,1,0,3,3.2,3.2,0,0,0-3.2,3.2A1.5,1.5,0,0,1,2102.313,2052.385Z" fill="#396fef"/>
    </g>
    <g id="Group_515" data-name="Group 515">
      <path id="Path_748" data-name="Path 748" d="M2121.545,2000.49a1.5,1.5,0,0,1-1.5-1.5,6.206,6.206,0,0,1,6.2-6.2,1.5,1.5,0,0,1,0,3,3.2,3.2,0,0,0-3.2,3.2A1.5,1.5,0,0,1,2121.545,2000.49Z" fill="#396fef"/>
    </g>
    <g id="Group_516" data-name="Group 516">
      <path id="Path_749" data-name="Path 749" d="M2127.743,2026.438a1.5,1.5,0,0,1-1.1-2.518l5.188-5.62a1.5,1.5,0,1,1,2.2,2.035l-5.188,5.62A1.5,1.5,0,0,1,2127.743,2026.438Z" fill="#396fef"/>
    </g>
    <g id="Group_517" data-name="Group 517">
      <path id="Path_750" data-name="Path 750" d="M2132.933,2032.057a1.5,1.5,0,0,1-1.1-.482l-5.188-5.62a1.5,1.5,0,1,1,2.2-2.035l5.188,5.62a1.5,1.5,0,0,1-1.1,2.517Z" fill="#396fef"/>
    </g>
  </g>
</svg>
