<svg xmlns="http://www.w3.org/2000/svg" width="96.887" height="77.769" viewBox="0 0 96.887 77.769">
  <g id="Group_834" data-name="Group 834" transform="translate(-2314.141 -3192.16)">
    <g id="Group_798" data-name="Group 798">
      <path id="Path_966" data-name="Path 966" d="M2317.075,3236.625a1.5,1.5,0,0,1-1.481-1.273l-1.435-9.369a1.5,1.5,0,0,1,1.255-1.709l6.806-1.043a21.311,21.311,0,0,1,2.481-11.942,1.5,1.5,0,1,1,2.643,1.42,18.371,18.371,0,0,0-1.982,11.558,1.5,1.5,0,0,1-1.256,1.71l-6.755,1.035,1.208,7.886a1.5,1.5,0,0,1-1.255,1.71A1.617,1.617,0,0,1,2317.075,3236.625Z" fill="#396fef"/>
    </g>
    <g id="Group_799" data-name="Group 799">
      <path id="Path_967" data-name="Path 967" d="M2373.14,3228.034a1.5,1.5,0,0,1-1.48-1.273l-1.209-7.886-6.756,1.035a1.5,1.5,0,0,1-1.709-1.255,18.526,18.526,0,0,0-32.008-9.67,1.5,1.5,0,0,1-2.22-2.019,21.527,21.527,0,0,1,36.915,9.759l6.807-1.043a1.5,1.5,0,0,1,1.709,1.256l1.436,9.368a1.5,1.5,0,0,1-1.256,1.71A1.484,1.484,0,0,1,2373.14,3228.034Z" fill="#396fef"/>
    </g>
    <g id="Group_800" data-name="Group 800">
      <path id="Path_968" data-name="Path 968" d="M2333.143,3224.575a1.5,1.5,0,0,1-1.48-1.273,12.152,12.152,0,1,1,24.023-3.682,1.5,1.5,0,0,1-1.256,1.71l-21.058,3.227A1.459,1.459,0,0,1,2333.143,3224.575Zm10.536-12.267a9.16,9.16,0,0,0-9.158,9.038l17.85-2.735A9.173,9.173,0,0,0,2343.679,3212.308Z" fill="#396fef"/>
    </g>
    <g id="Group_801" data-name="Group 801">
      <path id="Path_969" data-name="Path 969" d="M2395.618,3223.992a1.488,1.488,0,0,1-.722-.186l-6.773-3.72a1.5,1.5,0,0,1-.592-2.036l3.72-6.773a1.5,1.5,0,0,1,2.754.3l1.005,3.445c.664,2.275,1.237,4.239,2.049,7.05a1.5,1.5,0,0,1-1.441,1.917Zm-4.736-5.813,2.289,1.257c-.352-1.211-.68-2.334-1.033-3.543Z" fill="#396fef"/>
    </g>
    <g id="Group_802" data-name="Group 802">
      <path id="Path_970" data-name="Path 970" d="M2358.182,3263.223a1.492,1.492,0,0,1-.72-.186l-27.952-15.351a1.5,1.5,0,0,1-.592-2.037l7.953-14.481,2.63,1.445-7.232,13.166,26.637,14.629a1.5,1.5,0,0,1-.724,2.815Z" fill="#396fef"/>
    </g>
    <g id="Group_803" data-name="Group 803">
      <path id="Path_971" data-name="Path 971" d="M2370.4,3269.929a1.491,1.491,0,0,1-.722-.185l-6.735-3.7a1.5,1.5,0,0,1,1.444-2.63l5.42,2.977,7.2-13.116a1.5,1.5,0,0,1,2.629,1.444l-7.924,14.431a1.5,1.5,0,0,1-1.315.778Z" fill="#396fef"/>
    </g>
    <g id="Group_804" data-name="Group 804">
      <path id="Path_972" data-name="Path 972" d="M2388.5,3236.957a1.5,1.5,0,0,1-1.314-2.223l6.4-11.649-5.459-3a1.5,1.5,0,0,1-.592-2.036l3-5.459-30.753-16.893-4.962,9.036a1.5,1.5,0,1,1-2.63-1.444l5.685-10.351a1.5,1.5,0,0,1,2.037-.592l33.383,18.338a1.5,1.5,0,0,1,.592,2.036l-3,5.458,5.458,3a1.5,1.5,0,0,1,.593,2.036l-7.117,12.965A1.5,1.5,0,0,1,2388.5,3236.957Z" fill="#396fef"/>
    </g>
    <g id="Group_808" data-name="Group 808">
      <g id="Group_805" data-name="Group 805">
        <path id="Path_973" data-name="Path 973" d="M2380.406,3255.5l-.077,0-12.933-.664a1.5,1.5,0,0,1-1.172-2.328l7.159-10.787a1.5,1.5,0,0,1,.574-.51l29.124-14.682a1.5,1.5,0,0,1,1.832.385,30.866,30.866,0,0,1,6.071,12.042,1.5,1.5,0,0,1-.78,1.7l-11.616,5.856a1.5,1.5,0,0,1-1.351-2.679l10.522-5.3a28.071,28.071,0,0,0-4.423-8.773l-27.674,13.952-5.484,8.264,9.908.509,12.4-6.251a1.5,1.5,0,1,1,1.35,2.679l-12.753,6.429A1.5,1.5,0,0,1,2380.406,3255.5Z" fill="#396fef"/>
      </g>
      <g id="Group_806" data-name="Group 806">
        <path id="Path_974" data-name="Path 974" d="M2405.257,3242.969a1.5,1.5,0,0,1-1.454-1.136,27.9,27.9,0,0,0-5.475-10.862,1.5,1.5,0,0,1,2.314-1.908,30.866,30.866,0,0,1,6.071,12.042,1.5,1.5,0,0,1-1.091,1.819A1.532,1.532,0,0,1,2405.257,3242.969Z" fill="#396fef"/>
      </g>
      <g id="Group_807" data-name="Group 807">
        <path id="Path_975" data-name="Path 975" d="M2380.406,3255.5l-.077,0-12.933-.664a1.5,1.5,0,0,1-1.172-2.328l7.159-10.787a1.5,1.5,0,0,1,.588-.517,1.551,1.551,0,0,1,1.9.427,38.466,38.466,0,0,1,6.01,11.92,1.5,1.5,0,0,1-.766,1.773l-.04.02A1.507,1.507,0,0,1,2380.406,3255.5Zm-10.228-3.527,8.157.418a35.763,35.763,0,0,0-1.616-3.717,35.387,35.387,0,0,0-2.025-3.505Z" fill="#ef39a6"/>
      </g>
    </g>
    <g id="Group_809" data-name="Group 809">
      <path id="Path_976" data-name="Path 976" d="M2359.106,3248.342a1.5,1.5,0,0,1-.721-.186l-16.205-8.9a1.5,1.5,0,0,1,1.445-2.629l16.205,8.9a1.5,1.5,0,0,1-.724,2.815Z" fill="#396fef"/>
    </g>
    <g id="Group_810" data-name="Group 810">
      <path id="Path_977" data-name="Path 977" d="M2348.292,3248.216a1.493,1.493,0,0,1-.721-.186l-7.873-4.324a1.5,1.5,0,0,1,1.445-2.629l7.872,4.324a1.5,1.5,0,0,1-.723,2.815Z" fill="#396fef"/>
    </g>
    <g id="Group_811" data-name="Group 811">
      <path id="Path_978" data-name="Path 978" d="M2354.2,3251.462a1.491,1.491,0,0,1-.721-.186l-1.969-1.081a1.5,1.5,0,0,1,1.445-2.63l1.968,1.081a1.5,1.5,0,0,1-.723,2.816Z" fill="#396fef"/>
    </g>
    <g id="Group_812" data-name="Group 812">
      <path id="Path_979" data-name="Path 979" d="M2362.394,3242.291a1.491,1.491,0,0,1-.722-.185l-16.208-8.9a1.5,1.5,0,0,1-.592-2.038l.735-1.335a1.5,1.5,0,0,1,1.086-.759l7.695-1.185a1.5,1.5,0,0,1,.951.168l10.792,5.933a1.5,1.5,0,0,1,.592,2.036l-3.014,5.49a1.5,1.5,0,0,1-.9.719A1.534,1.534,0,0,1,2362.394,3242.291Zm-13.354-10.546,12.761,7.009,1.571-2.861-9.031-4.964Z" fill="#396fef"/>
    </g>
    <g id="Group_815" data-name="Group 815">
      <path id="Path_982" data-name="Path 982" d="M2317.077,3236.622a1.5,1.5,0,0,1-.225-2.984l8.007-1.225a1.5,1.5,0,0,1,.454,2.966l-8.007,1.225A1.494,1.494,0,0,1,2317.077,3236.622Z" fill="#ef39a6"/>
    </g>
    <g id="Group_816" data-name="Group 816">
      <path id="Path_983" data-name="Path 983" d="M2330.66,3234.543a1.5,1.5,0,0,1-.225-2.984l42.479-6.508a1.5,1.5,0,1,1,.454,2.965l-42.479,6.509A1.445,1.445,0,0,1,2330.66,3234.543Z" fill="#ef39a6"/>
    </g>
    <g id="Group_817" data-name="Group 817">
      <path id="Path_984" data-name="Path 984" d="M2384.162,3244.384a1.5,1.5,0,0,1-.677-2.839l9.37-4.723a1.5,1.5,0,0,1,1.35,2.679l-9.369,4.723A1.5,1.5,0,0,1,2384.162,3244.384Z" fill="#396fef"/>
    </g>
  </g>
</svg>
