<svg xmlns="http://www.w3.org/2000/svg" width="74.912" height="80.757" viewBox="0 0 74.912 80.757">
  <g id="Group_696" data-name="Group 696" transform="translate(-1424.588 -2833.886)">
    <g id="Group_696-2" data-name="Group 696">
      <path id="Path_891" data-name="Path 891" d="M1446.621,2862.284a1.5,1.5,0,0,1-1.5-1.5v-20.9a6.007,6.007,0,0,1,6-6H1493.5a1.5,1.5,0,0,1,0,3h-42.375a3,3,0,0,0-3,3v20.9A1.5,1.5,0,0,1,1446.621,2862.284Z" fill="#396fef"/>
    </g>
    <g id="Group_697" data-name="Group 697">
      <path id="Path_892" data-name="Path 892" d="M1445.871,2893.793" fill="none" stroke="#396fef" stroke-linecap="round" stroke-linejoin="round" stroke-width="4"/>
    </g>
    <g id="Group_698" data-name="Group 698">
      <path id="Path_893" data-name="Path 893" d="M1484.5,2895.3a1.5,1.5,0,1,1-.007-3,3,3,0,0,0,3.007-3v-11.98a1.5,1.5,0,0,1,3,0v11.98A6.007,6.007,0,0,1,1484.5,2895.3Z" fill="#396fef"/>
    </g>
    <g id="Group_699" data-name="Group 699">
      <path id="Path_894" data-name="Path 894" d="M1489,2872.742a1.5,1.5,0,0,1-1.5-1.5v-31.356a6,6,0,1,1,12,0v12.563a1.5,1.5,0,0,1-1.5,1.5h-7.5v17.293A1.5,1.5,0,0,1,1489,2872.742Zm1.5-21.793h6v-11.063a3,3,0,0,0-6,0Z" fill="#396fef"/>
    </g>
    <g id="Group_700" data-name="Group 700">
      <path id="Path_895" data-name="Path 895" d="M1484.493,2895.3H1459.72a1.5,1.5,0,0,1,0-3H1479.3a5.972,5.972,0,0,1-.8-3v-7.41h-13.35a1.5,1.5,0,1,1,0-3H1480a1.5,1.5,0,0,1,1.5,1.5v8.91a3,3,0,0,0,2.993,3,1.5,1.5,0,0,1,0,3Z" fill="#396fef"/>
    </g>
    <g id="Group_701" data-name="Group 701">
      <path id="Path_896" data-name="Path 896" d="M1455.059,2848.512a1.5,1.5,0,0,1-.475-2.923c.3-.1.8-.266,24.487-.077a1.5,1.5,0,0,1-.012,3h-.012c-8.526-.068-22.4-.134-23.719-.024A1.55,1.55,0,0,1,1455.059,2848.512Zm.472-.076Zm0,0h0Z" fill="#396fef"/>
    </g>
    <g id="Group_702" data-name="Group 702">
      <path id="Path_897" data-name="Path 897" d="M1455.059,2854.032a1.5,1.5,0,0,1-.475-2.924c.281-.093.8-.267,16.056-.077a1.5,1.5,0,0,1-.038,3c-5.362-.067-14.168-.133-15.245-.029A1.514,1.514,0,0,1,1455.059,2854.032Zm.472-.077Zm0,0h0Z" fill="#396fef"/>
    </g>
    <g id="Group_703" data-name="Group 703">
      <path id="Path_898" data-name="Path 898" d="M1445.6,2901.308a21.026,21.026,0,1,1,4.44-41.58c.451.094.928.215,1.488.377a20.982,20.982,0,0,1,15.122,20.289h0a20.964,20.964,0,0,1-.613,4.9c-.072.3-.154.607-.243.907a21.148,21.148,0,0,1-4.991,8.63,20.852,20.852,0,0,1-4.437,3.523A21.072,21.072,0,0,1,1445.6,2901.308Zm.038-39.051a18.028,18.028,0,1,0,9.2,33.52,17.876,17.876,0,0,0,3.8-3.019,18.112,18.112,0,0,0,4.279-7.4c.076-.256.145-.517.207-.77a17.965,17.965,0,0,0,.527-4.206h0a17.976,17.976,0,0,0-12.959-17.393c-.484-.14-.89-.243-1.276-.324A17.862,17.862,0,0,0,1445.638,2862.257Z" fill="#ef39a6"/>
    </g>
    <g id="Group_704" data-name="Group 704">
      <path id="Path_899" data-name="Path 899" d="M1462.727,2914.643a4.442,4.442,0,0,1-3.863-2.236l-7.409-12.958,1.3-.747v0l-.386-1.45c1.113-.295,1.4.2,2.453,2.044l6.646,11.624a1.442,1.442,0,1,0,2.5-1.431l-7.411-12.963a1.5,1.5,0,0,1,2.6-1.489l7.411,12.963a4.44,4.44,0,0,1-3.848,6.645Zm-9.586-14.493h0Z" fill="#ef39a6"/>
    </g>
    <g id="Group_705" data-name="Group 705">
      <path id="Path_900" data-name="Path 900" d="M1444.182,2885.993a1.492,1.492,0,0,1-.85-.266l-4.2-2.894a1.5,1.5,0,1,1,1.7-2.47l3.076,2.12,6.181-7.368a1.5,1.5,0,1,1,2.3,1.927l-7.059,8.414A1.5,1.5,0,0,1,1444.182,2885.993Z" fill="#396fef"/>
    </g>
  </g>
</svg>
