<svg xmlns="http://www.w3.org/2000/svg" width="96.868" height="77.715" viewBox="0 0 96.868 77.715">
  <g id="Group_891" data-name="Group 891" transform="translate(-1566.126 -3261.615)">
    <g id="Group_879" data-name="Group 879">
      <path id="Path_1037" data-name="Path 1037" d="M1582.918,3332.154a3.262,3.262,0,0,1-2.606-1.036c-.84-.839-3.394-3.394,5.262-15.919a195.839,195.839,0,0,1,21.865-25.449,231.25,231.25,0,0,1,17.117-15.561,1.5,1.5,0,0,1,1.894,2.327c-5.395,4.391-11.236,9.7-16.89,15.355a192.751,192.751,0,0,0-21.518,25.034c-6.006,8.69-5.952,11.749-5.609,12.092.442.442,4.491.292,16.162-8.565a1.5,1.5,0,0,1,1.814,2.39C1590.417,3330.405,1585.469,3332.154,1582.918,3332.154Z" fill="#396fef"/>
    </g>
    <g id="Group_880" data-name="Group 880">
      <path id="Path_1038" data-name="Path 1038" d="M1620.62,3304.431a1.5,1.5,0,0,1-1.06-2.561,192.847,192.847,0,0,0,21.518-25.034c6.006-8.69,5.952-11.749,5.609-12.092-.015-.014-1.73-1.131-9.9,4.138a1.5,1.5,0,1,1-1.626-2.521c7.207-4.651,11.541-5.838,13.642-3.738.84.839,3.4,3.394-5.262,15.919a195.758,195.758,0,0,1-21.865,25.449A1.5,1.5,0,0,1,1620.62,3304.431Z" fill="#396fef"/>
    </g>
    <g id="Group_881" data-name="Group 881">
      <path id="Path_1039" data-name="Path 1039" d="M1630.4,3279.045q-.36,0-.721-.032a8.045,8.045,0,1,1,8.72-7.307h0a8.048,8.048,0,0,1-8,7.339Zm-.023-13.091a5.045,5.045,0,1,0,5.034,5.489h0a5.045,5.045,0,0,0-4.582-5.468C1630.673,3265.961,1630.522,3265.954,1630.372,3265.954Z" fill="#396fef"/>
    </g>
    <g id="Group_882" data-name="Group 882">
      <path id="Path_1040" data-name="Path 1040" d="M1627.936,3272.284c-.044,0-.089,0-.133-.006a1.5,1.5,0,0,1-1.363-1.626,3.959,3.959,0,0,1,4.288-3.593,1.5,1.5,0,0,1-.264,2.988.962.962,0,0,0-1.035.869A1.5,1.5,0,0,1,1627.936,3272.284Z" fill="#396fef"/>
    </g>
    <g id="Group_883" data-name="Group 883">
      <path id="Path_1041" data-name="Path 1041" d="M1601.733,3306.617l-.08,0q-.719-.037-1.428-.078a1.5,1.5,0,1,1,.173-3l1.412.077a1.5,1.5,0,0,1-.077,3Z" fill="#396fef"/>
    </g>
    <g id="Group_884" data-name="Group 884">
      <path id="Path_1042" data-name="Path 1042" d="M1625.791,3306.694a1.5,1.5,0,0,1-.066-3,150.1,150.1,0,0,0,25.268-2.961c8.614-1.979,9-3.847,9-3.865,0-.485-2.124-2.686-12.516-4.584a219.2,219.2,0,0,0-65.836,0c-10.392,1.9-12.516,4.1-12.516,4.584,0,1.64,9.443,5.4,31.272,6.672a1.5,1.5,0,1,1-.174,3c-10.252-.6-34.1-2.731-34.1-9.667,0-7.965,31.682-10.07,48.434-10.07s48.434,2.1,48.434,10.07c0,7.569-28.423,9.432-37.135,9.823Z" fill="#396fef"/>
    </g>
    <g id="Group_885" data-name="Group 885">
      <path id="Path_1043" data-name="Path 1043" d="M1646.231,3332.126c-2.149,0-6.01-1.227-13.152-6.139a1.5,1.5,0,0,1,1.7-2.471c8.556,5.883,11.568,5.82,11.909,5.481s.4-3.4-5.609-12.092a219.191,219.191,0,0,0-46.552-46.553c-8.69-6.006-11.747-5.954-12.093-5.608-.014.014-1.174,1.816,4.484,10.425a1.5,1.5,0,0,1-2.507,1.648c-6.5-9.894-5.453-12.84-4.1-14.195.839-.839,3.4-3.394,15.919,5.262a195.869,195.869,0,0,1,25.45,21.866c11.845,11.845,32.76,35.736,27.127,41.368A3.229,3.229,0,0,1,1646.231,3332.126Z" fill="#396fef"/>
    </g>
    <g id="Group_886" data-name="Group 886">
      <path id="Path_1044" data-name="Path 1044" d="M1588.481,3281.538a1.5,1.5,0,0,1-1.213-.616l-.373-.513a1.5,1.5,0,1,1,2.429-1.76l.367.505a1.5,1.5,0,0,1-1.21,2.384Z" fill="#396fef"/>
    </g>
    <g id="Group_887" data-name="Group 887">
      <path id="Path_1045" data-name="Path 1045" d="M1607.257,3303.18a1.494,1.494,0,0,1-1.067-.446,218.318,218.318,0,0,1-16.361-18.43,1.5,1.5,0,0,1,2.364-1.847,215.325,215.325,0,0,0,16.132,18.17,1.5,1.5,0,0,1-1.068,2.553Z" fill="#396fef"/>
    </g>
    <g id="Group_888" data-name="Group 888">
      <path id="Path_1046" data-name="Path 1046" d="M1611.749,3316.574h-14.125a1.5,1.5,0,0,1-1.5-1.5,15.642,15.642,0,0,1,15.625-15.624,1.5,1.5,0,0,1,1.5,1.5v14.124A1.5,1.5,0,0,1,1611.749,3316.574Zm-12.536-3h11.036v-11.036A12.648,12.648,0,0,0,1599.213,3313.574Z" fill="#ef39a6"/>
    </g>
    <g id="Group_889" data-name="Group 889">
      <path id="Path_1047" data-name="Path 1047" d="M1631.96,3330.907a1.5,1.5,0,0,1-1.28-2.279,16,16,0,0,0-5.266-21.913,1.5,1.5,0,1,1,1.581-2.551,19.017,19.017,0,0,1,6.248,26.021A1.5,1.5,0,0,1,1631.96,3330.907Z" fill="#ef39a6"/>
    </g>
    <g id="Group_890" data-name="Group 890">
      <path id="Path_1048" data-name="Path 1048" d="M1617,3339.329a18.7,18.7,0,0,1-6.114-1.012A18.981,18.981,0,0,1,1598,3320.324a1.5,1.5,0,0,1,1.5-1.5h16v-16a1.5,1.5,0,0,1,1.5-1.5,18.967,18.967,0,0,1,10,2.837,1.5,1.5,0,0,1-1.581,2.551,15.929,15.929,0,0,0-6.915-2.318v15.927a1.5,1.5,0,0,1-1.5,1.5h-15.928a15.983,15.983,0,0,0,10.784,13.655,16,16,0,0,0,15.144-2.66,1.5,1.5,0,1,1,1.877,2.34A19.049,19.049,0,0,1,1617,3339.329Z" fill="#ef39a6"/>
    </g>
  </g>
</svg>
