<svg xmlns="http://www.w3.org/2000/svg" width="17.376" height="12.875" viewBox="0 0 17.376 12.875">
  <g id="Group_986" data-name="Group 986" transform="translate(-2001.937 -1913.563)">
    <g id="Group_984" data-name="Group 984">
      <path id="Path_1124" data-name="Path 1124" d="M2018.313,1926.438h-15.375a1,1,0,0,1-1-1v-10.875a1,1,0,0,1,1-1h15.375a1,1,0,0,1,1,1v10.875A1,1,0,0,1,2018.313,1926.438Zm-14.375-2h13.375v-8.875h-13.375Z" fill="#396fef"/>
    </g>
    <g id="Group_985" data-name="Group 985">
      <path id="Path_1125" data-name="Path 1125" d="M2010.625,1921a.994.994,0,0,1-.577-.184l-7.688-5.437a1,1,0,1,1,1.155-1.633l7.11,5.029,7.11-5.029a1,1,0,1,1,1.155,1.633l-7.688,5.437A.994.994,0,0,1,2010.625,1921Z" fill="#396fef"/>
    </g>
  </g>
</svg>
