<svg xmlns="http://www.w3.org/2000/svg" width="14.13" height="19.438" viewBox="0 0 14.13 19.438">
  <g id="Group_983" data-name="Group 983" transform="translate(-2027.938 -1910.5)">
    <g id="Group_981" data-name="Group 981">
      <path id="Path_1123" data-name="Path 1123" d="M2035,1929.938a1,1,0,0,1-.8-.4c-.642-.849-6.267-8.394-6.267-11.976a7.065,7.065,0,0,1,14.13,0c0,3.582-5.626,11.127-6.267,11.976A1,1,0,0,1,2035,1929.938Zm0-17.438a5.071,5.071,0,0,0-5.065,5.065c0,1.951,2.841,6.573,5.065,9.683,2.224-3.11,5.065-7.732,5.065-9.683A5.07,5.07,0,0,0,2035,1912.5Z" fill="#396fef"/>
    </g>
    <g id="Group_982" data-name="Group 982">
      <circle id="Ellipse_896" data-name="Ellipse 896" cx="1.639" cy="1.639" r="1.639" transform="translate(2033.363 1915.642)" fill="#396fef"/>
    </g>
  </g>
</svg>
