<svg id="logo_white" xmlns="http://www.w3.org/2000/svg" width="59.745" height="17" viewBox="0 0 59.745 17">
  <rect id="Rectangle_83" data-name="Rectangle 83" width="2.72" height="17" transform="translate(15.545)" fill="#fff"/>
  <path id="Path_24" data-name="Path 24" d="M37.341,14.137A2.635,2.635,0,0,1,34.5,16.946c-1.626,0-1.922-1.522-1.922-2.44V8h-2.72v6.493a5.3,5.3,0,0,0,1.393,3.828,4.541,4.541,0,0,0,3.229,1.212,4.67,4.67,0,0,0,2.859-.9v.928h2.72V8h-2.72Z" transform="translate(-9.556 -2.56)" fill="#fff"/>
  <path id="Path_25" data-name="Path 25" d="M50.621,2H47.9V6.08h-2.04V8.8H47.9v8.84h2.72V8.8h2.04V6.08h-2.04Z" transform="translate(-14.676 -0.64)" fill="#fff"/>
  <path id="Path_26" data-name="Path 26" d="M64.645,16.008a3.3,3.3,0,0,1-2.232.828,3.188,3.188,0,0,1-3.281-3.3A3.116,3.116,0,0,1,62.413,10.3a3.386,3.386,0,0,1,2.247.813l.413.355,1.834-1.833-.459-.414A6,6,0,0,0,62.412,7.7a5.658,5.658,0,0,0-5.869,5.824,5.761,5.761,0,0,0,5.869,5.9,5.938,5.938,0,0,0,4.066-1.537l.443-.414-1.863-1.832Z" transform="translate(-18.094 -2.464)" fill="#fff"/>
  <path id="Path_27" data-name="Path 27" d="M82.157,6.448a4.233,4.233,0,0,0-5.576-.311V0h-2.72V17h2.72V10.632c0-2.6,1.848-2.808,2.5-2.808,1.626,0,1.581,1.523,1.581,2.439V17h2.72V10.277a5.225,5.225,0,0,0-1.224-3.829" transform="translate(-23.636)" fill="#fff"/>
  <path id="Path_28" data-name="Path 28" d="M64.118,13.438A1.967,1.967,0,1,1,62.152,15.4a1.966,1.966,0,0,1,1.966-1.967" transform="translate(-19.889 -4.3)" fill="#ff3d2e"/>
  <path id="Path_29" data-name="Path 29" d="M11.737,12.954A5.431,5.431,0,0,1,7.82,14.6c-3.03,0-5.233-2.38-5.233-5.647S4.79,3.287,7.82,3.287a5.493,5.493,0,0,1,3.9,1.626l.413.414,1.818-1.818-.4-.414A7.916,7.916,0,0,0,7.82.7C3.356.7,0,4.248,0,8.963S3.371,17.2,7.82,17.2a7.938,7.938,0,0,0,5.751-2.409l.4-.414-1.8-1.848Z" transform="translate(0 -0.224)" fill="#fff"/>
</svg>
