<svg xmlns="http://www.w3.org/2000/svg" width="20.647" height="20.657" viewBox="0 0 20.647 20.657">
  <g id="Group_173" data-name="Group 173" transform="translate(-1251.94 -3249.66)">
    <path id="Path_122" data-name="Path 122" d="M1263.8,3256.09a4.278,4.278,0,0,1-.07.81,5.388,5.388,0,0,1-4.55,4.55,4.28,4.28,0,0,1-.81.07,5.43,5.43,0,1,1,5.43-5.43Z" fill="none" stroke="#fff" stroke-linecap="round" stroke-linejoin="round" stroke-width="2"/>
    <path id="Path_123" data-name="Path 123" d="M1256.122,3255.165a2.446,2.446,0,0,1,1.521-1.394" fill="none" stroke="#fff" stroke-linecap="round" stroke-linejoin="round" stroke-width="2"/>
    <path id="Path_124" data-name="Path 124" d="M1271.587,3265.957l-3.36,3.36-9.047-7.867a5.388,5.388,0,0,0,4.55-4.55Z" fill="none" stroke="#fff" stroke-linecap="round" stroke-linejoin="round" stroke-width="2"/>
    <line id="Line_9" data-name="Line 9" y1="3.36" x2="3.36" transform="translate(1265.552 3263.282)" fill="none" stroke="#fff" stroke-linecap="round" stroke-linejoin="round" stroke-width="2"/>
  </g>
</svg>
