<svg xmlns="http://www.w3.org/2000/svg" width="87.438" height="58.811" viewBox="0 0 87.438 58.811">
  <g id="Group_377" data-name="Group 377" transform="translate(-2640.731 -2082.855)">
    <path id="Path_689" data-name="Path 689" d="M2657.375,2137.021a2.134,2.134,0,0,0,2.083,1.645h4.032a.475.475,0,0,0,.462-.587l-.761-3.177h-2.037a1.5,1.5,0,0,1,0-3h1.318l-.6-2.5h-2.038a1.5,1.5,0,0,1,0-3h1.319l-.925-3.862h-6.324Z" fill="none"/>
    <path id="Path_690" data-name="Path 690" d="M2654.592,2116.9a1.5,1.5,0,0,1,0-3h8.989V2102H2652.5a8.772,8.772,0,1,0,0,17.545h8.775a1.379,1.379,0,0,1,.25,0h2.052V2116.9Zm-4.76,0h-1.188a1.5,1.5,0,0,1,0-3h1.188a1.5,1.5,0,0,1,0,3Z" fill="none"/>
    <path id="Path_691" data-name="Path 691" d="M2695.482,2088.224a40.438,40.438,0,0,1-28.9,13.731v17.626a40.432,40.432,0,0,1,28.9,13.732l.071.079v-45.248Z" fill="none"/>
    <path id="Path_692" data-name="Path 692" d="M2698.552,2106.1v9.34a4.9,4.9,0,0,0,0-9.34Z" fill="none"/>
    <path id="Path_693" data-name="Path 693" d="M2716.237,2121.3v-2.624h-2.784v2.624a1.5,1.5,0,0,1-1.5,1.5h-2.624v2.784h2.624a1.5,1.5,0,0,1,1.5,1.5v2.623h2.784v-2.623a1.5,1.5,0,0,1,1.5-1.5h2.623V2122.8h-2.623A1.5,1.5,0,0,1,2716.237,2121.3Z" fill="none"/>
    <path id="Path_694" data-name="Path 694" d="M2719.732,2094.584v-3.937H2715.1v3.937a1.5,1.5,0,0,1-1.5,1.5h-3.937v4.628h3.937a1.5,1.5,0,0,1,1.5,1.5v3.937h4.628v-3.937a1.5,1.5,0,0,1,1.5-1.5h3.937v-4.628h-3.937A1.5,1.5,0,0,1,2719.732,2094.584Z" fill="none"/>
    <path id="Path_695" data-name="Path 695" d="M2695.552,2118.672v14.72l-.071-.079a40.432,40.432,0,0,0-28.9-13.732v-17.626a40.438,40.438,0,0,0,28.9-13.731l.07-.08v14.72h1.5a7.9,7.9,0,0,1,1.5.147v-18.534a1.619,1.619,0,0,0-2.836-1.07l-2.489,2.838A37.448,37.448,0,0,1,2665.081,2099H2652.5a11.765,11.765,0,0,0-1.717,23.4l3.67,15.319a5.127,5.127,0,0,0,5,3.946h4.032a3.477,3.477,0,0,0,3.38-4.286l-3.555-14.839h1.766a37.447,37.447,0,0,1,28.145,12.75l2.5,2.849a1.607,1.607,0,0,0,1.2.541,1.634,1.634,0,0,0,.584-.108,1.609,1.609,0,0,0,1.041-1.513v-18.535a7.9,7.9,0,0,1-1.5.147Zm-34.4,7.731h-1.319a1.5,1.5,0,0,0,0,3h2.038l.6,2.5h-1.318a1.5,1.5,0,0,0,0,3h2.037l.761,3.177a.475.475,0,0,1-.462.587h-4.032a2.134,2.134,0,0,1-2.083-1.645l-3.469-14.48h6.324Zm.374-6.862a1.379,1.379,0,0,0-.25,0H2652.5a8.772,8.772,0,1,1,0-17.545h11.077v11.9h-8.989a1.5,1.5,0,0,0,0,3h8.989v2.646Z" fill="#396fef"/>
    <path id="Path_696" data-name="Path 696" d="M2649.832,2113.9h-1.188a1.5,1.5,0,0,0,0,3h1.188a1.5,1.5,0,0,0,0-3Z" fill="#396fef"/>
    <path id="Path_697" data-name="Path 697" d="M2698.552,2103.011a7.9,7.9,0,0,0-1.5-.147h-1.5v15.808h1.5a7.9,7.9,0,0,0,1.5-15.661Zm0,12.427v-9.34a4.9,4.9,0,0,1,0,9.34Z" fill="#ef39a6"/>
    <path id="Path_698" data-name="Path 698" d="M2726.669,2093.084h-3.937v-3.937a1.5,1.5,0,0,0-1.5-1.5H2713.6a1.5,1.5,0,0,0-1.5,1.5v3.937h-3.937a1.5,1.5,0,0,0-1.5,1.5v7.628a1.5,1.5,0,0,0,1.5,1.5h3.937v3.937a1.5,1.5,0,0,0,1.5,1.5h7.628a1.5,1.5,0,0,0,1.5-1.5v-3.937h3.937a1.5,1.5,0,0,0,1.5-1.5v-7.628A1.5,1.5,0,0,0,2726.669,2093.084Zm-1.5,7.628h-3.937a1.5,1.5,0,0,0-1.5,1.5v3.937H2715.1v-3.937a1.5,1.5,0,0,0-1.5-1.5h-3.937v-4.628h3.937a1.5,1.5,0,0,0,1.5-1.5v-3.937h4.628v3.937a1.5,1.5,0,0,0,1.5,1.5h3.937Z" fill="#ef39a6"/>
    <path id="Path_699" data-name="Path 699" d="M2721.86,2119.8h-2.623v-2.624a1.5,1.5,0,0,0-1.5-1.5h-5.784a1.5,1.5,0,0,0-1.5,1.5v2.624h-2.624a1.5,1.5,0,0,0-1.5,1.5v5.784a1.5,1.5,0,0,0,1.5,1.5h2.624v2.623a1.5,1.5,0,0,0,1.5,1.5h5.784a1.5,1.5,0,0,0,1.5-1.5v-2.623h2.623a1.5,1.5,0,0,0,1.5-1.5V2121.3A1.5,1.5,0,0,0,2721.86,2119.8Zm-1.5,5.784h-2.623a1.5,1.5,0,0,0-1.5,1.5v2.623h-2.784v-2.623a1.5,1.5,0,0,0-1.5-1.5h-2.624V2122.8h2.624a1.5,1.5,0,0,0,1.5-1.5v-2.624h2.784v2.624a1.5,1.5,0,0,0,1.5,1.5h2.623Z" fill="#ef39a6"/>
  </g>
</svg>
