<svg xmlns="http://www.w3.org/2000/svg" width="273.93" height="234.391" viewBox="0 0 273.93 234.391">
  <g id="Group_8406" data-name="Group 8406" transform="translate(2942.116 -3045.583)">
    <g id="Group_8057" data-name="Group 8057" opacity="0.2">
      <path id="Path_4724" data-name="Path 4724" d="M-2891.785,3216.859l42.147-39.175-57.143,28.17Z" fill="#ef39a6"/>
    </g>
    <g id="Group_8058" data-name="Group 8058" opacity="0.2">
      <path id="Path_4725" data-name="Path 4725" d="M-2836.452,3187.359l70.4-9.675,12.439-8.072,9.1-13.183-22.942,1.425-13.334,10.255-68,7.6Z" fill="#ef39a6"/>
    </g>
    <g id="Group_8059" data-name="Group 8059">
      <path id="Path_4726" data-name="Path 4726" d="M-2822.385,3222.054l11.934.361-.75,13.945,22.25,6.986,39.25-9.986-23.849-23.167,51.349,3.205-5.75-11.289,17.118-1.985-19.376-33.765,2.258-29.776,29.721-10.041,15.853,21.636-.722,25.4,10.458,14.1-4.523,21.921-13.6,22.214-17.49,17.843-10.637-12.215,3.363,19.481,10.568,16.341-23-7.2-23.928.895-27.338-1.789-25.092-9.627-9.072-13.848-12.948-19.764Z" fill="#e6edfd"/>
    </g>
    <g id="Group_8060" data-name="Group 8060">
      <path id="Path_4727" data-name="Path 4727" d="M-2789.452,3252.859l10.233,12.314,27.338,1.789-7.371-12.544Z" fill="#fff"/>
    </g>
    <g id="Group_8061" data-name="Group 8061">
      <path id="Path_4728" data-name="Path 4728" d="M-2727.952,3137.131a.549.549,0,0,1-.361-.135l-11.99-10.472a.549.549,0,0,1-.052-.774.548.548,0,0,1,.774-.052l11.99,10.472a.548.548,0,0,1,.052.774A.545.545,0,0,1-2727.952,3137.131Z" fill="#396fef"/>
    </g>
    <g id="Group_8065" data-name="Group 8065">
      <g id="Group_8062" data-name="Group 8062">
        <path id="Path_4729" data-name="Path 4729" d="M-2738.811,3120.241a1.646,1.646,0,0,1-1.644-1.595,1.648,1.648,0,0,1,1.595-1.7l13.816-.421a1.662,1.662,0,0,1,1.695,1.595,1.647,1.647,0,0,1-1.595,1.7l-13.815.421Z" fill="#396fef"/>
      </g>
      <g id="Group_8064" data-name="Group 8064">
        <g id="Group_8063" data-name="Group 8063">
          <path id="Path_4730" data-name="Path 4730" d="M-2724.858,3122.626a4.454,4.454,0,0,0,4.317-4.588,4.456,4.456,0,0,0-4.589-4.317,4.455,4.455,0,0,0-4.317,4.588A4.455,4.455,0,0,0-2724.858,3122.626Z" fill="#396fef"/>
        </g>
      </g>
    </g>
    <g id="Group_8066" data-name="Group 8066">
      <path id="Path_4731" data-name="Path 4731" d="M-2827.8,3203.755a1.588,1.588,0,0,1-.228-.016,1.645,1.645,0,0,1-1.4-1.856l2.256-16.249a1.642,1.642,0,0,1,1.856-1.4,1.646,1.646,0,0,1,1.4,1.856l-2.255,16.249A1.647,1.647,0,0,1-2827.8,3203.755Z" fill="#396fef"/>
    </g>
    <g id="Group_8072" data-name="Group 8072">
      <g id="Group_8067" data-name="Group 8067">
        <path id="Path_4732" data-name="Path 4732" d="M-2918.449,3187.041a1.643,1.643,0,0,1-1.409-.794l-9-14.871a1.643,1.643,0,0,1,.555-2.259,1.645,1.645,0,0,1,2.26.555l9,14.87a1.645,1.645,0,0,1-.556,2.26A1.639,1.639,0,0,1-2918.449,3187.041Z" fill="#ef39a6"/>
      </g>
      <g id="Group_8069" data-name="Group 8069">
        <g id="Group_8068" data-name="Group 8068">
          <path id="Path_4733" data-name="Path 4733" d="M-2914.639,3183.088a4.455,4.455,0,0,1-1.505,6.117,4.455,4.455,0,0,1-6.118-1.5,4.456,4.456,0,0,1,1.5-6.118A4.455,4.455,0,0,1-2914.639,3183.088Z" fill="#ef39a6"/>
        </g>
      </g>
      <g id="Group_8071" data-name="Group 8071">
        <g id="Group_8070" data-name="Group 8070">
          <path id="Path_4734" data-name="Path 4734" d="M-2923.639,3168.218a4.456,4.456,0,0,0-6.118-1.505,4.455,4.455,0,0,0-1.5,6.118,4.456,4.456,0,0,0,6.118,1.5A4.456,4.456,0,0,0-2923.639,3168.218Z" fill="#ef39a6"/>
        </g>
      </g>
    </g>
    <g id="Group_8073" data-name="Group 8073">
      <path id="Path_4735" data-name="Path 4735" d="M-2927.451,3170.524l12-79.67,6-12.66,10.49-10.33,140.19-19.271,9.93,7.11,1.33,10.06-12,79.66-7.94,12.43-13.6,8.83-70.4,9.67-55.33,29.5,11.66-23.66-19.33,2.65-4,.55" fill="#ef39a6"/>
      <path id="Path_4736" data-name="Path 4736" d="M-2906.78,3207.5a1.649,1.649,0,0,1-1.146-.463,1.647,1.647,0,0,1-.331-1.91l10.291-20.881-20.261,2.779a1.651,1.651,0,0,1-1.854-1.406,1.646,1.646,0,0,1,1.406-1.855l23.33-3.2a1.649,1.649,0,0,1,1.559.668,1.646,1.646,0,0,1,.141,1.69l-9.4,19.076,50.821-27.1a1.649,1.649,0,0,1,.55-.178l70.036-9.62,12.993-8.436,7.56-11.835,11.913-79.083-1.206-9.123-8.817-6.313-139,19.106-9.892,9.743-5.771,12.177-11.964,79.43a1.65,1.65,0,0,1-1.873,1.382,1.646,1.646,0,0,1-1.382-1.873l12-79.67a1.633,1.633,0,0,1,.14-.459l6-12.66a1.631,1.631,0,0,1,.333-.468l10.489-10.33a1.651,1.651,0,0,1,.931-.458l140.19-19.27a1.642,1.642,0,0,1,1.182.292l9.93,7.111a1.646,1.646,0,0,1,.674,1.122l1.33,10.06a1.657,1.657,0,0,1,0,.461l-12,79.659a1.658,1.658,0,0,1-.241.641l-7.94,12.43a1.634,1.634,0,0,1-.491.5l-13.6,8.83a1.633,1.633,0,0,1-.672.25l-70.109,9.63-55.07,29.362A1.645,1.645,0,0,1-2906.78,3207.5Z" fill="#ef39a6"/>
    </g>
    <g id="Group_8079" data-name="Group 8079">
      <g id="Group_8074" data-name="Group 8074">
        <path id="Path_4737" data-name="Path 4737" d="M-2915.452,3092.5a1.634,1.634,0,0,1-.7-.158,1.646,1.646,0,0,1-.783-2.192l6-12.66a1.631,1.631,0,0,1,.333-.468l10.489-10.33a1.646,1.646,0,0,1,2.327.018,1.646,1.646,0,0,1-.017,2.327l-10.282,10.126-5.875,12.4A1.647,1.647,0,0,1-2915.452,3092.5Z" fill="#ef39a6"/>
      </g>
      <g id="Group_8076" data-name="Group 8076">
        <g id="Group_8075" data-name="Group 8075">
          <path id="Path_4738" data-name="Path 4738" d="M-2911.425,3092.762a4.454,4.454,0,0,1-5.933,2.118,4.454,4.454,0,0,1-2.118-5.933,4.454,4.454,0,0,1,5.933-2.118A4.455,4.455,0,0,1-2911.425,3092.762Z" fill="#ef39a6"/>
        </g>
      </g>
      <g id="Group_8078" data-name="Group 8078">
        <g id="Group_8077" data-name="Group 8077">
          <path id="Path_4739" data-name="Path 4739" d="M-2895.835,3071.039a4.456,4.456,0,0,0,.049-6.3,4.456,4.456,0,0,0-6.3-.049,4.455,4.455,0,0,0-.049,6.3A4.456,4.456,0,0,0-2895.835,3071.039Z" fill="#ef39a6"/>
        </g>
      </g>
    </g>
    <g id="Group_8080" data-name="Group 8080">
      <path id="Path_4740" data-name="Path 4740" d="M-2912.45,3183.172a1.608,1.608,0,0,1-.247-.019,1.645,1.645,0,0,1-1.382-1.872l12-79.667a1.647,1.647,0,0,1,1.872-1.382,1.647,1.647,0,0,1,1.383,1.872l-12,79.667A1.648,1.648,0,0,1-2912.45,3183.172Z" fill="#ef39a6"/>
    </g>
    <g id="Group_8081" data-name="Group 8081">
      <path id="Path_4741" data-name="Path 4741" d="M-2744.507,3158.075a1.7,1.7,0,0,1-.247-.018,1.646,1.646,0,0,1-1.382-1.873l12-79.666a1.647,1.647,0,0,1,1.872-1.383,1.647,1.647,0,0,1,1.383,1.873l-12,79.666A1.646,1.646,0,0,1-2744.507,3158.075Z" fill="#ef39a6"/>
    </g>
    <g id="Group_8082" data-name="Group 8082">
      <path id="Path_4742" data-name="Path 4742" d="M-2903.453,3198.045a1.639,1.639,0,0,1-.972-.319l-15-11.005a1.645,1.645,0,0,1-.353-2.3,1.645,1.645,0,0,1,2.3-.353l15,11a1.646,1.646,0,0,1,.353,2.3A1.641,1.641,0,0,1-2903.453,3198.045Z" fill="#ef39a6"/>
    </g>
    <g id="Group_8088" data-name="Group 8088">
      <g id="Group_8083" data-name="Group 8083">
        <path id="Path_4743" data-name="Path 4743" d="M-2891.787,3218.5a1.641,1.641,0,0,1-.972-.319l-14.995-11.005a1.644,1.644,0,0,1-.353-2.3,1.644,1.644,0,0,1,2.3-.353l14.995,11a1.646,1.646,0,0,1,.354,2.3A1.646,1.646,0,0,1-2891.787,3218.5Z" fill="#ef39a6"/>
      </g>
      <g id="Group_8085" data-name="Group 8085">
        <g id="Group_8084" data-name="Group 8084">
          <path id="Path_4744" data-name="Path 4744" d="M-2889.149,3213.268a4.455,4.455,0,0,1,.955,6.227,4.455,4.455,0,0,1-6.227.956,4.455,4.455,0,0,1-.956-6.227A4.456,4.456,0,0,1-2889.149,3213.268Z" fill="#ef39a6"/>
        </g>
      </g>
      <g id="Group_8087" data-name="Group 8087">
        <g id="Group_8086" data-name="Group 8086">
          <path id="Path_4745" data-name="Path 4745" d="M-2904.145,3202.263a4.455,4.455,0,0,0-6.227.956,4.454,4.454,0,0,0,.956,6.227,4.456,4.456,0,0,0,6.227-.956A4.456,4.456,0,0,0-2904.145,3202.263Z" fill="#ef39a6"/>
        </g>
      </g>
    </g>
    <g id="Group_8094" data-name="Group 8094">
      <g id="Group_8089" data-name="Group 8089">
        <path id="Path_4746" data-name="Path 4746" d="M-2891.784,3218.5a1.645,1.645,0,0,1-1.453-.871,1.647,1.647,0,0,1,.677-2.227l55.334-29.5a1.647,1.647,0,0,1,2.226.678,1.646,1.646,0,0,1-.677,2.227l-55.334,29.5A1.639,1.639,0,0,1-2891.784,3218.5Z" fill="#ef39a6"/>
      </g>
      <g id="Group_8091" data-name="Group 8091">
        <g id="Group_8090" data-name="Group 8090">
          <path id="Path_4747" data-name="Path 4747" d="M-2838.547,3183.428a4.455,4.455,0,0,1,6.026,1.836,4.454,4.454,0,0,1-1.835,6.026,4.455,4.455,0,0,1-6.027-1.835A4.456,4.456,0,0,1-2838.547,3183.428Z" fill="#ef39a6"/>
        </g>
      </g>
      <g id="Group_8093" data-name="Group 8093">
        <g id="Group_8092" data-name="Group 8092">
          <path id="Path_4748" data-name="Path 4748" d="M-2893.881,3212.928a4.455,4.455,0,0,0-1.835,6.027,4.455,4.455,0,0,0,6.027,1.835,4.455,4.455,0,0,0,1.835-6.026A4.456,4.456,0,0,0-2893.881,3212.928Z" fill="#ef39a6"/>
        </g>
      </g>
    </g>
    <g id="Group_8100" data-name="Group 8100">
      <g id="Group_8095" data-name="Group 8095">
        <path id="Path_4749" data-name="Path 4749" d="M-2836.454,3189a1.645,1.645,0,0,1-1.628-1.422,1.646,1.646,0,0,1,1.406-1.854l70.4-9.675a1.644,1.644,0,0,1,1.855,1.406,1.647,1.647,0,0,1-1.407,1.855l-70.4,9.675A1.723,1.723,0,0,1-2836.454,3189Z" fill="#ef39a6"/>
      </g>
      <g id="Group_8097" data-name="Group 8097">
        <g id="Group_8096" data-name="Group 8096">
          <path id="Path_4750" data-name="Path 4750" d="M-2835.845,3191.773a4.456,4.456,0,0,1-5.02-3.807,4.456,4.456,0,0,1,3.807-5.02,4.456,4.456,0,0,1,5.02,3.807A4.455,4.455,0,0,1-2835.845,3191.773Z" fill="#ef39a6"/>
        </g>
      </g>
      <g id="Group_8099" data-name="Group 8099">
        <g id="Group_8098" data-name="Group 8098">
          <path id="Path_4751" data-name="Path 4751" d="M-2765.444,3182.1a4.455,4.455,0,0,0,3.806-5.02,4.454,4.454,0,0,0-5.019-3.807,4.456,4.456,0,0,0-3.807,5.02A4.456,4.456,0,0,0-2765.444,3182.1Z" fill="#ef39a6"/>
        </g>
      </g>
    </g>
    <g id="Group_8106" data-name="Group 8106">
      <g id="Group_8101" data-name="Group 8101">
        <path id="Path_4752" data-name="Path 4752" d="M-2766.049,3179.331a1.646,1.646,0,0,1-1.382-.75,1.646,1.646,0,0,1,.484-2.277l13.6-8.825a1.647,1.647,0,0,1,2.277.484,1.647,1.647,0,0,1-.485,2.277l-13.6,8.825A1.633,1.633,0,0,1-2766.049,3179.331Z" fill="#ef39a6"/>
      </g>
      <g id="Group_8103" data-name="Group 8103">
        <g id="Group_8102" data-name="Group 8102">
          <path id="Path_4753" data-name="Path 4753" d="M-2754.877,3165.122a4.456,4.456,0,0,1,6.162,1.312,4.454,4.454,0,0,1-1.312,6.162,4.456,4.456,0,0,1-6.162-1.311A4.457,4.457,0,0,1-2754.877,3165.122Z" fill="#ef39a6"/>
        </g>
      </g>
      <g id="Group_8105" data-name="Group 8105">
        <g id="Group_8104" data-name="Group 8104">
          <path id="Path_4754" data-name="Path 4754" d="M-2768.476,3173.948a4.456,4.456,0,0,0-1.312,6.162,4.455,4.455,0,0,0,6.162,1.311,4.454,4.454,0,0,0,1.312-6.161A4.454,4.454,0,0,0-2768.476,3173.948Z" fill="#ef39a6"/>
        </g>
      </g>
    </g>
    <g id="Group_8107" data-name="Group 8107">
      <path id="Path_4755" data-name="Path 4755" d="M-2900.453,3103.5a1.63,1.63,0,0,1-.7-.158,1.646,1.646,0,0,1-.783-2.192l6-12.667a1.646,1.646,0,0,1,2.192-.782,1.645,1.645,0,0,1,.783,2.191l-6,12.667A1.646,1.646,0,0,1-2900.453,3103.5Z" fill="#ef39a6"/>
    </g>
    <g id="Group_8108" data-name="Group 8108">
      <path id="Path_4756" data-name="Path 4756" d="M-2894.452,3090.838a1.639,1.639,0,0,1-1.172-.49,1.645,1.645,0,0,1,.018-2.327l10.484-10.33a1.646,1.646,0,0,1,2.327.017,1.646,1.646,0,0,1-.018,2.328l-10.484,10.329A1.638,1.638,0,0,1-2894.452,3090.838Z" fill="#ef39a6"/>
    </g>
    <g id="Group_8114" data-name="Group 8114">
      <g id="Group_8109" data-name="Group 8109">
        <path id="Path_4757" data-name="Path 4757" d="M-2752.453,3170.5a1.645,1.645,0,0,1-.885-.259,1.645,1.645,0,0,1-.5-2.273l7.942-12.43a1.646,1.646,0,0,1,2.273-.5,1.646,1.646,0,0,1,.5,2.273l-7.943,12.43A1.645,1.645,0,0,1-2752.453,3170.5Z" fill="#ef39a6"/>
      </g>
      <g id="Group_8111" data-name="Group 8111">
        <g id="Group_8110" data-name="Group 8110">
          <path id="Path_4758" data-name="Path 4758" d="M-2748.262,3154.031a4.454,4.454,0,0,1,6.152-1.355,4.454,4.454,0,0,1,1.355,6.152,4.454,4.454,0,0,1-6.152,1.355A4.455,4.455,0,0,1-2748.262,3154.031Z" fill="#ef39a6"/>
        </g>
      </g>
      <g id="Group_8113" data-name="Group 8113">
        <g id="Group_8112" data-name="Group 8112">
          <path id="Path_4759" data-name="Path 4759" d="M-2756.206,3166.46a4.457,4.457,0,0,0,1.355,6.153,4.455,4.455,0,0,0,6.153-1.355,4.455,4.455,0,0,0-1.355-6.153A4.457,4.457,0,0,0-2756.206,3166.46Z" fill="#ef39a6"/>
        </g>
      </g>
    </g>
    <g id="Group_8115" data-name="Group 8115">
      <path id="Path_4760" data-name="Path 4760" d="M-2733.846,3068.354a1.636,1.636,0,0,1-.956-.308l-9.931-7.11a1.645,1.645,0,0,1-.38-2.3,1.644,1.644,0,0,1,2.3-.38l9.931,7.11a1.645,1.645,0,0,1,.38,2.3A1.644,1.644,0,0,1-2733.846,3068.354Z" fill="#ef39a6"/>
    </g>
    <g id="Group_8116" data-name="Group 8116">
      <path id="Path_4761" data-name="Path 4761" d="M-2732.511,3078.409a1.646,1.646,0,0,1-1.629-1.43l-1.336-10.054a1.646,1.646,0,0,1,1.415-1.848,1.648,1.648,0,0,1,1.848,1.414l1.336,10.055a1.647,1.647,0,0,1-1.415,1.848A1.621,1.621,0,0,1-2732.511,3078.409Z" fill="#ef39a6"/>
    </g>
    <g id="Group_8117" data-name="Group 8117">
      <circle id="Ellipse_1129" data-name="Ellipse 1129" cx="3.355" cy="3.355" r="3.355" transform="translate(-2848.741 3205.85)" fill="#ef39a6"/>
    </g>
    <g id="Group_8118" data-name="Group 8118">
      <path id="Path_4762" data-name="Path 4762" d="M-2743.776,3061.243a1.639,1.639,0,0,1-1-.341l-5.066-3.893a1.645,1.645,0,0,1-.3-2.307,1.647,1.647,0,0,1,2.308-.3l5.066,3.893a1.647,1.647,0,0,1,.3,2.308A1.642,1.642,0,0,1-2743.776,3061.243Z" fill="#ef39a6"/>
    </g>
    <g id="Group_8124" data-name="Group 8124">
      <g id="Group_8119" data-name="Group 8119">
        <path id="Path_4763" data-name="Path 4763" d="M-2732.51,3078.409a1.641,1.641,0,0,1-.972-.319l-15-11a1.646,1.646,0,0,1-.354-2.3,1.646,1.646,0,0,1,2.3-.354l15,11a1.645,1.645,0,0,1,.354,2.3A1.645,1.645,0,0,1-2732.51,3078.409Z" fill="#ef39a6"/>
      </g>
      <g id="Group_8121" data-name="Group 8121">
        <g id="Group_8120" data-name="Group 8120">
          <path id="Path_4764" data-name="Path 4764" d="M-2729.875,3073.17a4.455,4.455,0,0,1,.959,6.227,4.454,4.454,0,0,1-6.226.958,4.454,4.454,0,0,1-.959-6.226A4.455,4.455,0,0,1-2729.875,3073.17Z" fill="#ef39a6"/>
        </g>
      </g>
      <g id="Group_8123" data-name="Group 8123">
        <g id="Group_8122" data-name="Group 8122">
          <path id="Path_4765" data-name="Path 4765" d="M-2744.877,3062.172a4.455,4.455,0,0,0-6.227.959,4.455,4.455,0,0,0,.959,6.226,4.455,4.455,0,0,0,6.227-.959A4.455,4.455,0,0,0-2744.877,3062.172Z" fill="#ef39a6"/>
        </g>
      </g>
    </g>
    <g id="Group_8125" data-name="Group 8125">
      <path id="Path_4766" data-name="Path 4766" d="M-2744.509,3158.075a1.64,1.64,0,0,1-1.075-.4l-14.743-12.728a1.645,1.645,0,0,1-.17-2.321,1.646,1.646,0,0,1,2.321-.17l14.742,12.728a1.644,1.644,0,0,1,.171,2.32A1.642,1.642,0,0,1-2744.509,3158.075Z" fill="#ef39a6"/>
    </g>
    <g id="Group_8131" data-name="Group 8131">
      <g id="Group_8126" data-name="Group 8126">
        <path id="Path_4767" data-name="Path 4767" d="M-2753.613,3171.258a1.641,1.641,0,0,1-1.065-.392l-13.838-11.758a1.645,1.645,0,0,1-.189-2.319,1.646,1.646,0,0,1,2.32-.188l13.838,11.757a1.646,1.646,0,0,1,.189,2.32A1.644,1.644,0,0,1-2753.613,3171.258Z" fill="#ef39a6"/>
      </g>
      <g id="Group_8128" data-name="Group 8128">
        <g id="Group_8127" data-name="Group 8127">
          <circle id="Ellipse_1130" data-name="Ellipse 1130" cx="4.455" cy="4.455" r="4.455" transform="matrix(0.689, -0.725, 0.725, 0.689, -2759.91, 3169.77)" fill="#ef39a6"/>
        </g>
      </g>
      <g id="Group_8130" data-name="Group 8130">
        <g id="Group_8129" data-name="Group 8129">
          <path id="Path_4768" data-name="Path 4768" d="M-2764.566,3154.459a4.457,4.457,0,0,0-6.28.511,4.454,4.454,0,0,0,.511,6.279,4.454,4.454,0,0,0,6.279-.51A4.456,4.456,0,0,0-2764.566,3154.459Z" fill="#ef39a6"/>
        </g>
      </g>
    </g>
    <g id="Group_8137" data-name="Group 8137">
      <g id="Group_8132" data-name="Group 8132">
        <path id="Path_4769" data-name="Path 4769" d="M-2766.052,3179.331a1.64,1.64,0,0,1-.972-.319l-15-11a1.646,1.646,0,0,1-.354-2.3,1.647,1.647,0,0,1,2.3-.354l15,11a1.646,1.646,0,0,1,.354,2.3A1.644,1.644,0,0,1-2766.052,3179.331Z" fill="#ef39a6"/>
      </g>
      <g id="Group_8134" data-name="Group 8134">
        <g id="Group_8133" data-name="Group 8133">
          <path id="Path_4770" data-name="Path 4770" d="M-2763.416,3174.092a4.457,4.457,0,0,1,.958,6.227,4.455,4.455,0,0,1-6.227.958,4.455,4.455,0,0,1-.958-6.227A4.456,4.456,0,0,1-2763.416,3174.092Z" fill="#ef39a6"/>
        </g>
      </g>
      <g id="Group_8136" data-name="Group 8136">
        <g id="Group_8135" data-name="Group 8135">
          <path id="Path_4771" data-name="Path 4771" d="M-2778.416,3163.092a4.455,4.455,0,0,0-6.227.958,4.455,4.455,0,0,0,.958,6.227,4.455,4.455,0,0,0,6.226-.958A4.456,4.456,0,0,0-2778.416,3163.092Z" fill="#ef39a6"/>
        </g>
      </g>
    </g>
    <g id="Group_8138" data-name="Group 8138">
      <path id="Path_4772" data-name="Path 4772" d="M-2836.453,3189a1.639,1.639,0,0,1-.972-.319l-15-11.005a1.645,1.645,0,0,1-.353-2.3,1.644,1.644,0,0,1,2.3-.353l15,11a1.646,1.646,0,0,1,.353,2.3A1.644,1.644,0,0,1-2836.453,3189Z" fill="#ef39a6"/>
    </g>
    <g id="Group_8139" data-name="Group 8139">
      <path id="Path_4773" data-name="Path 4773" d="M-2826.333,3223.58a1.646,1.646,0,0,1-1.639-1.524l-1.468-19.825a1.645,1.645,0,0,1,1.519-1.763,1.652,1.652,0,0,1,1.763,1.52l1.469,19.825a1.647,1.647,0,0,1-1.52,1.763C-2826.25,3223.579-2826.292,3223.58-2826.333,3223.58Z" fill="#396fef"/>
    </g>
    <g id="Group_8140" data-name="Group 8140">
      <path id="Path_4774" data-name="Path 4774" d="M-2813.381,3243.344a1.645,1.645,0,0,1-1.378-.744l-12.948-19.764a1.644,1.644,0,0,1,.475-2.278,1.645,1.645,0,0,1,2.278.475l12.948,19.763a1.647,1.647,0,0,1-.475,2.279A1.638,1.638,0,0,1-2813.381,3243.344Z" fill="#396fef"/>
    </g>
    <g id="Group_8141" data-name="Group 8141">
      <path id="Path_4775" data-name="Path 4775" d="M-2789.228,3254.874a1.641,1.641,0,0,1-.708-.161l-24.156-11.529a1.647,1.647,0,0,1-.776-2.2,1.646,1.646,0,0,1,2.194-.776l24.156,11.529a1.647,1.647,0,0,1,.776,2.2A1.646,1.646,0,0,1-2789.228,3254.874Z" fill="#396fef"/>
    </g>
    <g id="Group_8142" data-name="Group 8142">
      <path id="Path_4776" data-name="Path 4776" d="M-2760.018,3256.547c-.032,0-.064,0-.1,0l-29.207-1.674a1.647,1.647,0,0,1-1.549-1.738,1.643,1.643,0,0,1,1.737-1.549l29.208,1.675a1.647,1.647,0,0,1,1.549,1.737A1.646,1.646,0,0,1-2760.018,3256.547Z" fill="#396fef"/>
    </g>
    <g id="Group_8143" data-name="Group 8143">
      <path id="Path_4777" data-name="Path 4777" d="M-2760.021,3256.548a1.647,1.647,0,0,1-1.638-1.5,1.647,1.647,0,0,1,1.492-1.787l24.594-2.224a1.652,1.652,0,0,1,1.787,1.491,1.647,1.647,0,0,1-1.491,1.787l-24.595,2.224C-2759.922,3256.545-2759.972,3256.548-2760.021,3256.548Z" fill="#396fef"/>
    </g>
    <g id="Group_8144" data-name="Group 8144">
      <path id="Path_4778" data-name="Path 4778" d="M-2714.563,3262.285a1.637,1.637,0,0,1-.587-.109l-20.862-7.96a1.645,1.645,0,0,1-.951-2.124,1.646,1.646,0,0,1,2.125-.951l20.861,7.96a1.647,1.647,0,0,1,.952,2.125A1.648,1.648,0,0,1-2714.563,3262.285Z" fill="#396fef"/>
    </g>
    <g id="Group_8145" data-name="Group 8145">
      <path id="Path_4779" data-name="Path 4779" d="M-2714.565,3262.285a1.647,1.647,0,0,1-1.616-1.345l-4.323-23.194a1.645,1.645,0,0,1,1.316-1.92,1.647,1.647,0,0,1,1.919,1.316l4.324,23.195a1.646,1.646,0,0,1-1.316,1.919A1.682,1.682,0,0,1-2714.565,3262.285Z" fill="#396fef"/>
    </g>
    <g id="Group_8146" data-name="Group 8146">
      <path id="Path_4780" data-name="Path 4780" d="M-2718.887,3239.089a1.637,1.637,0,0,1-1.1-.426,1.646,1.646,0,0,1-.114-2.325l18.048-19.9a1.647,1.647,0,0,1,2.325-.114,1.647,1.647,0,0,1,.114,2.325l-18.048,19.9A1.645,1.645,0,0,1-2718.887,3239.089Z" fill="#396fef"/>
    </g>
    <g id="Group_8147" data-name="Group 8147">
      <path id="Path_4781" data-name="Path 4781" d="M-2700.84,3219.188a1.639,1.639,0,0,1-.848-.236,1.646,1.646,0,0,1-.56-2.259L-2689,3194.71a1.647,1.647,0,0,1,2.259-.56,1.648,1.648,0,0,1,.56,2.26l-13.248,21.982A1.644,1.644,0,0,1-2700.84,3219.188Z" fill="#396fef"/>
    </g>
    <g id="Group_8148" data-name="Group 8148">
      <path id="Path_4782" data-name="Path 4782" d="M-2687.589,3197.206a1.683,1.683,0,0,1-.262-.021,1.646,1.646,0,0,1-1.365-1.885l3.693-23.054a1.643,1.643,0,0,1,1.885-1.365,1.647,1.647,0,0,1,1.365,1.886l-3.693,23.053A1.646,1.646,0,0,1-2687.589,3197.206Z" fill="#396fef"/>
    </g>
    <g id="Group_8149" data-name="Group 8149">
      <path id="Path_4783" data-name="Path 4783" d="M-2683.9,3174.152h-.04a1.644,1.644,0,0,1-1.606-1.683l.609-25.883a1.642,1.642,0,0,1,1.684-1.606,1.645,1.645,0,0,1,1.606,1.684l-.609,25.882A1.646,1.646,0,0,1-2683.9,3174.152Z" fill="#396fef"/>
    </g>
    <g id="Group_8150" data-name="Group 8150">
      <path id="Path_4784" data-name="Path 4784" d="M-2683.288,3148.27a1.639,1.639,0,0,1-1.321-.664l-14.942-20.082a1.646,1.646,0,0,1,.338-2.3,1.646,1.646,0,0,1,2.3.338l14.941,20.082a1.645,1.645,0,0,1-.338,2.3A1.636,1.636,0,0,1-2683.288,3148.27Z" fill="#396fef"/>
    </g>
    <g id="Group_8154" data-name="Group 8154">
      <g id="Group_8151" data-name="Group 8151">
        <path id="Path_4785" data-name="Path 4785" d="M-2698.23,3128.188a1.649,1.649,0,0,1-.492-.075l-26.763-8.368a1.647,1.647,0,0,1-1.08-2.062,1.648,1.648,0,0,1,2.062-1.08l26.764,8.368a1.647,1.647,0,0,1,1.079,2.062A1.646,1.646,0,0,1-2698.23,3128.188Z" fill="#396fef"/>
      </g>
      <g id="Group_8153" data-name="Group 8153">
        <g id="Group_8152" data-name="Group 8152">
          <path id="Path_4786" data-name="Path 4786" d="M-2699.56,3130.794a4.455,4.455,0,0,0,5.581-2.922,4.455,4.455,0,0,0-2.922-5.582,4.455,4.455,0,0,0-5.581,2.923A4.455,4.455,0,0,0-2699.56,3130.794Z" fill="#396fef"/>
        </g>
      </g>
    </g>
    <g id="Group_8155" data-name="Group 8155">
      <path id="Path_4787" data-name="Path 4787" d="M-2804.309,3257.192a1.645,1.645,0,0,1-1.378-.744l-9.072-13.848a1.645,1.645,0,0,1,.474-2.278,1.646,1.646,0,0,1,2.279.474l9.072,13.849a1.645,1.645,0,0,1-.475,2.278A1.64,1.64,0,0,1-2804.309,3257.192Z" fill="#396fef"/>
    </g>
    <g id="Group_8159" data-name="Group 8159">
      <g id="Group_8156" data-name="Group 8156">
        <path id="Path_4788" data-name="Path 4788" d="M-2779.219,3266.819a1.65,1.65,0,0,1-.589-.109l-25.092-9.627a1.646,1.646,0,0,1-.947-2.126,1.647,1.647,0,0,1,2.126-.947l25.092,9.627a1.645,1.645,0,0,1,.947,2.126A1.647,1.647,0,0,1-2779.219,3266.819Z" fill="#396fef"/>
      </g>
      <g id="Group_8158" data-name="Group 8158">
        <g id="Group_8157" data-name="Group 8157">
          <path id="Path_4789" data-name="Path 4789" d="M-2777.622,3261.014a4.456,4.456,0,0,1,2.563,5.755,4.454,4.454,0,0,1-5.755,2.563,4.453,4.453,0,0,1-2.563-5.754A4.455,4.455,0,0,1-2777.622,3261.014Z" fill="#396fef"/>
        </g>
      </g>
    </g>
    <g id="Group_8163" data-name="Group 8163">
      <g id="Group_8160" data-name="Group 8160">
        <path id="Path_4790" data-name="Path 4790" d="M-2779.217,3266.819a1.638,1.638,0,0,1-1.262-.589l-10.009-11.946a1.645,1.645,0,0,1,.2-2.318,1.646,1.646,0,0,1,2.318.2l10.009,11.946a1.645,1.645,0,0,1-.205,2.318A1.638,1.638,0,0,1-2779.217,3266.819Z" fill="#396fef"/>
      </g>
      <g id="Group_8162" data-name="Group 8162">
        <g id="Group_8161" data-name="Group 8161">
          <path id="Path_4791" data-name="Path 4791" d="M-2792.642,3256.088a4.456,4.456,0,0,1,.554-6.276,4.456,4.456,0,0,1,6.276.555,4.454,4.454,0,0,1-.554,6.275A4.455,4.455,0,0,1-2792.642,3256.088Z" fill="#396fef"/>
        </g>
      </g>
    </g>
    <g id="Group_8167" data-name="Group 8167">
      <g id="Group_8164" data-name="Group 8164">
        <path id="Path_4792" data-name="Path 4792" d="M-2751.878,3268.608l-.109,0-27.339-1.79a1.644,1.644,0,0,1-1.534-1.749,1.644,1.644,0,0,1,1.749-1.535l27.339,1.79a1.644,1.644,0,0,1,1.534,1.749A1.645,1.645,0,0,1-2751.878,3268.608Z" fill="#396fef"/>
      </g>
      <g id="Group_8166" data-name="Group 8166">
        <g id="Group_8165" data-name="Group 8165">
          <path id="Path_4793" data-name="Path 4793" d="M-2751.589,3262.518a4.454,4.454,0,0,1,4.154,4.736,4.454,4.454,0,0,1-4.736,4.154,4.455,4.455,0,0,1-4.154-4.736A4.454,4.454,0,0,1-2751.589,3262.518Z" fill="#396fef"/>
        </g>
      </g>
    </g>
    <g id="Group_8168" data-name="Group 8168">
      <path id="Path_4794" data-name="Path 4794" d="M-2751.881,3268.608a1.644,1.644,0,0,1-1.641-1.544,1.646,1.646,0,0,1,1.541-1.744l26.886-1.657a1.652,1.652,0,0,1,1.743,1.541,1.646,1.646,0,0,1-1.541,1.744l-26.886,1.657Z" fill="#396fef"/>
    </g>
    <g id="Group_8169" data-name="Group 8169">
      <path id="Path_4795" data-name="Path 4795" d="M-2704.956,3274.912a1.643,1.643,0,0,1-.607-.117l-20.039-7.961a1.644,1.644,0,0,1-.921-2.136,1.644,1.644,0,0,1,2.136-.922l20.039,7.96a1.646,1.646,0,0,1,.922,2.137A1.647,1.647,0,0,1-2704.956,3274.912Z" fill="#396fef"/>
    </g>
    <g id="Group_8170" data-name="Group 8170">
      <path id="Path_4796" data-name="Path 4796" d="M-2704.958,3274.912a1.645,1.645,0,0,1-1.627-1.419l-3.294-23.607a1.645,1.645,0,0,1,1.4-1.857,1.646,1.646,0,0,1,1.857,1.4l3.294,23.607a1.646,1.646,0,0,1-1.4,1.858A1.788,1.788,0,0,1-2704.958,3274.912Z" fill="#396fef"/>
    </g>
    <g id="Group_8171" data-name="Group 8171">
      <path id="Path_4797" data-name="Path 4797" d="M-2708.25,3251.3a1.638,1.638,0,0,1-1.151-.47,1.645,1.645,0,0,1-.024-2.327l17.49-17.842a1.646,1.646,0,0,1,2.327-.024,1.646,1.646,0,0,1,.024,2.327l-17.49,17.843A1.64,1.64,0,0,1-2708.25,3251.3Z" fill="#396fef"/>
    </g>
    <g id="Group_8177" data-name="Group 8177">
      <g id="Group_8172" data-name="Group 8172">
        <path id="Path_4798" data-name="Path 4798" d="M-2690.761,3233.462a1.638,1.638,0,0,1-.858-.242,1.646,1.646,0,0,1-.545-2.262l13.6-22.214a1.646,1.646,0,0,1,2.263-.545,1.646,1.646,0,0,1,.545,2.262l-13.6,22.214A1.644,1.644,0,0,1-2690.761,3233.462Z" fill="#396fef"/>
      </g>
      <g id="Group_8174" data-name="Group 8174">
        <g id="Group_8173" data-name="Group 8173">
          <path id="Path_4799" data-name="Path 4799" d="M-2680.964,3207.277a4.457,4.457,0,0,1,6.126-1.474,4.455,4.455,0,0,1,1.474,6.125,4.457,4.457,0,0,1-6.126,1.474A4.456,4.456,0,0,1-2680.964,3207.277Z" fill="#396fef"/>
        </g>
      </g>
      <g id="Group_8176" data-name="Group 8176">
        <g id="Group_8175" data-name="Group 8175">
          <path id="Path_4800" data-name="Path 4800" d="M-2694.559,3229.491a4.454,4.454,0,0,0,1.474,6.125,4.455,4.455,0,0,0,6.125-1.474,4.455,4.455,0,0,0-1.474-6.125A4.455,4.455,0,0,0-2694.559,3229.491Z" fill="#396fef"/>
        </g>
      </g>
    </g>
    <g id="Group_8183" data-name="Group 8183">
      <g id="Group_8178" data-name="Group 8178">
        <path id="Path_4801" data-name="Path 4801" d="M-2677.163,3211.249a1.682,1.682,0,0,1-.334-.035,1.646,1.646,0,0,1-1.279-1.944l4.523-21.921a1.648,1.648,0,0,1,1.944-1.28,1.646,1.646,0,0,1,1.279,1.945l-4.522,21.921A1.648,1.648,0,0,1-2677.163,3211.249Z" fill="#396fef"/>
      </g>
      <g id="Group_8180" data-name="Group 8180">
        <g id="Group_8179" data-name="Group 8179">
          <path id="Path_4802" data-name="Path 4802" d="M-2677,3186.781a4.455,4.455,0,0,1,5.263-3.463,4.455,4.455,0,0,1,3.462,5.263,4.454,4.454,0,0,1-5.263,3.463A4.454,4.454,0,0,1-2677,3186.781Z" fill="#396fef"/>
        </g>
      </g>
      <g id="Group_8182" data-name="Group 8182">
        <g id="Group_8181" data-name="Group 8181">
          <path id="Path_4803" data-name="Path 4803" d="M-2681.527,3208.7a4.456,4.456,0,0,0,3.463,5.263,4.456,4.456,0,0,0,5.263-3.463,4.456,4.456,0,0,0-3.463-5.263A4.455,4.455,0,0,0-2681.527,3208.7Z" fill="#396fef"/>
        </g>
      </g>
    </g>
    <g id="Group_8184" data-name="Group 8184">
      <path id="Path_4804" data-name="Path 4804" d="M-2672.643,3189.327a1.646,1.646,0,0,1-1.644-1.6l-.609-23.948a1.647,1.647,0,0,1,1.6-1.687,1.637,1.637,0,0,1,1.687,1.6l.608,23.948a1.645,1.645,0,0,1-1.6,1.687Z" fill="#396fef"/>
    </g>
    <g id="Group_8185" data-name="Group 8185">
      <path id="Path_4805" data-name="Path 4805" d="M-2673.249,3165.379a1.647,1.647,0,0,1-1.421-.813l-10.038-17.109a1.645,1.645,0,0,1,.586-2.252,1.646,1.646,0,0,1,2.252.586l10.039,17.109a1.647,1.647,0,0,1-.586,2.253A1.648,1.648,0,0,1-2673.249,3165.379Z" fill="#396fef"/>
    </g>
    <g id="Group_8186" data-name="Group 8186">
      <path id="Path_4806" data-name="Path 4806" d="M-2704.955,3274.911a1.64,1.64,0,0,1-1.31-.649l-9.608-12.627a1.646,1.646,0,0,1,.313-2.306,1.646,1.646,0,0,1,2.307.313l9.607,12.627a1.646,1.646,0,0,1-.313,2.306A1.636,1.636,0,0,1-2704.955,3274.911Z" fill="#396fef"/>
    </g>
    <g id="Group_8187" data-name="Group 8187">
      <path id="Path_4807" data-name="Path 4807" d="M-2708.249,3251.3a1.642,1.642,0,0,1-1.242-.565l-10.637-12.215a1.644,1.644,0,0,1,.161-2.321,1.644,1.644,0,0,1,2.321.16l10.638,12.215a1.646,1.646,0,0,1-.161,2.322A1.64,1.64,0,0,1-2708.249,3251.3Z" fill="#396fef"/>
    </g>
    <g id="Group_8188" data-name="Group 8188">
      <path id="Path_4808" data-name="Path 4808" d="M-2690.758,3233.462a1.643,1.643,0,0,1-1.346-.7l-10.079-14.274a1.647,1.647,0,0,1,.4-2.294,1.647,1.647,0,0,1,2.294.4l10.078,14.274a1.645,1.645,0,0,1-.4,2.294A1.638,1.638,0,0,1-2690.758,3233.462Z" fill="#396fef"/>
    </g>
    <g id="Group_8194" data-name="Group 8194">
      <g id="Group_8189" data-name="Group 8189">
        <path id="Path_4809" data-name="Path 4809" d="M-2677.163,3211.248a1.638,1.638,0,0,1-1.322-.665l-10.427-14.042a1.645,1.645,0,0,1,.34-2.3,1.644,1.644,0,0,1,2.3.34l10.427,14.043a1.645,1.645,0,0,1-.34,2.3A1.638,1.638,0,0,1-2677.163,3211.248Z" fill="#396fef"/>
      </g>
      <g id="Group_8191" data-name="Group 8191">
        <g id="Group_8190" data-name="Group 8190">
          <path id="Path_4810" data-name="Path 4810" d="M-2691.167,3198.216a4.455,4.455,0,0,1,.921-6.233,4.456,4.456,0,0,1,6.232.921,4.456,4.456,0,0,1-.921,6.233A4.455,4.455,0,0,1-2691.167,3198.216Z" fill="#396fef"/>
        </g>
      </g>
      <g id="Group_8193" data-name="Group 8193">
        <g id="Group_8192" data-name="Group 8192">
          <path id="Path_4811" data-name="Path 4811" d="M-2680.741,3212.258a4.456,4.456,0,0,0,6.233.921,4.455,4.455,0,0,0,.921-6.232,4.456,4.456,0,0,0-6.233-.921A4.456,4.456,0,0,0-2680.741,3212.258Z" fill="#396fef"/>
        </g>
      </g>
    </g>
    <g id="Group_8195" data-name="Group 8195">
      <path id="Path_4812" data-name="Path 4812" d="M-2672.64,3189.327a1.641,1.641,0,0,1-1.323-.665l-11.257-15.175a1.645,1.645,0,0,1,.341-2.3,1.645,1.645,0,0,1,2.3.341l11.257,15.175a1.645,1.645,0,0,1-.341,2.3A1.638,1.638,0,0,1-2672.64,3189.327Z" fill="#396fef"/>
    </g>
    <g id="Group_8196" data-name="Group 8196">
      <path id="Path_4813" data-name="Path 4813" d="M-2751.878,3268.609a1.645,1.645,0,0,1-1.366-.726l-8.14-12.061a1.645,1.645,0,0,1,.444-2.284,1.646,1.646,0,0,1,2.285.443l8.139,12.061a1.646,1.646,0,0,1-.443,2.285A1.636,1.636,0,0,1-2751.878,3268.609Z" fill="#396fef"/>
    </g>
    <g id="Group_8197" data-name="Group 8197">
      <path id="Path_4814" data-name="Path 4814" d="M-2724.993,3266.951a1.642,1.642,0,0,1-1.27-.6l-10.431-12.626a1.645,1.645,0,0,1,.221-2.317,1.645,1.645,0,0,1,2.316.22l10.431,12.627a1.644,1.644,0,0,1-.22,2.317A1.642,1.642,0,0,1-2724.993,3266.951Z" fill="#396fef"/>
    </g>
    <g id="Group_8198" data-name="Group 8198">
      <path id="Path_4815" data-name="Path 4815" d="M-2810.451,3222.963h-.017l-15.879-.48a.548.548,0,0,1-.532-.565.556.556,0,0,1,.565-.532l15.879.481a.549.549,0,0,1,.532.565A.548.548,0,0,1-2810.451,3222.963Z" fill="#396fef"/>
    </g>
    <g id="Group_8199" data-name="Group 8199">
      <path id="Path_4816" data-name="Path 4816" d="M-2811.2,3236.908h-.03a.549.549,0,0,1-.519-.577l.75-13.944a.561.561,0,0,1,.578-.519.55.55,0,0,1,.518.577l-.75,13.945A.548.548,0,0,1-2811.2,3236.908Z" fill="#396fef"/>
    </g>
    <g id="Group_8200" data-name="Group 8200">
      <path id="Path_4817" data-name="Path 4817" d="M-2788.952,3243.894a.546.546,0,0,1-.164-.025l-22.25-6.986a.549.549,0,0,1-.359-.688.548.548,0,0,1,.688-.359l22.25,6.986a.55.55,0,0,1,.359.688A.55.55,0,0,1-2788.952,3243.894Z" fill="#396fef"/>
    </g>
    <g id="Group_8201" data-name="Group 8201">
      <path id="Path_4818" data-name="Path 4818" d="M-2789.227,3253.776h-.015a.548.548,0,0,1-.533-.564l.275-9.882a.584.584,0,0,1,.563-.533.549.549,0,0,1,.534.563l-.276,9.883A.548.548,0,0,1-2789.227,3253.776Z" fill="#396fef"/>
    </g>
    <g id="Group_8202" data-name="Group 8202">
      <path id="Path_4819" data-name="Path 4819" d="M-2813.383,3242.247a.529.529,0,0,1-.2-.038.547.547,0,0,1-.313-.709l2.556-6.589a.548.548,0,0,1,.71-.313.55.55,0,0,1,.313.71l-2.557,6.588A.547.547,0,0,1-2813.383,3242.247Z" fill="#396fef"/>
    </g>
    <g id="Group_8206" data-name="Group 8206">
      <g id="Group_8203" data-name="Group 8203">
        <path id="Path_4820" data-name="Path 4820" d="M-2788.952,3243.9a.549.549,0,0,1-.531-.414.549.549,0,0,1,.4-.667l39.25-9.986a.551.551,0,0,1,.667.4.549.549,0,0,1-.4.667l-39.25,9.986A.538.538,0,0,1-2788.952,3243.9Z" fill="#396fef"/>
      </g>
      <g id="Group_8205" data-name="Group 8205">
        <g id="Group_8204" data-name="Group 8204">
          <path id="Path_4821" data-name="Path 4821" d="M-2789.694,3240.427a3.011,3.011,0,0,0-2.176,3.661,3.012,3.012,0,0,0,3.661,2.176,3.012,3.012,0,0,0,2.175-3.661A3.012,3.012,0,0,0-2789.694,3240.427Z" fill="#396fef"/>
        </g>
      </g>
    </g>
    <g id="Group_8210" data-name="Group 8210">
      <g id="Group_8207" data-name="Group 8207">
        <path id="Path_4822" data-name="Path 4822" d="M-2714.563,3261.188a.544.544,0,0,1-.336-.116l-35.139-27.28a.548.548,0,0,1-.1-.769.55.55,0,0,1,.77-.1l35.138,27.28a.548.548,0,0,1,.1.77A.548.548,0,0,1-2714.563,3261.188Z" fill="#396fef"/>
      </g>
      <g id="Group_8209" data-name="Group 8209">
        <g id="Group_8208" data-name="Group 8208">
          <path id="Path_4823" data-name="Path 4823" d="M-2747.855,3230.981a3.011,3.011,0,0,0-4.225.532,3.011,3.011,0,0,0,.532,4.225,3.013,3.013,0,0,0,4.225-.532A3.012,3.012,0,0,0-2747.855,3230.981Z" fill="#396fef"/>
        </g>
      </g>
    </g>
    <g id="Group_8214" data-name="Group 8214">
      <g id="Group_8211" data-name="Group 8211">
        <path id="Path_4824" data-name="Path 4824" d="M-2735.425,3253.227a.55.55,0,0,1-.442-.222l-14.276-19.319a.55.55,0,0,1,.115-.768.55.55,0,0,1,.768.115l14.276,19.32a.548.548,0,0,1-.115.767A.551.551,0,0,1-2735.425,3253.227Z" fill="#396fef"/>
      </g>
      <g id="Group_8213" data-name="Group 8213">
        <g id="Group_8212" data-name="Group 8212">
          <path id="Path_4825" data-name="Path 4825" d="M-2737.847,3254.468a3.012,3.012,0,0,0,4.211.632,3.011,3.011,0,0,0,.633-4.211,3.012,3.012,0,0,0-4.212-.632A3.012,3.012,0,0,0-2737.847,3254.468Z" fill="#396fef"/>
        </g>
      </g>
    </g>
    <g id="Group_8218" data-name="Group 8218">
      <g id="Group_8215" data-name="Group 8215">
        <path id="Path_4826" data-name="Path 4826" d="M-2760.019,3255.451a.548.548,0,0,1-.465-.257.549.549,0,0,1,.172-.756l26.318-16.55a.549.549,0,0,1,.757.173.548.548,0,0,1-.173.756l-26.318,16.549A.542.542,0,0,1-2760.019,3255.451Z" fill="#396fef"/>
      </g>
      <g id="Group_8217" data-name="Group 8217">
        <g id="Group_8216" data-name="Group 8216">
          <path id="Path_4827" data-name="Path 4827" d="M-2732.1,3240.9a3.011,3.011,0,0,0,.946-4.152,3.012,3.012,0,0,0-4.152-.946,3.012,3.012,0,0,0-.946,4.152A3.01,3.01,0,0,0-2732.1,3240.9Z" fill="#396fef"/>
        </g>
      </g>
    </g>
    <g id="Group_8222" data-name="Group 8222">
      <g id="Group_8219" data-name="Group 8219">
        <path id="Path_4828" data-name="Path 4828" d="M-2733.7,3238.9a.539.539,0,0,1-.163-.025l-16-4.993a.549.549,0,0,1-.36-.687.546.546,0,0,1,.687-.36l16,4.993a.549.549,0,0,1,.36.687A.548.548,0,0,1-2733.7,3238.9Z" fill="#396fef"/>
      </g>
      <g id="Group_8221" data-name="Group 8221">
        <g id="Group_8220" data-name="Group 8220">
          <path id="Path_4829" data-name="Path 4829" d="M-2734.6,3241.227a3.013,3.013,0,0,0,3.772-1.978,3.011,3.011,0,0,0-1.978-3.771,3.011,3.011,0,0,0-3.771,1.977A3.013,3.013,0,0,0-2734.6,3241.227Z" fill="#396fef"/>
        </g>
      </g>
    </g>
    <g id="Group_8226" data-name="Group 8226">
      <g id="Group_8223" data-name="Group 8223">
        <path id="Path_4830" data-name="Path 4830" d="M-2760.02,3255.451a.536.536,0,0,1-.236-.055.547.547,0,0,1-.258-.731l10.318-21.542a.547.547,0,0,1,.731-.258.547.547,0,0,1,.258.731l-10.318,21.543A.549.549,0,0,1-2760.02,3255.451Z" fill="#396fef"/>
      </g>
      <g id="Group_8225" data-name="Group 8225">
        <g id="Group_8224" data-name="Group 8224">
          <path id="Path_4831" data-name="Path 4831" d="M-2746.986,3234.66a3.012,3.012,0,0,0-1.415-4.017,3.013,3.013,0,0,0-4.017,1.416,3.011,3.011,0,0,0,1.416,4.016A3.011,3.011,0,0,0-2746.986,3234.66Z" fill="#396fef"/>
        </g>
      </g>
    </g>
    <g id="Group_8230" data-name="Group 8230">
      <g id="Group_8227" data-name="Group 8227">
        <path id="Path_4832" data-name="Path 4832" d="M-2733.7,3238.9a.547.547,0,0,1-.229-.05.548.548,0,0,1-.269-.728l11.5-24.955a.548.548,0,0,1,.728-.268.547.547,0,0,1,.268.727l-11.5,24.955A.547.547,0,0,1-2733.7,3238.9Z" fill="#396fef"/>
      </g>
      <g id="Group_8229" data-name="Group 8229">
        <g id="Group_8228" data-name="Group 8228">
          <path id="Path_4833" data-name="Path 4833" d="M-2736.436,3237.092a3.011,3.011,0,0,0,1.474,3.995,3.011,3.011,0,0,0,3.995-1.474,3.011,3.011,0,0,0-1.474-4A3.011,3.011,0,0,0-2736.436,3237.092Z" fill="#396fef"/>
        </g>
      </g>
    </g>
    <g id="Group_8234" data-name="Group 8234">
      <g id="Group_8231" data-name="Group 8231">
        <path id="Path_4834" data-name="Path 4834" d="M-2714.563,3261.188a.547.547,0,0,1-.416-.191l-19.139-22.287a.548.548,0,0,1,.059-.773.548.548,0,0,1,.773.058l19.139,22.287a.547.547,0,0,1-.059.773A.544.544,0,0,1-2714.563,3261.188Z" fill="#396fef"/>
      </g>
      <g id="Group_8233" data-name="Group 8233">
        <g id="Group_8232" data-name="Group 8232">
          <circle id="Ellipse_1131" data-name="Ellipse 1131" cx="3.011" cy="3.011" r="3.011" transform="translate(-2736.713 3235.341)" fill="#396fef"/>
        </g>
      </g>
    </g>
    <g id="Group_8238" data-name="Group 8238">
      <g id="Group_8235" data-name="Group 8235">
        <path id="Path_4835" data-name="Path 4835" d="M-2718.887,3237.993a.549.549,0,0,1-.543-.474l-3.315-24.046a.549.549,0,0,1,.469-.619.549.549,0,0,1,.618.469l3.315,24.046a.549.549,0,0,1-.469.618A.485.485,0,0,1-2718.887,3237.993Z" fill="#396fef"/>
      </g>
      <g id="Group_8237" data-name="Group 8237">
        <g id="Group_8236" data-name="Group 8236">
          <path id="Path_4836" data-name="Path 4836" d="M-2719.219,3212.987a3.011,3.011,0,0,0-3.394-2.572,3.012,3.012,0,0,0-2.572,3.394,3.012,3.012,0,0,0,3.394,2.572A3.011,3.011,0,0,0-2719.219,3212.987Z" fill="#396fef"/>
        </g>
      </g>
    </g>
    <g id="Group_8242" data-name="Group 8242">
      <g id="Group_8239" data-name="Group 8239">
        <path id="Path_4837" data-name="Path 4837" d="M-2722.2,3213.946a.548.548,0,0,1-.339-.117.549.549,0,0,1-.092-.77l20.5-26.039a.55.55,0,0,1,.771-.092.55.55,0,0,1,.091.771l-20.5,26.038A.545.545,0,0,1-2722.2,3213.946Z" fill="#396fef"/>
      </g>
      <g id="Group_8241" data-name="Group 8241">
        <g id="Group_8240" data-name="Group 8240">
          <path id="Path_4838" data-name="Path 4838" d="M-2724.568,3211.535a3.012,3.012,0,0,0,.5,4.229,3.012,3.012,0,0,0,4.228-.5,3.012,3.012,0,0,0-.5-4.229A3.012,3.012,0,0,0-2724.568,3211.535Z" fill="#396fef"/>
        </g>
      </g>
    </g>
    <g id="Group_8246" data-name="Group 8246">
      <g id="Group_8243" data-name="Group 8243">
        <path id="Path_4839" data-name="Path 4839" d="M-2700.838,3218.091a.549.549,0,0,1-.105-.01l-21.363-4.144a.549.549,0,0,1-.434-.644.549.549,0,0,1,.643-.434l21.363,4.145a.549.549,0,0,1,.434.643A.549.549,0,0,1-2700.838,3218.091Z" fill="#396fef"/>
      </g>
      <g id="Group_8245" data-name="Group 8245">
        <g id="Group_8244" data-name="Group 8244">
          <path id="Path_4840" data-name="Path 4840" d="M-2721.628,3210.442a3.011,3.011,0,0,0-3.53,2.383,3.011,3.011,0,0,0,2.383,3.529,3.01,3.01,0,0,0,3.529-2.382A3.012,3.012,0,0,0-2721.628,3210.442Z" fill="#396fef"/>
        </g>
      </g>
    </g>
    <g id="Group_8250" data-name="Group 8250">
      <g id="Group_8247" data-name="Group 8247">
        <path id="Path_4841" data-name="Path 4841" d="M-2687.591,3196.109a.537.537,0,0,1-.275-.075l-14.111-8.2a.548.548,0,0,1-.2-.749.548.548,0,0,1,.75-.2l14.111,8.2a.547.547,0,0,1,.2.749A.546.546,0,0,1-2687.591,3196.109Z" fill="#396fef"/>
      </g>
      <g id="Group_8249" data-name="Group 8249">
        <g id="Group_8248" data-name="Group 8248">
          <path id="Path_4842" data-name="Path 4842" d="M-2700.189,3184.756a3.011,3.011,0,0,0-4.116,1.09,3.012,3.012,0,0,0,1.09,4.117,3.012,3.012,0,0,0,4.117-1.091A3.011,3.011,0,0,0-2700.189,3184.756Z" fill="#396fef"/>
        </g>
      </g>
    </g>
    <g id="Group_8254" data-name="Group 8254">
      <g id="Group_8251" data-name="Group 8251">
        <path id="Path_4843" data-name="Path 4843" d="M-2700.838,3218.091a.547.547,0,0,1-.476-.276l-29.371-51.183a.547.547,0,0,1,.2-.748.547.547,0,0,1,.748.2l29.371,51.184a.548.548,0,0,1-.2.748A.54.54,0,0,1-2700.838,3218.091Z" fill="#396fef"/>
      </g>
      <g id="Group_8253" data-name="Group 8253">
        <g id="Group_8252" data-name="Group 8252">
          <path id="Path_4844" data-name="Path 4844" d="M-2727.6,3164.861a3.011,3.011,0,0,0-4.11-1.114,3.012,3.012,0,0,0-1.113,4.111,3.011,3.011,0,0,0,4.11,1.113A3.011,3.011,0,0,0-2727.6,3164.861Z" fill="#396fef"/>
        </g>
      </g>
    </g>
    <g id="Group_8258" data-name="Group 8258">
      <g id="Group_8255" data-name="Group 8255">
        <path id="Path_4845" data-name="Path 4845" d="M-2701.7,3187.908a.548.548,0,0,1-.325-.107l-28.508-21a.548.548,0,0,1-.116-.767.55.55,0,0,1,.767-.116l28.508,21a.549.549,0,0,1,.116.767A.548.548,0,0,1-2701.7,3187.908Z" fill="#396fef"/>
      </g>
      <g id="Group_8257" data-name="Group 8257">
        <g id="Group_8256" data-name="Group 8256">
          <path id="Path_4846" data-name="Path 4846" d="M-2728.424,3163.935a3.012,3.012,0,0,0-4.21.638,3.012,3.012,0,0,0,.639,4.211,3.012,3.012,0,0,0,4.21-.639A3.011,3.011,0,0,0-2728.424,3163.935Z" fill="#396fef"/>
        </g>
      </g>
    </g>
    <g id="Group_8262" data-name="Group 8262">
      <g id="Group_8259" data-name="Group 8259">
        <path id="Path_4847" data-name="Path 4847" d="M-2701.7,3187.908l-.061,0a.549.549,0,0,1-.485-.606l4.25-38.5a.553.553,0,0,1,.6-.485.549.549,0,0,1,.486.6l-4.25,38.5A.55.55,0,0,1-2701.7,3187.908Z" fill="#396fef"/>
      </g>
      <g id="Group_8261" data-name="Group 8261">
        <g id="Group_8260" data-name="Group 8260">
          <path id="Path_4848" data-name="Path 4848" d="M-2704.7,3187.029a3.011,3.011,0,0,0,2.663,3.323,3.011,3.011,0,0,0,3.323-2.662,3.011,3.011,0,0,0-2.662-3.323A3.011,3.011,0,0,0-2704.7,3187.029Z" fill="#396fef"/>
        </g>
      </g>
    </g>
    <g id="Group_8263" data-name="Group 8263">
      <path id="Path_4849" data-name="Path 4849" d="M-2697.452,3149.408a.549.549,0,0,1-.542-.463.551.551,0,0,1,.457-.628l14.162-2.235a.553.553,0,0,1,.628.457.548.548,0,0,1-.457.627l-14.162,2.235A.5.5,0,0,1-2697.452,3149.408Z" fill="#396fef"/>
    </g>
    <g id="Group_8264" data-name="Group 8264">
      <path id="Path_4850" data-name="Path 4850" d="M-2683.1,3174.132a.548.548,0,0,1-.475-.274l-14.352-24.723a.549.549,0,0,1,.2-.75.549.549,0,0,1,.75.2l14.352,24.724a.549.549,0,0,1-.2.75A.554.554,0,0,1-2683.1,3174.132Z" fill="#396fef"/>
    </g>
    <g id="Group_8265" data-name="Group 8265">
      <path id="Path_4851" data-name="Path 4851" d="M-2697.452,3149.408a.524.524,0,0,1-.2-.04l-30.5-12.276a.547.547,0,0,1-.3-.714.547.547,0,0,1,.713-.3l30.5,12.277a.547.547,0,0,1,.3.713A.547.547,0,0,1-2697.452,3149.408Z" fill="#396fef"/>
    </g>
    <g id="Group_8266" data-name="Group 8266">
      <path id="Path_4852" data-name="Path 4852" d="M-2730.209,3166.908l-.042,0a.548.548,0,0,1-.505-.588l2.257-29.776a.551.551,0,0,1,.589-.506.548.548,0,0,1,.5.589l-2.258,29.776A.548.548,0,0,1-2730.209,3166.908Z" fill="#396fef"/>
    </g>
    <g id="Group_8267" data-name="Group 8267">
      <path id="Path_4853" data-name="Path 4853" d="M-2727.952,3137.132a.548.548,0,0,1-.519-.373.549.549,0,0,1,.344-.7l29.721-10.041a.547.547,0,0,1,.7.344.549.549,0,0,1-.344.7l-29.721,10.041A.542.542,0,0,1-2727.952,3137.132Z" fill="#396fef"/>
    </g>
    <g id="Group_8268" data-name="Group 8268">
      <path id="Path_4854" data-name="Path 4854" d="M-2697.452,3149.408a.548.548,0,0,1-.548-.53l-.779-22.317a.549.549,0,0,1,.529-.567.572.572,0,0,1,.568.529l.779,22.317a.55.55,0,0,1-.53.568Z" fill="#396fef"/>
    </g>
    <g id="Group_8272" data-name="Group 8272">
      <g id="Group_8269" data-name="Group 8269">
        <path id="Path_4855" data-name="Path 4855" d="M-2730.209,3166.908a.547.547,0,0,1-.484-.29.549.549,0,0,1,.225-.743l32.758-17.5a.548.548,0,0,1,.742.226.548.548,0,0,1-.225.742l-32.758,17.5A.547.547,0,0,1-2730.209,3166.908Z" fill="#396fef"/>
      </g>
      <g id="Group_8271" data-name="Group 8271">
        <g id="Group_8270" data-name="Group 8270">
          <path id="Path_4856" data-name="Path 4856" d="M-2696.033,3151.515a3.011,3.011,0,0,0,1.237-4.075,3.011,3.011,0,0,0-4.075-1.236,3.01,3.01,0,0,0-1.236,4.074A3.009,3.009,0,0,0-2696.033,3151.515Z" fill="#396fef"/>
        </g>
      </g>
    </g>
    <g id="Group_8273" data-name="Group 8273">
      <path id="Path_4857" data-name="Path 4857" d="M-2679.452,3236.405a.541.541,0,0,1-.184-.032l-11.308-4.04a.549.549,0,0,1-.332-.7.546.546,0,0,1,.7-.332l11.308,4.039a.549.549,0,0,1,.332.7A.55.55,0,0,1-2679.452,3236.405Z" fill="#396fef"/>
    </g>
    <g id="Group_8277" data-name="Group 8277">
      <g id="Group_8274" data-name="Group 8274">
        <path id="Path_4858" data-name="Path 4858" d="M-2677.281,3243.568a.55.55,0,0,1-.525-.39l-2.171-7.163a.549.549,0,0,1,.366-.684.546.546,0,0,1,.684.366l2.171,7.163a.548.548,0,0,1-.366.684A.549.549,0,0,1-2677.281,3243.568Z" fill="#396fef"/>
      </g>
      <g id="Group_8276" data-name="Group 8276">
        <g id="Group_8275" data-name="Group 8275">
          <path id="Path_4859" data-name="Path 4859" d="M-2674.4,3242.145a3.011,3.011,0,0,1-2.008,3.755,3.011,3.011,0,0,1-3.755-2.008,3.011,3.011,0,0,1,2.008-3.755A3.012,3.012,0,0,1-2674.4,3242.145Z" fill="#396fef"/>
        </g>
      </g>
    </g>
    <g id="Group_8278" data-name="Group 8278">
      <path id="Path_4860" data-name="Path 4860" d="M-2741.6,3279.01a.547.547,0,0,1-.409-.182l-10.278-11.5a.55.55,0,0,1,.043-.775.55.55,0,0,1,.775.043l10.278,11.5a.55.55,0,0,1-.043.775A.55.55,0,0,1-2741.6,3279.01Z" fill="#396fef"/>
    </g>
    <g id="Group_8282" data-name="Group 8282">
      <g id="Group_8279" data-name="Group 8279">
        <path id="Path_4861" data-name="Path 4861" d="M-2741.6,3279.011a.548.548,0,0,1-.543-.479.548.548,0,0,1,.474-.614l11.708-1.5a.54.54,0,0,1,.613.474.548.548,0,0,1-.474.614l-11.707,1.5A.592.592,0,0,1-2741.6,3279.011Z" fill="#396fef"/>
      </g>
      <g id="Group_8281" data-name="Group 8281">
        <g id="Group_8280" data-name="Group 8280">
          <path id="Path_4862" data-name="Path 4862" d="M-2730.277,3273.975a3.011,3.011,0,0,1,3.369,2.6,3.013,3.013,0,0,1-2.6,3.37,3.012,3.012,0,0,1-3.369-2.6A3.01,3.01,0,0,1-2730.277,3273.975Z" fill="#396fef"/>
        </g>
      </g>
    </g>
    <g id="Group_8283" data-name="Group 8283">
      <path id="Path_4863" data-name="Path 4863" d="M-2810.827,3198.642l16.375,16.828,13.667-21.485Z" fill="#e6edfd"/>
    </g>
    <g id="Group_8287" data-name="Group 8287">
      <g id="Group_8284" data-name="Group 8284">
        <path id="Path_4864" data-name="Path 4864" d="M-2906.781,3206.4a.544.544,0,0,1-.4-.177.548.548,0,0,1,.032-.775l63.052-58.113a.55.55,0,0,1,.775.032.549.549,0,0,1-.032.775l-63.052,58.113A.549.549,0,0,1-2906.781,3206.4Z" fill="#ff6ec5"/>
      </g>
      <g id="Group_8286" data-name="Group 8286">
        <g id="Group_8285" data-name="Group 8285">
          <path id="Path_4865" data-name="Path 4865" d="M-2841.688,3149.956a3.012,3.012,0,0,0,.174-4.255,3.012,3.012,0,0,0-4.255-.174,3.011,3.011,0,0,0-.174,4.255A3.012,3.012,0,0,0-2841.688,3149.956Z" fill="#ff6ec5"/>
        </g>
      </g>
    </g>
    <g id="Group_8291" data-name="Group 8291">
      <g id="Group_8288" data-name="Group 8288">
        <path id="Path_4866" data-name="Path 4866" d="M-2848.785,3176.256a.565.565,0,0,1-.1-.009.549.549,0,0,1-.442-.638l5.057-27.965a.549.549,0,0,1,.637-.442.55.55,0,0,1,.443.637l-5.058,27.966A.547.547,0,0,1-2848.785,3176.256Z" fill="#ff6ec5"/>
      </g>
      <g id="Group_8290" data-name="Group 8290">
        <g id="Group_8289" data-name="Group 8289">
          <path id="Path_4867" data-name="Path 4867" d="M-2840.765,3148.277a3.012,3.012,0,0,0-2.428-3.5,3.011,3.011,0,0,0-3.5,2.427,3.012,3.012,0,0,0,2.428,3.5A3.012,3.012,0,0,0-2840.765,3148.277Z" fill="#ff6ec5"/>
        </g>
      </g>
    </g>
    <g id="Group_8292" data-name="Group 8292">
      <path id="Path_4868" data-name="Path 4868" d="M-2759.511,3145.973a.546.546,0,0,1-.235-.053l-49.336-23.441a.549.549,0,0,1-.26-.731.547.547,0,0,1,.731-.26l49.336,23.441a.548.548,0,0,1,.26.731A.55.55,0,0,1-2759.511,3145.973Z" fill="#ff6ec5"/>
    </g>
    <g id="Group_8293" data-name="Group 8293">
      <path id="Path_4869" data-name="Path 4869" d="M-2781.051,3167.233a.545.545,0,0,1-.327-.108l-29.776-22.159a.549.549,0,0,1-.113-.768.55.55,0,0,1,.768-.112l29.776,22.159a.547.547,0,0,1,.112.767A.545.545,0,0,1-2781.051,3167.233Z" fill="#ff6ec5"/>
    </g>
    <g id="Group_8294" data-name="Group 8294">
      <path id="Path_4870" data-name="Path 4870" d="M-2810.826,3145.074a.421.421,0,0,1-.049,0,.548.548,0,0,1-.5-.594l1.98-22.542a.546.546,0,0,1,.594-.5.548.548,0,0,1,.5.594l-1.98,22.543A.549.549,0,0,1-2810.826,3145.074Z" fill="#ff6ec5"/>
    </g>
    <g id="Group_8298" data-name="Group 8298">
      <g id="Group_8295" data-name="Group 8295">
        <path id="Path_4871" data-name="Path 4871" d="M-2810.827,3145.074a.546.546,0,0,1-.343-.12.549.549,0,0,1-.084-.772l63.316-78.761a.55.55,0,0,1,.771-.084.549.549,0,0,1,.084.771l-63.316,78.762A.55.55,0,0,1-2810.827,3145.074Z" fill="#ff6ec5"/>
      </g>
      <g id="Group_8297" data-name="Group 8297">
        <g id="Group_8296" data-name="Group 8296">
          <path id="Path_4872" data-name="Path 4872" d="M-2813.174,3142.64a3.012,3.012,0,0,0,.461,4.233,3.012,3.012,0,0,0,4.233-.46,3.012,3.012,0,0,0-.46-4.234A3.012,3.012,0,0,0-2813.174,3142.64Z" fill="#ff6ec5"/>
        </g>
      </g>
    </g>
    <g id="Group_8302" data-name="Group 8302">
      <g id="Group_8299" data-name="Group 8299">
        <path id="Path_4873" data-name="Path 4873" d="M-2843.728,3148.29a.548.548,0,0,1-.442-.223.548.548,0,0,1,.116-.767l34.882-25.758a.548.548,0,0,1,.767.116.549.549,0,0,1-.116.767l-34.882,25.758A.546.546,0,0,1-2843.728,3148.29Z" fill="#ff6ec5"/>
      </g>
      <g id="Group_8301" data-name="Group 8301">
        <g id="Group_8300" data-name="Group 8300">
          <path id="Path_4874" data-name="Path 4874" d="M-2807.058,3124.406a3.012,3.012,0,0,0,.634-4.211,3.011,3.011,0,0,0-4.211-.634,3.011,3.011,0,0,0-.634,4.211A3.012,3.012,0,0,0-2807.058,3124.406Z" fill="#ff6ec5"/>
        </g>
      </g>
    </g>
    <g id="Group_8306" data-name="Group 8306">
      <g id="Group_8303" data-name="Group 8303">
        <path id="Path_4875" data-name="Path 4875" d="M-2918.451,3185.943a.546.546,0,0,1-.329-.11.549.549,0,0,1-.109-.768l29.241-38.908a.549.549,0,0,1,.768-.109.549.549,0,0,1,.109.768l-29.241,38.908A.548.548,0,0,1-2918.451,3185.943Z" fill="#ff6ec5"/>
      </g>
      <g id="Group_8305" data-name="Group 8305">
        <g id="Group_8304" data-name="Group 8304">
          <path id="Path_4876" data-name="Path 4876" d="M-2886.8,3148.3a3.012,3.012,0,0,0-.6-4.216,3.012,3.012,0,0,0-4.217.6,3.012,3.012,0,0,0,.6,4.216A3.012,3.012,0,0,0-2886.8,3148.3Z" fill="#ff6ec5"/>
        </g>
      </g>
    </g>
    <g id="Group_8310" data-name="Group 8310">
      <g id="Group_8307" data-name="Group 8307">
        <path id="Path_4877" data-name="Path 4877" d="M-2843.728,3148.29h-.016l-45.481-1.255a.549.549,0,0,1-.533-.563.549.549,0,0,1,.564-.534l45.481,1.255a.55.55,0,0,1,.533.564A.548.548,0,0,1-2843.728,3148.29Z" fill="#ff6ec5"/>
      </g>
      <g id="Group_8309" data-name="Group 8309">
        <g id="Group_8308" data-name="Group 8308">
          <path id="Path_4878" data-name="Path 4878" d="M-2889.127,3143.477a3.011,3.011,0,0,0-3.093,2.927,3.012,3.012,0,0,0,2.927,3.093,3.011,3.011,0,0,0,3.093-2.927A3.01,3.01,0,0,0-2889.127,3143.477Z" fill="#ff6ec5"/>
        </g>
      </g>
    </g>
    <g id="Group_8314" data-name="Group 8314">
      <g id="Group_8311" data-name="Group 8311">
        <path id="Path_4879" data-name="Path 4879" d="M-2879.785,3096.075a.55.55,0,0,1-.451-.237l-19.176-27.661a.549.549,0,0,1,.139-.763.547.547,0,0,1,.763.138l19.176,27.661a.551.551,0,0,1-.139.764A.547.547,0,0,1-2879.785,3096.075Z" fill="#ff6ec5"/>
      </g>
      <g id="Group_8313" data-name="Group 8313">
        <g id="Group_8312" data-name="Group 8312">
          <path id="Path_4880" data-name="Path 4880" d="M-2901.435,3069.58a3.01,3.01,0,0,1,.759-4.19,3.012,3.012,0,0,1,4.19.759,3.012,3.012,0,0,1-.759,4.19A3.01,3.01,0,0,1-2901.435,3069.58Z" fill="#ff6ec5"/>
        </g>
      </g>
    </g>
    <g id="Group_8315" data-name="Group 8315">
      <path id="Path_4881" data-name="Path 4881" d="M-2893.452,3105.694a.543.543,0,0,1-.286-.081l-23.334-14.291a.549.549,0,0,1-.181-.754.549.549,0,0,1,.754-.181l23.334,14.291a.549.549,0,0,1,.181.754A.548.548,0,0,1-2893.452,3105.694Z" fill="#ff6ec5"/>
    </g>
    <g id="Group_8316" data-name="Group 8316">
      <path id="Path_4882" data-name="Path 4882" d="M-2893.451,3105.694a.546.546,0,0,1-.449-.233.548.548,0,0,1,.132-.764l13.667-9.62a.551.551,0,0,1,.765.133.551.551,0,0,1-.133.765l-13.667,9.619A.542.542,0,0,1-2893.451,3105.694Z" fill="#ff6ec5"/>
    </g>
    <g id="Group_8320" data-name="Group 8320">
      <g id="Group_8317" data-name="Group 8317">
        <path id="Path_4883" data-name="Path 4883" d="M-2889.21,3147.036a.549.549,0,0,1-.545-.493L-2894,3105.2a.549.549,0,0,1,.49-.6.547.547,0,0,1,.6.489l4.242,41.342a.549.549,0,0,1-.489.6Z" fill="#ff6ec5"/>
      </g>
      <g id="Group_8319" data-name="Group 8319">
        <g id="Group_8318" data-name="Group 8318">
          <path id="Path_4884" data-name="Path 4884" d="M-2890.456,3104.838a3.012,3.012,0,0,0-3.3-2.688,3.012,3.012,0,0,0-2.688,3.3,3.012,3.012,0,0,0,3.3,2.688A3.013,3.013,0,0,0-2890.456,3104.838Z" fill="#ff6ec5"/>
        </g>
      </g>
    </g>
    <g id="Group_8324" data-name="Group 8324">
      <g id="Group_8321" data-name="Group 8321">
        <path id="Path_4885" data-name="Path 4885" d="M-2848.785,3176.256a.548.548,0,0,1-.181-.031l-57.666-20.1a.55.55,0,0,1-.338-.7.553.553,0,0,1,.7-.338l57.667,20.1a.549.549,0,0,1,.337.7A.549.549,0,0,1-2848.785,3176.256Z" fill="#ff6ec5"/>
      </g>
      <g id="Group_8323" data-name="Group 8323">
        <g id="Group_8322" data-name="Group 8322">
          <path id="Path_4886" data-name="Path 4886" d="M-2905.461,3152.762a3.011,3.011,0,0,0-3.834,1.852,3.012,3.012,0,0,0,1.852,3.835,3.013,3.013,0,0,0,3.835-1.852A3.012,3.012,0,0,0-2905.461,3152.762Z" fill="#ff6ec5"/>
        </g>
      </g>
    </g>
    <g id="Group_8325" data-name="Group 8325">
      <path id="Path_4887" data-name="Path 4887" d="M-2927.45,3171.073a.547.547,0,0,1-.448-.231.55.55,0,0,1,.129-.765l21-14.919a.551.551,0,0,1,.766.13.549.549,0,0,1-.13.765l-21,14.919A.546.546,0,0,1-2927.45,3171.073Z" fill="#ff6ec5"/>
    </g>
    <g id="Group_8329" data-name="Group 8329">
      <g id="Group_8326" data-name="Group 8326">
        <path id="Path_4888" data-name="Path 4888" d="M-2906.451,3156.154a.583.583,0,0,1-.137-.017.548.548,0,0,1-.4-.668l13-50.46a.55.55,0,0,1,.668-.4.549.549,0,0,1,.4.668l-13,50.46A.549.549,0,0,1-2906.451,3156.154Z" fill="#ff6ec5"/>
      </g>
      <g id="Group_8328" data-name="Group 8328">
        <g id="Group_8327" data-name="Group 8327">
          <path id="Path_4889" data-name="Path 4889" d="M-2909.368,3154.854a3.012,3.012,0,0,0,2.165,3.667,3.011,3.011,0,0,0,3.667-2.165,3.012,3.012,0,0,0-2.165-3.667A3.012,3.012,0,0,0-2909.368,3154.854Z" fill="#ff6ec5"/>
        </g>
      </g>
    </g>
    <g id="Group_8330" data-name="Group 8330">
      <path id="Path_4890" data-name="Path 4890" d="M-2808.847,3122.532a.536.536,0,0,1-.166-.026l-34.882-11.124a.548.548,0,0,1-.356-.689.546.546,0,0,1,.689-.356l34.882,11.124a.549.549,0,0,1,.356.689A.549.549,0,0,1-2808.847,3122.532Z" fill="#ff6ec5"/>
    </g>
    <g id="Group_8334" data-name="Group 8334">
      <g id="Group_8331" data-name="Group 8331">
        <path id="Path_4891" data-name="Path 4891" d="M-2889.209,3147.035a.547.547,0,0,1-.432-.21.549.549,0,0,1,.093-.77l45.481-35.627a.546.546,0,0,1,.77.093.549.549,0,0,1-.093.77l-45.481,35.627A.545.545,0,0,1-2889.209,3147.035Z" fill="#ff6ec5"/>
      </g>
      <g id="Group_8333" data-name="Group 8333">
        <g id="Group_8332" data-name="Group 8332">
          <path id="Path_4892" data-name="Path 4892" d="M-2841.872,3113.23a3.013,3.013,0,0,0,.514-4.228,3.012,3.012,0,0,0-4.228-.513,3.012,3.012,0,0,0-.513,4.227A3.012,3.012,0,0,0-2841.872,3113.23Z" fill="#ff6ec5"/>
        </g>
      </g>
    </g>
    <g id="Group_8335" data-name="Group 8335">
      <path id="Path_4893" data-name="Path 4893" d="M-2843.729,3111.408a.543.543,0,0,1-.214-.044L-2880,3096.031a.549.549,0,0,1-.29-.72.549.549,0,0,1,.72-.29l36.056,15.333a.548.548,0,0,1,.29.72A.549.549,0,0,1-2843.729,3111.408Z" fill="#ff6ec5"/>
    </g>
    <g id="Group_8339" data-name="Group 8339">
      <g id="Group_8336" data-name="Group 8336">
        <path id="Path_4894" data-name="Path 4894" d="M-2843.728,3111.408a.55.55,0,0,1-.443-.224.549.549,0,0,1,.118-.767l84.958-62.265a.548.548,0,0,1,.766.118.548.548,0,0,1-.118.767L-2843.4,3111.3A.545.545,0,0,1-2843.728,3111.408Z" fill="#ff6ec5"/>
      </g>
      <g id="Group_8338" data-name="Group 8338">
        <g id="Group_8337" data-name="Group 8337">
          <path id="Path_4895" data-name="Path 4895" d="M-2760.551,3046.165a3.013,3.013,0,0,1,4.209.649,3.012,3.012,0,0,1-.649,4.209,3.012,3.012,0,0,1-4.209-.649A3.013,3.013,0,0,1-2760.551,3046.165Z" fill="#ff6ec5"/>
        </g>
      </g>
    </g>
    <g id="Group_8343" data-name="Group 8343">
      <g id="Group_8340" data-name="Group 8340">
        <path id="Path_4896" data-name="Path 4896" d="M-2879.785,3096.075a.549.549,0,0,1-.51-.346.549.549,0,0,1,.307-.713l46-18.333a.551.551,0,0,1,.713.307.551.551,0,0,1-.307.713l-46,18.333A.552.552,0,0,1-2879.785,3096.075Z" fill="#ff6ec5"/>
      </g>
      <g id="Group_8342" data-name="Group 8342">
        <g id="Group_8341" data-name="Group 8341">
          <path id="Path_4897" data-name="Path 4897" d="M-2832.67,3079.99a3.012,3.012,0,0,0,1.682-3.912,3.012,3.012,0,0,0-3.912-1.683,3.013,3.013,0,0,0-1.682,3.913A3.012,3.012,0,0,0-2832.67,3079.99Z" fill="#ff6ec5"/>
        </g>
      </g>
    </g>
    <g id="Group_8347" data-name="Group 8347">
      <g id="Group_8344" data-name="Group 8344">
        <path id="Path_4898" data-name="Path 4898" d="M-2795.806,3091.4a.548.548,0,0,1-.186-.032l-37.979-13.662a.548.548,0,0,1-.33-.7.549.549,0,0,1,.7-.33l37.979,13.661a.549.549,0,0,1,.331.7A.55.55,0,0,1-2795.806,3091.4Z" fill="#ff6ec5"/>
      </g>
      <g id="Group_8346" data-name="Group 8346">
        <g id="Group_8345" data-name="Group 8345">
          <path id="Path_4899" data-name="Path 4899" d="M-2796.825,3093.688a3.013,3.013,0,0,0,3.853-1.815,3.012,3.012,0,0,0-1.815-3.852,3.01,3.01,0,0,0-3.852,1.814A3.011,3.011,0,0,0-2796.825,3093.688Z" fill="#ff6ec5"/>
        </g>
      </g>
    </g>
    <g id="Group_8351" data-name="Group 8351">
      <g id="Group_8348" data-name="Group 8348">
        <path id="Path_4900" data-name="Path 4900" d="M-2808.847,3122.532a.536.536,0,0,1-.212-.043.549.549,0,0,1-.294-.718l13.041-31.128a.545.545,0,0,1,.718-.294.548.548,0,0,1,.294.717l-13.041,31.129A.548.548,0,0,1-2808.847,3122.532Z" fill="#ff6ec5"/>
      </g>
      <g id="Group_8350" data-name="Group 8350">
        <g id="Group_8349" data-name="Group 8349">
          <path id="Path_4901" data-name="Path 4901" d="M-2793.029,3092.018a3.011,3.011,0,0,0-1.613-3.941,3.011,3.011,0,0,0-3.941,1.614,3.011,3.011,0,0,0,1.614,3.941A3.011,3.011,0,0,0-2793.029,3092.018Z" fill="#ff6ec5"/>
        </g>
      </g>
    </g>
    <g id="Group_8355" data-name="Group 8355">
      <g id="Group_8352" data-name="Group 8352">
        <path id="Path_4902" data-name="Path 4902" d="M-2843.729,3148.291a.548.548,0,0,1-.545-.5.548.548,0,0,1,.492-.6l32.9-3.216a.544.544,0,0,1,.6.493.548.548,0,0,1-.492.6l-32.9,3.216Z" fill="#ff6ec5"/>
      </g>
      <g id="Group_8354" data-name="Group 8354">
        <g id="Group_8353" data-name="Group 8353">
          <path id="Path_4903" data-name="Path 4903" d="M-2810.534,3147.523a3.011,3.011,0,0,0,2.7-3.29,3.012,3.012,0,0,0-3.29-2.7,3.013,3.013,0,0,0-2.7,3.29A3.012,3.012,0,0,0-2810.534,3147.523Z" fill="#ff6ec5"/>
        </g>
      </g>
    </g>
    <g id="Group_8359" data-name="Group 8359">
      <g id="Group_8356" data-name="Group 8356">
        <path id="Path_4904" data-name="Path 4904" d="M-2843.729,3148.29a.549.549,0,0,1-.548-.548v-36.883a.549.549,0,0,1,.548-.548.549.549,0,0,1,.549.548v36.883A.549.549,0,0,1-2843.729,3148.29Z" fill="#ff6ec5"/>
      </g>
      <g id="Group_8358" data-name="Group 8358">
        <g id="Group_8357" data-name="Group 8357">
          <path id="Path_4905" data-name="Path 4905" d="M-2846.74,3147.742a3.012,3.012,0,0,0,3.011,3.011,3.011,3.011,0,0,0,3.011-3.011,3.012,3.012,0,0,0-3.011-3.012A3.012,3.012,0,0,0-2846.74,3147.742Z" fill="#ff6ec5"/>
        </g>
      </g>
    </g>
    <g id="Group_8363" data-name="Group 8363">
      <g id="Group_8360" data-name="Group 8360">
        <path id="Path_4906" data-name="Path 4906" d="M-2795.806,3091.4a.549.549,0,0,1-.487-.3.547.547,0,0,1,.234-.739l48.3-25.09a.549.549,0,0,1,.74.234.547.547,0,0,1-.234.739l-48.295,25.09A.55.55,0,0,1-2795.806,3091.4Z" fill="#ff6ec5"/>
      </g>
      <g id="Group_8362" data-name="Group 8362">
        <g id="Group_8361" data-name="Group 8361">
          <path id="Path_4907" data-name="Path 4907" d="M-2797.194,3088.183a3.011,3.011,0,0,0-1.284,4.06,3.011,3.011,0,0,0,4.06,1.283,3.01,3.01,0,0,0,1.284-4.06A3.011,3.011,0,0,0-2797.194,3088.183Z" fill="#ff6ec5"/>
        </g>
      </g>
    </g>
    <g id="Group_8364" data-name="Group 8364">
      <path id="Path_4908" data-name="Path 4908" d="M-2747.51,3066.313a.546.546,0,0,1-.459-.248l-11.26-17.17a.547.547,0,0,1,.157-.759.547.547,0,0,1,.759.157l11.261,17.171a.548.548,0,0,1-.158.759A.545.545,0,0,1-2747.51,3066.313Z" fill="#ff6ec5"/>
    </g>
    <g id="Group_8368" data-name="Group 8368">
      <g id="Group_8365" data-name="Group 8365">
        <path id="Path_4909" data-name="Path 4909" d="M-2808.846,3122.532a.546.546,0,0,1-.48-.282l-24.939-44.79a.55.55,0,0,1,.213-.747.549.549,0,0,1,.746.213l24.939,44.79a.55.55,0,0,1-.213.747A.546.546,0,0,1-2808.846,3122.532Z" fill="#ff6ec5"/>
      </g>
      <g id="Group_8367" data-name="Group 8367">
        <g id="Group_8366" data-name="Group 8366">
          <path id="Path_4910" data-name="Path 4910" d="M-2811.478,3123.448a3.012,3.012,0,0,0,4.1,1.166,3.011,3.011,0,0,0,1.166-4.1,3.012,3.012,0,0,0-4.095-1.166A3.013,3.013,0,0,0-2811.478,3123.448Z" fill="#ff6ec5"/>
        </g>
      </g>
    </g>
    <g id="Group_8369" data-name="Group 8369">
      <path id="Path_4911" data-name="Path 4911" d="M-2781.051,3167.233a.549.549,0,0,1-.54-.453l-3.128-17.781a.549.549,0,0,1,.445-.635.545.545,0,0,1,.635.445l3.128,17.78a.548.548,0,0,1-.445.636A.633.633,0,0,1-2781.051,3167.233Z" fill="#ff6ec5"/>
    </g>
    <g id="Group_8370" data-name="Group 8370">
      <path id="Path_4912" data-name="Path 4912" d="M-2784.179,3149.453a.55.55,0,0,1-.543-.473.549.549,0,0,1,.467-.619l24.668-3.48a.545.545,0,0,1,.619.467.547.547,0,0,1-.466.619l-24.668,3.48A.52.52,0,0,1-2784.179,3149.453Z" fill="#ff6ec5"/>
    </g>
    <g id="Group_8374" data-name="Group 8374">
      <g id="Group_8371" data-name="Group 8371">
        <path id="Path_4913" data-name="Path 4913" d="M-2784.179,3149.453a.549.549,0,0,1-.538-.441l-11.627-58.05a.55.55,0,0,1,.43-.646.551.551,0,0,1,.646.431l11.627,58.049a.549.549,0,0,1-.43.646A.566.566,0,0,1-2784.179,3149.453Z" fill="#ff6ec5"/>
      </g>
      <g id="Group_8373" data-name="Group 8373">
        <g id="Group_8372" data-name="Group 8372">
          <path id="Path_4914" data-name="Path 4914" d="M-2787.131,3149.5a3.011,3.011,0,0,0,3.544,2.361,3.011,3.011,0,0,0,2.361-3.544,3.012,3.012,0,0,0-3.544-2.361A3.012,3.012,0,0,0-2787.131,3149.5Z" fill="#ff6ec5"/>
        </g>
      </g>
    </g>
    <g id="Group_8375" data-name="Group 8375">
      <path id="Path_4915" data-name="Path 4915" d="M-2848.785,3176.256a.55.55,0,0,1-.507-.339.549.549,0,0,1,.3-.717l64.607-26.8a.55.55,0,0,1,.717.3.548.548,0,0,1-.3.717l-64.607,26.8A.562.562,0,0,1-2848.785,3176.256Z" fill="#ff6ec5"/>
    </g>
    <g id="Group_8379" data-name="Group 8379">
      <g id="Group_8376" data-name="Group 8376">
        <path id="Path_4916" data-name="Path 4916" d="M-2889.209,3147.036a.568.568,0,0,1-.1-.01.548.548,0,0,1-.44-.639l9.424-50.961a.553.553,0,0,1,.639-.44.548.548,0,0,1,.44.639l-9.424,50.961A.549.549,0,0,1-2889.209,3147.036Z" fill="#ff6ec5"/>
      </g>
      <g id="Group_8378" data-name="Group 8378">
        <g id="Group_8377" data-name="Group 8377">
          <path id="Path_4917" data-name="Path 4917" d="M-2876.824,3096.074a3.012,3.012,0,0,0-2.413-3.509,3.011,3.011,0,0,0-3.509,2.413,3.012,3.012,0,0,0,2.413,3.509A3.013,3.013,0,0,0-2876.824,3096.074Z" fill="#ff6ec5"/>
        </g>
      </g>
    </g>
    <g id="Group_8383" data-name="Group 8383">
      <g id="Group_8380" data-name="Group 8380">
        <path id="Path_4918" data-name="Path 4918" d="M-2833.786,3077.742a.549.549,0,0,1-.543-.477.548.548,0,0,1,.472-.616l86.274-11.428a.546.546,0,0,1,.616.471.549.549,0,0,1-.471.617l-86.275,11.428A.628.628,0,0,1-2833.786,3077.742Z" fill="#ff6ec5"/>
      </g>
      <g id="Group_8382" data-name="Group 8382">
        <g id="Group_8381" data-name="Group 8381">
          <path id="Path_4919" data-name="Path 4919" d="M-2747.115,3068.749a3.01,3.01,0,0,0,2.589-3.38,3.01,3.01,0,0,0-3.38-2.589,3.011,3.011,0,0,0-2.59,3.38A3.011,3.011,0,0,0-2747.115,3068.749Z" fill="#ff6ec5"/>
        </g>
      </g>
    </g>
    <g id="Group_8384" data-name="Group 8384">
      <path id="Path_4920" data-name="Path 4920" d="M-2833.785,3077.742a.536.536,0,0,1-.078-.006l-65.176-9.328a.549.549,0,0,1-.465-.621.546.546,0,0,1,.621-.465l65.175,9.328a.549.549,0,0,1,.466.621A.55.55,0,0,1-2833.785,3077.742Z" fill="#ff6ec5"/>
    </g>
    <g id="Group_8388" data-name="Group 8388">
      <g id="Group_8385" data-name="Group 8385">
        <path id="Path_4921" data-name="Path 4921" d="M-2843.729,3111.408a.529.529,0,0,1-.155-.023.547.547,0,0,1-.37-.681l9.943-33.666a.547.547,0,0,1,.681-.371.548.548,0,0,1,.371.681l-9.944,33.667A.548.548,0,0,1-2843.729,3111.408Z" fill="#ff6ec5"/>
      </g>
      <g id="Group_8387" data-name="Group 8387">
        <g id="Group_8386" data-name="Group 8386">
          <path id="Path_4922" data-name="Path 4922" d="M-2830.9,3078.045a3.011,3.011,0,0,0-2.035-3.74,3.012,3.012,0,0,0-3.741,2.035,3.011,3.011,0,0,0,2.035,3.74A3.011,3.011,0,0,0-2830.9,3078.045Z" fill="#ff6ec5"/>
        </g>
      </g>
    </g>
    <g id="Group_8392" data-name="Group 8392">
      <g id="Group_8389" data-name="Group 8389">
        <path id="Path_4923" data-name="Path 4923" d="M-2759.51,3145.973a.546.546,0,0,1-.457-.245l-36.3-54.57a.548.548,0,0,1,.153-.76.546.546,0,0,1,.76.153l36.3,54.57a.548.548,0,0,1-.153.76A.546.546,0,0,1-2759.51,3145.973Z" fill="#ff6ec5"/>
      </g>
      <g id="Group_8391" data-name="Group 8391">
        <g id="Group_8390" data-name="Group 8390">
          <path id="Path_4924" data-name="Path 4924" d="M-2762.018,3147.092a3.013,3.013,0,0,0,4.175.84,3.013,3.013,0,0,0,.84-4.175,3.011,3.011,0,0,0-4.175-.84A3.011,3.011,0,0,0-2762.018,3147.092Z" fill="#ff6ec5"/>
        </g>
      </g>
    </g>
    <g id="Group_8393" data-name="Group 8393">
      <path id="Path_4925" data-name="Path 4925" d="M-2927.451,3171.073a.55.55,0,0,1-.241-.056.548.548,0,0,1-.251-.734l33-67.331a.546.546,0,0,1,.734-.252.549.549,0,0,1,.251.734l-33,67.332A.55.55,0,0,1-2927.451,3171.073Z" fill="#ff6ec5"/>
    </g>
    <g id="Group_8397" data-name="Group 8397">
      <g id="Group_8394" data-name="Group 8394">
        <path id="Path_4926" data-name="Path 4926" d="M-2927.451,3171.073a.548.548,0,0,1-.529-.405.548.548,0,0,1,.385-.673l83.722-22.783a.549.549,0,0,1,.674.386.549.549,0,0,1-.385.673l-83.723,22.783A.552.552,0,0,1-2927.451,3171.073Z" fill="#ff6ec5"/>
      </g>
      <g id="Group_8396" data-name="Group 8396">
        <g id="Group_8395" data-name="Group 8395">
          <path id="Path_4927" data-name="Path 4927" d="M-2928.241,3167.619a3.011,3.011,0,0,0-2.115,3.7,3.011,3.011,0,0,0,3.7,2.115,3.013,3.013,0,0,0,2.115-3.7A3.011,3.011,0,0,0-2928.241,3167.619Z" fill="#ff6ec5"/>
        </g>
      </g>
    </g>
    <g id="Group_8398" data-name="Group 8398">
      <path id="Path_4928" data-name="Path 4928" d="M-2918.451,3185.943a.546.546,0,0,1-.512-.354.547.547,0,0,1,.317-.707l107.625-40.869a.548.548,0,0,1,.707.318.549.549,0,0,1-.318.708l-107.624,40.868A.535.535,0,0,1-2918.451,3185.943Z" fill="#ff6ec5"/>
    </g>
    <g id="Group_8399" data-name="Group 8399">
      <path id="Path_4929" data-name="Path 4929" d="M-2941.116,3120.1l45.331,1.66-37.927,18Z" fill="#fff"/>
      <path id="Path_4930" data-name="Path 4930" d="M-2933.712,3140.761a1.014,1.014,0,0,1-.375-.073,1,1,0,0,1-.561-.575l-7.4-19.66a1,1,0,0,1,.124-.937,1.014,1.014,0,0,1,.848-.415l45.331,1.66a1,1,0,0,1,.943.8,1,1,0,0,1-.55,1.1l-37.928,18A.985.985,0,0,1-2933.712,3140.761Zm-5.938-19.607,6.49,17.238,33.252-15.782Z" fill="#ff6ec5"/>
    </g>
    <g id="Group_8400" data-name="Group 8400">
      <path id="Path_4931" data-name="Path 4931" d="M-2701.558,3137.606l-12.708-13.683-10.358-32.385,12.708,13.683Z" fill="#fff"/>
      <path id="Path_4932" data-name="Path 4932" d="M-2701.557,3138.6a1,1,0,0,1-.734-.319L-2715,3124.6a1.022,1.022,0,0,1-.219-.376l-10.358-32.386a1,1,0,0,1,.448-1.168,1,1,0,0,1,1.237.183l12.709,13.683a1,1,0,0,1,.22.376l10.358,32.385a1,1,0,0,1-.448,1.168A.994.994,0,0,1-2701.557,3138.6Zm-11.825-15.2,9.506,10.234-8.924-27.9-9.507-10.234Z" fill="#ff6ec5"/>
    </g>
    <g id="Group_8401" data-name="Group 8401">
      <path id="Path_4933" data-name="Path 4933" d="M-2797.9,3223.03l-6.039,20.365-32.51-.844Z" fill="#fff"/>
      <path id="Path_4934" data-name="Path 4934" d="M-2803.942,3244.4h-.026l-32.51-.844a1,1,0,0,1-.949-.779,1,1,0,0,1,.524-1.112l38.548-19.521a1,1,0,0,1,1.092.124,1,1,0,0,1,.318,1.052l-6.039,20.365A1,1,0,0,1-2803.942,3244.4Zm-28.525-2.741,27.784.721,5.161-17.405Z" fill="#ff6ec5"/>
    </g>
    <g id="Group_8402" data-name="Group 8402">
      <circle id="Ellipse_1132" data-name="Ellipse 1132" cx="4.914" cy="4.914" r="4.914" transform="translate(-2800.853 3086.009)" fill="#ff6ec5"/>
    </g>
    <g id="Group_8403" data-name="Group 8403">
      <circle id="Ellipse_1133" data-name="Ellipse 1133" cx="4.914" cy="4.914" r="4.914" transform="translate(-2921.865 3085.838)" fill="#ff6ec5"/>
    </g>
    <g id="Group_8404" data-name="Group 8404">
      <path id="Path_4935" data-name="Path 4935" d="M-2708.249,3250.208a.538.538,0,0,1-.124-.015.549.549,0,0,1-.411-.658l7.411-32.116a.55.55,0,0,1,.658-.411.549.549,0,0,1,.411.658l-7.411,32.116A.549.549,0,0,1-2708.249,3250.208Z" fill="#396fef"/>
    </g>
    <g id="Group_8405" data-name="Group 8405">
      <path id="Path_4936" data-name="Path 4936" d="M-2789.227,3253.776a.547.547,0,0,1-.49-.3.55.55,0,0,1,.243-.737l39.526-19.868a.552.552,0,0,1,.737.244.551.551,0,0,1-.244.737l-39.525,19.868A.562.562,0,0,1-2789.227,3253.776Z" fill="#396fef"/>
    </g>
  </g>
</svg>
