<?xml version="1.0" encoding="utf-8"?>
<!-- Generator: Adobe Illustrator 23.0.5, SVG Export Plug-In . SVG Version: 6.00 Build 0)  -->
<svg version="1.1" id="Слой_1" xmlns="http://www.w3.org/2000/svg" xmlns:xlink="http://www.w3.org/1999/xlink" x="0px" y="0px"
	 viewBox="0 0 795 800" style="enable-background:new 0 0 795 800;" xml:space="preserve">
<style type="text/css">
	.st0{fill:none;stroke:#C9DAF7;}
	.st1{clip-path:url(#SVGID_2_);}
	.st2{fill:#FFFFFF;}
	.st3{opacity:0.3;fill:url(#Path_127_1_);enable-background:new    ;}
	.st4{opacity:0.3;fill:url(#Path_128_1_);enable-background:new    ;}
	.st5{opacity:0.3;fill:url(#Path_129_1_);enable-background:new    ;}
	.st6{fill:none;stroke:#396FEF;stroke-width:2;stroke-miterlimit:10;}
	.st7{fill:none;stroke:#396FEF;stroke-miterlimit:10;}
	.st8{fill:#E6EDFD;stroke:#396FEF;stroke-miterlimit:10;}
	.st9{fill:#396FEF;}
</style>
<g id="Group_10240" transform="translate(-645 0)">
	<path class="st0" d="M1120,414.3c0,95.7,0,190.7,0,286.5"/>
	<path class="st0" d="M1120,0c0,58,0,116,0,173.8"/>
	<g>
		<defs>
			<rect id="SVGID_1_" x="645" y="72" width="795" height="727"/>
		</defs>
		<clipPath id="SVGID_2_">
			<use xlink:href="#SVGID_1_"  style="overflow:visible;"/>
		</clipPath>
		<g id="Mask_Group_7" class="st1">
			<g id="Group_180">
				<path id="Path_251" class="st2" d="M1136,841.5l-56-62.5l-23.5-34l-53.5-80l41-20.5l30,17l15,12.5l29.5,25l17.5,16.5l26.5,29.5
					l-2.5,39.5l-3,33L1136,841.5z"/>
				<g id="Group_179" transform="matrix(0.996, -0.087, 0.087, 0.996, -2085.819, 303.765)">
					
						<linearGradient id="Path_127_1_" gradientUnits="userSpaceOnUse" x1="2769.4644" y1="735.6458" x2="2770.3765" y2="735.5788" gradientTransform="matrix(92.5001 17.8103 8.0798 -203.8976 -258665.8125 101124.25)">
						<stop  offset="0" style="stop-color:#396FEF;stop-opacity:0.2"/>
						<stop  offset="4.000000e-02" style="stop-color:#5B88F1;stop-opacity:0.341"/>
						<stop  offset="8.600000e-02" style="stop-color:#7DA0F4;stop-opacity:0.478"/>
						<stop  offset="0.138" style="stop-color:#9CB7F7;stop-opacity:0.604"/>
						<stop  offset="0.194" style="stop-color:#B7CBF9;stop-opacity:0.71"/>
						<stop  offset="0.255" style="stop-color:#CDDBFB;stop-opacity:0.8"/>
						<stop  offset="0.324" style="stop-color:#E0E8FC;stop-opacity:0.875"/>
						<stop  offset="0.405" style="stop-color:#EEF2FD;stop-opacity:0.933"/>
						<stop  offset="0.504" style="stop-color:#F7F9FE;stop-opacity:0.973"/>
						<stop  offset="0.64" style="stop-color:#FDFDFE;stop-opacity:0.992"/>
						<stop  offset="1" style="stop-color:#FFFFFF"/>
					</linearGradient>
					<path id="Path_127" class="st3" d="M3454.2,524.5c-2.2,1.9-4.5,3.5-7,4.9c-2.5,1.1-5,2.1-7.6,3c-12.7,4.9-23.5,15.7-37.1,16
						c0.7-10.2,9.1-18,14.2-26.9c2.5-4.4,4.3-9.2,7.5-13.2c2.4-3,5.4-5.3,8.2-7.8c5.9-5,11.3-10.6,16.3-16.6
						c2.4-2.9,4.7-6.1,5.7-9.8c0.8-3.2,0.5-6.6,0.2-9.9l-2-20.7c-0.3-2.1-0.3-4.3,0.1-6.5c0.6-2,1.5-3.9,2.7-5.7
						c6-10.3,10-21.6,11.8-33.3c0.2-1,0.2-2-0.1-3c-0.7-1.1-1.7-1.9-2.9-2.4l-8.1-4.1c-8.2-4.1-16.6-8.4-23-14.9
						c-5.3-5.4-9.1-12.1-12.8-18.7l-6-10.7c4.3-1.6,9.1-0.3,13.2,1.6s8,4.5,12.5,5.6c4.8,1.2,9.8,0.6,14.7,1.1
						c13.9,1.5,25.1,11.8,35.2,21.6c2.2,2.1,4.4,4.4,5.2,7.3c0.6,2.3,0.2,4.7-0.2,7.1c-3.7,21.3-6.5,43.2-3.2,64.5
						c0.6,2.7,0.8,5.4,0.7,8.1c-0.3,3.3-1.6,6.3-2.5,9.5c-2.6,9.5-0.7,21.4-6.9,29.7C3476.1,509.8,3463.2,517.2,3454.2,524.5z"/>
					
						<linearGradient id="Path_128_1_" gradientUnits="userSpaceOnUse" x1="2769.6511" y1="735.6823" x2="2770.6511" y2="735.6823" gradientTransform="matrix(375.4232 23.2488 32.793 -266.1581 -1061120.875 132031.8438)">
						<stop  offset="0" style="stop-color:#396FEF;stop-opacity:0.2"/>
						<stop  offset="4.000000e-02" style="stop-color:#5B88F1;stop-opacity:0.341"/>
						<stop  offset="8.600000e-02" style="stop-color:#7DA0F4;stop-opacity:0.478"/>
						<stop  offset="0.138" style="stop-color:#9CB7F7;stop-opacity:0.604"/>
						<stop  offset="0.194" style="stop-color:#B7CBF9;stop-opacity:0.71"/>
						<stop  offset="0.255" style="stop-color:#CDDBFB;stop-opacity:0.8"/>
						<stop  offset="0.324" style="stop-color:#E0E8FC;stop-opacity:0.875"/>
						<stop  offset="0.405" style="stop-color:#EEF2FD;stop-opacity:0.933"/>
						<stop  offset="0.504" style="stop-color:#F7F9FE;stop-opacity:0.973"/>
						<stop  offset="0.64" style="stop-color:#FDFDFE;stop-opacity:0.992"/>
						<stop  offset="1" style="stop-color:#FFFFFF"/>
					</linearGradient>
					<path id="Path_128" class="st4" d="M2797.2,523.5l-1.6-22.2l19.7-12.1l4.8,3.1l8.7,4.5l14.3,8.6l15.8-13l9.3,3.9l12,6.3
						l15.9,6.1l42-18.7l39.8-8.5l24.1,9.4l14,16.6l7.3,15.4l15.1,11.3l56.3,47l25.9,22.7l-5.9,25.4l16.1,16.6l26.2,26.7l15.6,18.5
						l-19.2,26.7l-6.2,23.5l-35.1,7.5l-19.4-35l-48.6-83.8l-22.8-43.4l-14.8-28.2l-33.4-2.7l-29.8-0.1l-40,14.6l-17.9-14.6
						l-35.3-1.1l-16.3-0.6l-15-12.7l-11.8-10L2797.2,523.5z"/>
					
						<linearGradient id="Path_129_1_" gradientUnits="userSpaceOnUse" x1="2769.3049" y1="735.6545" x2="2770.3049" y2="735.6545" gradientTransform="matrix(154.3229 22.0129 13.48 -252.0098 -434085.0313 124703.5391)">
						<stop  offset="0" style="stop-color:#396FEF;stop-opacity:0.2"/>
						<stop  offset="4.000000e-02" style="stop-color:#5B88F1;stop-opacity:0.341"/>
						<stop  offset="8.600000e-02" style="stop-color:#7DA0F4;stop-opacity:0.478"/>
						<stop  offset="0.138" style="stop-color:#9CB7F7;stop-opacity:0.604"/>
						<stop  offset="0.194" style="stop-color:#B7CBF9;stop-opacity:0.71"/>
						<stop  offset="0.255" style="stop-color:#CDDBFB;stop-opacity:0.8"/>
						<stop  offset="0.324" style="stop-color:#E0E8FC;stop-opacity:0.875"/>
						<stop  offset="0.405" style="stop-color:#EEF2FD;stop-opacity:0.933"/>
						<stop  offset="0.504" style="stop-color:#F7F9FE;stop-opacity:0.973"/>
						<stop  offset="0.64" style="stop-color:#FDFDFE;stop-opacity:0.992"/>
						<stop  offset="1" style="stop-color:#FFFFFF"/>
					</linearGradient>
					<path id="Path_129" class="st5" d="M3225.1,382.9c1.9,5.3,3.8,15.5,10.8,15.4c6-0.1,8.3-7,12.8-9.9l22.9-14.5l21.5-17.6
						l1.2-51.8l30.9-11.1l16.1-33.3l12.3-21l-14.8-38.3l-8.6-29.6l-50.6-25.9h-30.4c-7.4,0-14.7,0-22.1,0c-5.3,0-6.2-0.4-7.5,5.2
						c-1.3,5.8-2.1,11.6-2.2,17.5c-0.2,1.8,0.1,3.5,0.7,5.2c0.8,1.5,2,2.7,3.3,3.7c9,7.3,19,13.3,29.6,18l-6.4,2.2
						c0.4,13.1,2.6,26.2,6.7,38.7c0.6,1.3,0.8,2.8,0.6,4.2c-0.3,1.2-0.9,2.3-1.8,3.2l-6.6,8.8c-1.1,1.2-1.9,2.7-2.2,4.3
						c-0.1,1.6,0.2,3.1,0.9,4.5c5.1,12.3,15.1,21.9,22.3,33.1c1.2,1.2,1.3,3.2,0.1,4.4c-0.2,0.2-0.5,0.4-0.7,0.6
						c-8.1,7-17.3,12.6-27.3,16.5c-4.2,1.6-8.6,3-12.7,5c-8.8,4.5-15.9,12.1-25.1,15.7C3205.1,352.9,3218.9,366.1,3225.1,382.9z"/>
					<g id="Group_178" transform="translate(2772.017 134.089)">
						<g id="Group_177">
							<path id="Path_130" class="st6" d="M442.1,11.3h65.4l50.6,25.9l8.6,29.6l14.8,38.3l-12.3,21l-16,33.3l-30.9,11.1l-1.2,51.8
								l-21.5,17.6l-22.9,14.5l-11.1,11.1l-30.9,18l-51.8-69l-28.4-84.8V80.4l38.3-45.7L442.1,11.3z"/>
							<path id="Path_131" class="st7" d="M507.5,11.3l21,33.9l38.3,21.6l-14.8,12.3l-23.5-33.9l-37-19.1L507.5,11.3z"/>
							<path id="Path_132" class="st8" d="M448,11.3l41,14.2l-41,13V11.3z"/>
							<path id="Path_133" class="st8" d="M423,69.6l25-31.2L472,56L423,69.6z"/>
							<path id="Path_134" class="st7" d="M423,69.6l49.1,50.9l-42.9-16.4l-41.4,43.2l-27.2,0.8"/>
							<path id="Path_135" class="st7" d="M429.1,104.1L423.9,69l-69.4,11.4L429.1,104.1z"/>
							<path id="Path_136" class="st8" d="M491.5,26.1L522,65.6l-7.7,21L472,56L491.5,26.1z"/>
							<path id="Path_137" class="st7" d="M480.1,107.5L472,56l42.3,30.5L480.1,107.5z"/>
							<line id="Line_10" class="st7" x1="551.9" y1="79.1" x2="522" y2="65.6"/>
							<path id="Path_138" class="st7" d="M516.5,86.5l26.8,7.4l8.6-12.2l14.8,49.4L537,108.9L516.5,86.5z"/>
							<path id="Path_139" class="st7" d="M472,120.5l8-13v34.3L472,120.5z"/>
							<path id="Path_140" class="st7" d="M497,164l24.5,39.8l-32.5-13L497,164z"/>
							<path id="Path_141" class="st8" d="M452,186.8l37,4l8-26.8L452,186.8z"/>
							<path id="Path_142" class="st7" d="M427,203.8l25-17l-19.7,28.1L427,203.8z"/>
							<path id="Path_143" class="st7" d="M486.5,192.7l-27.8,28.7l16.9,34.4l14.9-29.2l-1.5-35.8L486.5,192.7z"/>
							<path id="Path_144" class="st8" d="M464.6,265.4l-32.3-50.5l26.5,6.5l15.7,32.4"/>
							<path id="Path_145" class="st7" d="M449.5,186.8l51.3,52.3l18.4,15.2l21.6,29.1l12.5-10.5"/>
							<path id="Path_146" class="st7" d="M521.7,223.3l-31.1-32.4l16,87l-30-20"/>
							<path id="Path_147" class="st7" d="M514.3,102.6l0.1,1.5l2,25.3L493.2,118L514.3,102.6z"/>
							<path id="Path_148" class="st7" d="M494.9,145.2l19.4-15.7L493.2,118L494.9,145.2z"/>
							<path id="Path_149" class="st8" d="M524.5,156.6l-29.6-11.4l21.6-15.7L524.5,156.6z"/>
							<path id="Path_150" class="st7" d="M545.2,138.7l-20.7,17.9l-5.3-17.9"/>
							<path id="Path_151" class="st7" d="M536.2,108l9,30.7l-29.6-9.3L536.2,108z"/>
							<path id="Path_152" class="st8" d="M514.3,102.6l21.4,4.9l-19.3,21.9L514.3,102.6z"/>
							<line id="Line_11" class="st6" x1="566.8" y1="131.2" x2="543.3" y2="94"/>
							<path id="Path_153" class="st6" d="M480.1,141.8l14.8,21l26.7,9.6"/>
							<path id="Path_154" class="st7" d="M478.9,138.7"/>
							<line id="Line_12" class="st7" x1="581.4" y1="105.5" x2="627.5" y2="116.8"/>
							<line id="Line_13" class="st7" x1="639" y1="64.7" x2="575.1" y2="87.6"/>
							<line id="Line_14" class="st7" x1="579.8" y1="63.7" x2="568.4" y2="67.4"/>
							<line id="Line_15" class="st7" x1="472" y1="121.5" x2="390.3" y2="147.4"/>
							<path id="Path_155" class="st7" d="M522.2,174.8l13.5,10.2l17.4-25.6l22.7,18.1l24.5,31.9l41-2.2l39.8,9.6l44.4,29"/>
							<path id="Path_156" class="st7" d="M535.7,185l23,27.6l-5.4-51.4L535.7,185"/>
							<path id="Path_157" class="st8" d="M560.6,212.6l25,15.3l-15.4,24.4L560.6,212.6z"/>
							<path id="Path_158" class="st7" d="M559.2,212.6l-13,19.8l17.4,26.4l6.6-6.6L559.2,212.6z"/>
							<path id="Path_159" class="st7" d="M535.7,185l10.4,47.4l-23.9-29.9"/>
							<path id="Path_160" class="st7" d="M563.6,258.8l-11.2,14.1L534.8,245l-19.2-16.8"/>
							<line id="Line_16" class="st7" x1="516.5" y1="228.2" x2="521.1" y2="252.2"/>
							<line id="Line_17" class="st7" x1="519.2" y1="254.4" x2="551.9" y2="270.6"/>
							<path id="Path_161" class="st8" d="M538.5,283.9l-33.2-7.9l33.7,47.5L538.5,283.9z"/>
							<line id="Line_18" class="st7" x1="437.5" y1="283.5" x2="503.7" y2="277.9"/>
							<path id="Path_162" class="st7" d="M725.7,245.8l-44.1-28.7l-40.1-8.4h-40.7l-24.4-29.9l-23.6-19.4l-38.5-17.6L458.8,179
								v42.4l16.9,34.4l29.6,22l13.5,34.9"/>
							<path id="Path_163" class="st7" d="M475.4,255.2l-27-17l-1.7-0.6l-62.2-21.1"/>
							<path id="Path_164" class="st7" d="M434.4,277.9"/>
							<line id="Line_19" class="st7" x1="434.7" y1="283.5" x2="447.5" y2="240.2"/>
							<line id="Line_20" class="st7" x1="384.4" y1="212.6" x2="406.3" y2="145.4"/>
							<path id="Path_165" class="st7" d="M602.2,210.9l14.8,21.7L601,238l-14.2-5.7"/>
							<path id="Path_166" class="st7" d="M573.8,247.4l26.3-10.3l17-4.6l39.2,2.6l43.8,25.7l17.9,27.5"/>
							<path id="Path_167" class="st7" d="M655.9,232.4"/>
							<path id="Path_168" class="st7" d="M698.5,243.3l-40.1-8.1l-17-28L618.6,231"/>
							<path id="Path_169" class="st7" d="M617.1,232.6l4,36.3l34.9-32.2v36.2l42.6-12l-16.3,41.7l34.3,41.8l-3.4,20.5l-29.7-20.5
								l-29.6,29.1l-13.9-20.1l1.5-17l4.1-16.7l-10.6-10.2l-19.7,7.4l5.9,19.4L601.2,373l-25.8-35.5l31.2-33.1l-23.5-14.4l-10-9.2
								l-32.2,2.8"/>
							<path id="Path_170" class="st8" d="M548.7,367.3l26.7-29.8L539,323.5l-0.5,11.8L548.7,367.3z"/>
							<path id="Path_171" class="st7" d="M653.8,373.5h-52.5l38.6-20.1L653.8,373.5z"/>
							<path id="Path_172" class="st7" d="M641.4,336.5h-20.4l-45.7,0.9l7.7-47.5l38-21l36.1,3.6l25,30.6l0.1,41.3l-37.2-22.8"/>
							<path id="Path_173" class="st7" d="M713.1,365l-37.4,31.8L630,413.1l-45.5-5l-36.3-41"/>
							<path id="Path_174" class="st7" d="M653.8,373.5l0.9,1.1l19.8,23"/>
							<path id="Path_175" class="st8" d="M635,309.6l22.8-36.7l-1.8,26.8l26.2,3.4l-36.8,17.3L635,309.6z"/>
							<path id="Path_176" class="st7" d="M615.2,315.9l-7.7-9.7l13.6-38.4l13.9,40.7"/>
							<path id="Path_177" class="st8" d="M641.9,334.4l40.2,11.4l-42.3,7.7L641.9,334.4z"/>
							<path id="Path_178" class="st7" d="M569.5,252.2l3.6,28.4l48-11.8L569.5,252.2z"/>
							<line id="Line_21" class="st7" x1="539" y1="322" x2="573.1" y2="280.7"/>
							<path id="Path_179" class="st7" d="M714.6,366.4"/>
							<path id="Path_180" class="st8" d="M505,431.8l22-42.9l45.7,26.2L505,431.8z"/>
							<path id="Path_181" class="st8" d="M492.7,491.9l10.9-62.5l31.1,16.2L492.7,491.9z"/>
							<path id="Path_182" class="st7" d="M527.2,508.4l-48.1,26.4l13.5-42.9l34.4,17.6l25-24.7l-17.5-39.1l38.9-30.9l6.9,21.4
								l-28.4,48.7l44.5-58.2l-12.6-18.3l-3.6,27.8"/>
							<path id="Path_183" class="st7" d="M654.7,374.6L636,396.2l-34.7-22.7l-53.4-5.6"/>
							<path id="Path_184" class="st7" d="M629.8,412.9l-32.9,13.6l7.4,95.7l34.6-62.5l-38.3,33.1L556.5,514l-4.3-29.1l-28.9,62.9
								l-27,53.7L470,583l-18.3,1.1l27.5-49.2l-3.6,20.9l50.9-46.7c0,0,0-0.1,0-0.1c0,0-0.1,0-0.1,0l-47.3,25.7l1.4-34.2l24.4-73.4
								l8.4-25.1l36.6-33.7"/>
							<path id="Path_185" class="st7" d="M604.3,522.2l-53.3,46.8l-31.5,31.6l-6.1,30.3l67.3-60.5L604.3,522.2z"/>
							<line id="Line_22" class="st7" x1="675.4" y1="396.9" x2="683.4" y2="344.4"/>
							<path id="Path_186" class="st7" d="M659.4,449.4l-20.5,10.3l-27.7-20.8l-11.7-12.4"/>
							<path id="Path_187" class="st7" d="M556.5,514l-7.6,57.1l30.7,0.5l26.5-32.5"/>
							<line id="Line_23" class="st7" x1="627.6" y1="579" x2="640" y2="459.7"/>
							<path id="Path_188" class="st7" d="M703.2,478.5"/>
							<path id="Path_189" class="st7" d="M648.5,504.7l10-55.8l-28.7-37.5l-20.2,27.6"/>
							<path id="Path_190" class="st7" d="M733.4,495.7l-74.8-46.9l-16.2-39.5l-4-10.8l-8.5,12.8"/>
							<line id="Line_24" class="st7" x1="674.4" y1="477.2" x2="658.1" y2="451.1"/>
							<path id="Path_191" class="st8" d="M470,583c-0.7-1.6,6.8-29.7,6.8-29.7l49.1-8l-54.5,36.4"/>
							<path id="Path_192" class="st7" d="M449.6,645.7"/>
							<path id="Path_193" class="st7" d="M462.8,711.8l-47.4-4.1l-23.9-24.1l-4.5-31l-1.4-22.9l39-43l-5.8,41.5l-4.8,31.3l24,25.1
								l29.4-2.3l18.7-26.4l-12.8-30.6l-33.2-11"/>
							<path id="Path_194" class="st7" d="M496.3,601.4l16.6,28l1.6,30l-9.3,27.2"/>
							<path id="Path_195" class="st7" d="M451.5,584.5l-10.1,30l-15.7-28.6l44.2-3"/>
							<path id="Path_196" class="st7" d="M474.3,626.6L454,644.6v13.7l-17.3,26.4l6.7-67l10.6,28v12.5l13.5,24l-6.5,30.6"/>
							<path id="Path_197" class="st7" d="M335,528.1"/>
							<path id="Path_198" class="st7" d="M415.4,661.6"/>
							<path id="Path_199" class="st7" d="M494.3,602.5L444,615.2l-25.1,13.3l22.6,13.8l12.6,3.4l32.2,10.1l-70.8,5.8"/>
							<path id="Path_200" class="st7" d="M514.8,632.6l29.6,15.4l-29,11.7"/>
							<line id="Line_25" class="st7" x1="584.2" y1="591.4" x2="542.5" y2="647"/>
							<path id="Path_201" class="st7" d="M322.8,447.1l-71.6-58.4l0.3,15.5L234.8,424l-34.1-3.3l-29.7,0.5l-38.9,15.6l0.1-37.6
								l18.5-12.4l33.7-24.8l31.4-4.4l14-1l14,16.6l79.6,25.6"/>
							<path id="Path_202" class="st7" d="M340.1,496.2l-63.8-1.2l38.8-16.9"/>
							<path id="Path_203" class="st7" d="M249.2,453.6l23.8,42.7l-7.3-44.5l-8-35.4"/>
							<path id="Path_204" class="st7" d="M384.9,538.3l-18,13.9l-9.1-42.2l-23.1,26.1l-13.4,44"/>
							<path id="Path_205" class="st7" d="M400.1,556.8l-19.3,26.1l-13.9-30.7l-33.2-11.9l10,26.9l18.6,29.2l-41-16.3l-5.5-92.1
								l-0.4-7.3l-0.2-2.6l28.3,16.9l41.5,42.5l0,0l41.6,51.3"/>
							<line id="Line_26" class="st7" x1="243.9" y1="373.3" x2="251.2" y2="388.7"/>
							<path id="Path_206" class="st7" d="M43.3,355.1l50.8,29.2l18.2,6.6l20,8.3"/>
							<path id="Path_207" class="st7" d="M86.4,357.7l64.4,29.1l15.8-31.9l17.9,7.2"/>
							<path id="Path_208" class="st7" d="M229.9,356.7L204,347l-37.4,7.9l-39.2,16.7l-15.1,19.3l2.4,32.1L81,396.1l-19.4-6
								l-22.9-19.4l-31.1-7.2"/>
							<path id="Path_209" class="st7" d="M252,403.8l-51.2,16.9l-49.9-33.9l-18.6,50L114.7,423l-54-4.8"/>
							<path id="Path_210" class="st7" d="M127.4,371.6"/>
							<path id="Path_211" class="st7" d="M134.6,295.6"/>
							<circle id="Ellipse_46" class="st9" cx="636" cy="64.7" r="8.2"/>
							<circle id="Ellipse_47" class="st9" cx="713" cy="365.6" r="8.2"/>
							<circle id="Ellipse_48" class="st9" cx="705.9" cy="157.8" r="8.2"/>
							<circle id="Ellipse_49" class="st9" cx="581.6" cy="63.7" r="5.4"/>
							<circle id="Ellipse_50" class="st9" cx="600.8" cy="208.7" r="5.4"/>
							<circle id="Ellipse_51" class="st9" cx="552.8" cy="159.4" r="5.4"/>
							<circle id="Ellipse_52" class="st9" cx="641.4" cy="208.7" r="5.4"/>
							<circle id="Ellipse_53" class="st9" cx="538.4" cy="285" r="5.4"/>
							<circle id="Ellipse_54" class="st9" cx="570.5" cy="250.6" r="5.4"/>
							<circle id="Ellipse_55" class="st9" cx="617.1" cy="232.4" r="5.4"/>
							<circle id="Ellipse_56" class="st9" cx="657.3" cy="235.9" r="5.4"/>
							<circle id="Ellipse_57" class="st9" cx="698.5" cy="260.5" r="5.4"/>
							<circle id="Ellipse_58" class="st9" cx="353.1" cy="79.1" r="5.4"/>
							<circle id="Ellipse_59" class="st9" cx="360.6" cy="149.2" r="5.4"/>
							<circle id="Ellipse_60" class="st9" cx="514.4" cy="84.4" r="5.4"/>
							<circle id="Ellipse_61" class="st9" cx="535.6" cy="183.9" r="5.4"/>
							<circle id="Ellipse_62" class="st9" cx="559.8" cy="214.1" r="5.4"/>
							<circle id="Ellipse_63" class="st9" cx="390.3" cy="35.8" r="5.4"/>
							<circle id="Ellipse_64" class="st9" cx="447.5" cy="11" r="5.4"/>
							<circle id="Ellipse_65" class="st9" cx="507.4" cy="11.3" r="5.4"/>
							<circle id="Ellipse_66" class="st9" cx="557.5" cy="35.8" r="5.4"/>
							<circle id="Ellipse_67" class="st9" cx="601.3" cy="148.2" r="5.4"/>
							<circle id="Ellipse_68" class="st9" cx="516.5" cy="310.6" r="5.4"/>
							<circle id="Ellipse_69" class="st9" cx="250.8" cy="387.2" r="5.4"/>
							<circle id="Ellipse_70" class="st9" cx="50.2" cy="335.5" r="5.4"/>
							<circle id="Ellipse_71" class="st9" cx="5.4" cy="363.7" r="5.4"/>
							<circle id="Ellipse_72" class="st9" cx="478.9" cy="141.8" r="4"/>
							<circle id="Ellipse_73" class="st9" cx="471.1" cy="119.9" r="4"/>
							<circle id="Ellipse_74" class="st9" cx="388.7" cy="146.5" r="4"/>
							<circle id="Ellipse_75" class="st9" cx="494.6" cy="145" r="3.3"/>
							<circle id="Ellipse_76" class="st9" cx="431.4" cy="214.9" r="3.1"/>
							<circle id="Ellipse_77" class="st9" cx="524.5" cy="156" r="3.3"/>
							<circle id="Ellipse_78" class="st9" cx="500.2" cy="240.2" r="3.3"/>
							<circle id="Ellipse_79" class="st9" cx="545.2" cy="137.8" r="3.3"/>
							<circle id="Ellipse_80" class="st9" cx="515.9" cy="129.4" r="3.3"/>
							<circle id="Ellipse_81" class="st9" cx="514.3" cy="102.5" r="3.3"/>
							<circle id="Ellipse_82" class="st9" cx="424.6" cy="68.4" r="3.3"/>
							<circle id="Ellipse_83" class="st9" cx="424.6" cy="68.4" r="3.3"/>
							<circle id="Ellipse_84" class="st9" cx="447.5" cy="38.9" r="3.3"/>
							<circle id="Ellipse_85" class="st9" cx="491.5" cy="26.1" r="3.3"/>
							<circle id="Ellipse_86" class="st9" cx="522.2" cy="66.4" r="3.3"/>
							<circle id="Ellipse_87" class="st9" cx="529.1" cy="46.4" r="3.3"/>
							<circle id="Ellipse_88" class="st9" cx="553.3" cy="79.1" r="3.3"/>
							<circle id="Ellipse_89" class="st9" cx="543.3" cy="94" r="3.3"/>
							<circle id="Ellipse_90" class="st9" cx="567.7" cy="131.6" r="3.3"/>
							<circle id="Ellipse_91" class="st9" cx="576.4" cy="178.8" r="3.3"/>
							<circle id="Ellipse_92" class="st9" cx="681.5" cy="217.1" r="3.3"/>
							<circle id="Ellipse_93" class="st9" cx="765.9" cy="242.4" r="3.3"/>
							<circle id="Ellipse_94" class="st9" cx="546.2" cy="230.6" r="3.3"/>
							<circle id="Ellipse_95" class="st9" cx="535.9" cy="247.1" r="3.3"/>
							<circle id="Ellipse_96" class="st9" cx="549.1" cy="367.7" r="3.3"/>
							<circle id="Ellipse_97" class="st9" cx="584.5" cy="408.4" r="3.3"/>
							<circle id="Ellipse_98" class="st9" cx="629.9" cy="413.2" r="3.9"/>
							<circle id="Ellipse_99" class="st9" cx="552.7" cy="272.3" r="3.3"/>
							<circle id="Ellipse_100" class="st9" cx="582.4" cy="104.9" r="3.3"/>
							<circle id="Ellipse_101" class="st9" cx="575.1" cy="86.3" r="3.3"/>
							<circle id="Ellipse_102" class="st9" cx="427" cy="104.1" r="3.3"/>
							<circle id="Ellipse_103" class="st9" cx="471.1" cy="56" r="3.3"/>
							<circle id="Ellipse_104" class="st9" cx="493.2" cy="118" r="3.3"/>
							<circle id="Ellipse_105" class="st9" cx="536.2" cy="107.5" r="3.3"/>
							<circle id="Ellipse_106" class="st9" cx="458.8" cy="220.6" r="4"/>
							<circle id="Ellipse_107" class="st9" cx="447.5" cy="239.2" r="4"/>
							<circle id="Ellipse_108" class="st9" cx="521.1" cy="255.8" r="4"/>
							<circle id="Ellipse_109" class="st9" cx="607" cy="306" r="4"/>
							<circle id="Ellipse_110" class="st9" cx="495.2" cy="164.6" r="4"/>
							<circle id="Ellipse_111" class="st9" cx="521.1" cy="223.1" r="2.9"/>
							<circle id="Ellipse_112" class="st9" cx="514.8" cy="227.7" r="2.9"/>
							<circle id="Ellipse_113" class="st9" cx="681.6" cy="302" r="4"/>
							<circle id="Ellipse_114" class="st9" cx="657.3" cy="272.9" r="4"/>
							<circle id="Ellipse_115" class="st9" cx="521.5" cy="202.6" r="4"/>
							<circle id="Ellipse_116" class="st9" cx="490.5" cy="226.1" r="4"/>
							<circle id="Ellipse_117" class="st9" cx="472" cy="207.2" r="4"/>
							<circle id="Ellipse_118" class="st9" cx="475.4" cy="254.4" r="4"/>
							<circle id="Ellipse_119" class="st9" cx="462.8" cy="265.4" r="4"/>
							<circle id="Ellipse_120" class="st9" cx="635" cy="307.3" r="4"/>
							<circle id="Ellipse_121" class="st9" cx="621.1" cy="268.9" r="4"/>
							<circle id="Ellipse_122" class="st9" cx="657.3" cy="299.6" r="4"/>
							<circle id="Ellipse_123" class="st9" cx="584.5" cy="228.7" r="4"/>
							<circle id="Ellipse_124" class="st9" cx="616.6" cy="318.1" r="4"/>
							<circle id="Ellipse_125" class="st9" cx="621.9" cy="336.2" r="4"/>
							<circle id="Ellipse_126" class="st9" cx="574.1" cy="338.4" r="4"/>
							<circle id="Ellipse_127" class="st9" cx="538.4" cy="333.7" r="4"/>
							<circle id="Ellipse_128" class="st9" cx="513" cy="402.9" r="4"/>
							<circle id="Ellipse_129" class="st9" cx="572.4" cy="415.4" r="4"/>
							<circle id="Ellipse_130" class="st9" cx="534.7" cy="445.7" r="4"/>
							<circle id="Ellipse_131" class="st9" cx="492.7" cy="491.9" r="4"/>
							<circle id="Ellipse_132" class="st9" cx="479" cy="534.3" r="4"/>
							<circle id="Ellipse_133" class="st9" cx="526.5" cy="509.4" r="4"/>
							<circle id="Ellipse_134" class="st9" cx="552.3" cy="484" r="4"/>
							<circle id="Ellipse_135" class="st9" cx="480.6" cy="500.3" r="4"/>
							<circle id="Ellipse_136" class="st9" cx="602.2" cy="490.9" r="4"/>
							<circle id="Ellipse_137" class="st9" cx="639.9" cy="459.6" r="4"/>
							<circle id="Ellipse_138" class="st9" cx="658.4" cy="449.3" r="4"/>
							<circle id="Ellipse_139" class="st9" cx="603.5" cy="522.6" r="4"/>
							<circle id="Ellipse_140" class="st9" cx="451.2" cy="583.8" r="4"/>
							<circle id="Ellipse_141" class="st9" cx="494.6" cy="601" r="4"/>
							<circle id="Ellipse_142" class="st9" cx="524.9" cy="546.1" r="4"/>
							<circle id="Ellipse_143" class="st9" cx="469.6" cy="582.7" r="4"/>
							<circle id="Ellipse_144" class="st9" cx="83.5" cy="377.6" r="2.3"/>
							<circle id="Ellipse_145" class="st9" cx="70.9" cy="370.8" r="2.3"/>
							<circle id="Ellipse_146" class="st9" cx="57.3" cy="362.8" r="2.3"/>
							<circle id="Ellipse_147" class="st9" cx="96.1" cy="361.7" r="2.3"/>
							<circle id="Ellipse_148" class="st9" cx="108.6" cy="367.4" r="2.3"/>
							<circle id="Ellipse_149" class="st9" cx="86.9" cy="358.2" r="2.3"/>
							<circle id="Ellipse_150" class="st9" cx="48.1" cy="358.2" r="2.3"/>
							<circle id="Ellipse_151" class="st9" cx="42.4" cy="354.8" r="2.3"/>
							<circle id="Ellipse_152" class="st9" cx="442.5" cy="616.2" r="4"/>
							<circle id="Ellipse_153" class="st9" cx="419" cy="628.7" r="4"/>
							<circle id="Ellipse_154" class="st9" cx="486.1" cy="655.8" r="4"/>
							<circle id="Ellipse_155" class="st9" cx="504.6" cy="687" r="4"/>
							<circle id="Ellipse_156" class="st9" cx="461" cy="712.9" r="4"/>
							<circle id="Ellipse_157" class="st9" cx="415.2" cy="708.3" r="4"/>
							<circle id="Ellipse_158" class="st9" cx="390" cy="681.1" r="4"/>
							<circle id="Ellipse_159" class="st9" cx="386.7" cy="653.5" r="4"/>
							<circle id="Ellipse_160" class="st9" cx="514.6" cy="660.3" r="4"/>
							<circle id="Ellipse_161" class="st9" cx="467.9" cy="681.7" r="4"/>
							<circle id="Ellipse_162" class="st9" cx="437.5" cy="684" r="4"/>
							<circle id="Ellipse_163" class="st9" cx="413.3" cy="660.5" r="4"/>
							<circle id="Ellipse_164" class="st9" cx="386" cy="628.7" r="4"/>
							<circle id="Ellipse_165" class="st9" cx="400.5" cy="556.8" r="4"/>
							<circle id="Ellipse_166" class="st9" cx="415.1" cy="596.1" r="4"/>
							<circle id="Ellipse_167" class="st9" cx="439.2" cy="659.9" r="4"/>
							<circle id="Ellipse_168" class="st9" cx="454.1" cy="658.4" r="3.3"/>
							<circle id="Ellipse_169" class="st9" cx="453.2" cy="645.4" r="3.3"/>
							<circle id="Ellipse_170" class="st9" cx="425.7" cy="586" r="3.3"/>
							<circle id="Ellipse_171" class="st9" cx="384.8" cy="538.4" r="3.3"/>
							<circle id="Ellipse_172" class="st9" cx="333.4" cy="540.2" r="3.3"/>
							<circle id="Ellipse_173" class="st9" cx="317.4" cy="528.7" r="3.3"/>
							<circle id="Ellipse_174" class="st9" cx="315.9" cy="496.7" r="3.3"/>
							<circle id="Ellipse_175" class="st9" cx="272.2" cy="496.1" r="3.3"/>
							<circle id="Ellipse_176" class="st9" cx="248.8" cy="452" r="3.3"/>
							<circle id="Ellipse_177" class="st9" cx="124.1" cy="374.5" r="3.3"/>
							<circle id="Ellipse_178" class="st9" cx="74.6" cy="394.5" r="3.3"/>
							<circle id="Ellipse_179" class="st9" cx="61" cy="390.1" r="3.3"/>
							<circle id="Ellipse_180" class="st9" cx="48.4" cy="380.1" r="3.3"/>
							<circle id="Ellipse_181" class="st9" cx="46.7" cy="406.7" r="3.3"/>
							<circle id="Ellipse_182" class="st9" cx="35" cy="396.6" r="3.3"/>
							<circle id="Ellipse_183" class="st9" cx="78" cy="420" r="3.3"/>
							<circle id="Ellipse_184" class="st9" cx="101" cy="387.1" r="3.3"/>
							<circle id="Ellipse_185" class="st9" cx="89.7" cy="402.4" r="3.3"/>
							<circle id="Ellipse_186" class="st9" cx="35.4" cy="371" r="3.3"/>
							<circle id="Ellipse_187" class="st9" cx="23.6" cy="367.3" r="3.3"/>
							<circle id="Ellipse_188" class="st9" cx="25.2" cy="389.4" r="3.3"/>
							<circle id="Ellipse_189" class="st9" cx="243.9" cy="373.3" r="3.3"/>
							<circle id="Ellipse_190" class="st9" cx="257.5" cy="415.9" r="3.3"/>
							<circle id="Ellipse_191" class="st9" cx="266.3" cy="400" r="3.3"/>
							<circle id="Ellipse_192" class="st9" cx="315.2" cy="478.1" r="3.3"/>
							<circle id="Ellipse_193" class="st9" cx="348.5" cy="469.7" r="3.3"/>
							<circle id="Ellipse_194" class="st9" cx="357.9" cy="510.1" r="3.3"/>
							<circle id="Ellipse_195" class="st9" cx="182.2" cy="362.7" r="3.3"/>
							<circle id="Ellipse_196" class="st9" cx="250.7" cy="403.7" r="3.3"/>
							<circle id="Ellipse_197" class="st9" cx="132.3" cy="399.1" r="3.3"/>
							<circle id="Ellipse_198" class="st9" cx="112.3" cy="390.5" r="3.3"/>
							<circle id="Ellipse_199" class="st9" cx="166" cy="355.8" r="3.3"/>
							<circle id="Ellipse_200" class="st9" cx="150.7" cy="387.4" r="3.3"/>
							<circle id="Ellipse_201" class="st9" cx="366.9" cy="550.9" r="3.3"/>
							<circle id="Ellipse_202" class="st9" cx="381.3" cy="583.5" r="3.3"/>
							<circle id="Ellipse_203" class="st9" cx="358.7" cy="593.4" r="3.3"/>
							<circle id="Ellipse_204" class="st9" cx="322.6" cy="447" r="3.3"/>
							<circle id="Ellipse_205" class="st9" cx="265.8" cy="451.5" r="3.3"/>
							<circle id="Ellipse_206" class="st9" cx="472.6" cy="625.2" r="4"/>
							<circle id="Ellipse_207" class="st9" cx="440.6" cy="641.4" r="4"/>
							<circle id="Ellipse_208" class="st9" cx="477" cy="553.6" r="4"/>
							<circle id="Ellipse_209" class="st9" cx="582.4" cy="291.3" r="4"/>
							<circle id="Ellipse_210" class="st9" cx="572.7" cy="280.2" r="4"/>
							<circle id="Ellipse_211" class="st9" cx="539" cy="322.4" r="4"/>
							<circle id="Ellipse_212" class="st9" cx="504.5" cy="431" r="4"/>
							<circle id="Ellipse_213" class="st9" cx="489.2" cy="190.8" r="4"/>
							<circle id="Ellipse_214" class="st9" cx="450.6" cy="186.8" r="4"/>
							<circle id="Ellipse_215" class="st9" cx="427" cy="203.8" r="4"/>
							<circle id="Ellipse_216" class="st9" cx="405.5" cy="146.5" r="4"/>
							<circle id="Ellipse_217" class="st9" cx="641.4" cy="336.2" r="4"/>
							<circle id="Ellipse_218" class="st9" cx="645.1" cy="320.5" r="4"/>
							<circle id="Ellipse_219" class="st9" cx="682.2" cy="344.5" r="4"/>
							<circle id="Ellipse_220" class="st9" cx="654" cy="372.8" r="4"/>
							<circle id="Ellipse_221" class="st9" cx="639" cy="354.3" r="4"/>
							<circle id="Ellipse_222" class="st9" cx="601.7" cy="372.8" r="4"/>
							<circle id="Ellipse_223" class="st9" cx="596.8" cy="426.5" r="4"/>
							<circle id="Ellipse_224" class="st9" cx="527" cy="389.3" r="4"/>
							<circle id="Ellipse_225" class="st9" cx="580" cy="436.5" r="4"/>
							<circle id="Ellipse_226" class="st9" cx="434.4" cy="283.5" r="4"/>
							<circle id="Ellipse_227" class="st9" cx="383.5" cy="215.8" r="4"/>
							<circle id="Ellipse_228" class="st9" cx="388.5" cy="504" r="5.4"/>
							<circle id="Ellipse_229" class="st9" cx="320.6" cy="579.5" r="5.4"/>
							<circle id="Ellipse_230" class="st9" cx="340" cy="614.9" r="5.4"/>
							<circle id="Ellipse_231" class="st9" cx="234.3" cy="424.1" r="5.4"/>
							<circle id="Ellipse_232" class="st9" cx="171.5" cy="420.8" r="5.4"/>
							<circle id="Ellipse_233" class="st9" cx="131.1" cy="435.8" r="5.4"/>
							<circle id="Ellipse_234" class="st9" cx="324" cy="398.1" r="5.4"/>
							<circle id="Ellipse_235" class="st9" cx="113.2" cy="421.2" r="5.4"/>
							<circle id="Ellipse_236" class="st9" cx="61.7" cy="419.4" r="5.4"/>
							<circle id="Ellipse_237" class="st9" cx="205.6" cy="346.9" r="5.4"/>
							<circle id="Ellipse_238" class="st9" cx="201.1" cy="421.1" r="5.4"/>
							<circle id="Ellipse_239" class="st9" cx="229.9" cy="356.7" r="5.4"/>
							<circle id="Ellipse_240" class="st9" cx="342.6" cy="495.1" r="5.4"/>
							<circle id="Ellipse_241" class="st9" cx="750.5" cy="45.2" r="3.1"/>
							<circle id="Ellipse_242" class="st9" cx="626.9" cy="579.1" r="5.4"/>
							<circle id="Ellipse_243" class="st9" cx="637.2" cy="486.6" r="5.4"/>
							<circle id="Ellipse_244" class="st9" cx="606.4" cy="538" r="5.4"/>
							<circle id="Ellipse_245" class="st9" cx="581.8" cy="592.8" r="5.4"/>
							<circle id="Ellipse_246" class="st9" cx="542.5" cy="647" r="5.4"/>
							<circle id="Ellipse_247" class="st9" cx="555.6" cy="514.5" r="5.4"/>
							<circle id="Ellipse_248" class="st9" cx="649.7" cy="503.1" r="5.4"/>
							<circle id="Ellipse_249" class="st9" cx="609.6" cy="437.2" r="5.4"/>
							<circle id="Ellipse_250" class="st9" cx="636" cy="397.6" r="5.4"/>
							<circle id="Ellipse_251" class="st9" cx="734.4" cy="494.3" r="5.4"/>
							<circle id="Ellipse_252" class="st9" cx="674.4" cy="477.2" r="5.4"/>
							<circle id="Ellipse_253" class="st9" cx="720.1" cy="327.4" r="5.4"/>
							<circle id="Ellipse_254" class="st9" cx="674.4" cy="397.6" r="5.4"/>
							<circle id="Ellipse_255" class="st9" cx="718" cy="288.3" r="5.4"/>
							<circle id="Ellipse_256" class="st9" cx="725.7" cy="245.8" r="5.4"/>
							<circle id="Ellipse_257" class="st9" cx="750.8" cy="164.6" r="5.4"/>
							<circle id="Ellipse_258" class="st9" cx="723.4" cy="53.7" r="2.8"/>
							<circle id="Ellipse_259" class="st9" cx="753.1" cy="94.4" r="1.1"/>
							<circle id="Ellipse_260" class="st9" cx="744.7" cy="72.7" r="1.1"/>
							<circle id="Ellipse_261" class="st9" cx="746" cy="98.6" r="1.1"/>
							<circle id="Ellipse_262" class="st9" cx="725.2" cy="75.1" r="1.1"/>
							<circle id="Ellipse_263" class="st9" cx="712.1" cy="51.7" r="1.1"/>
							<circle id="Ellipse_264" class="st9" cx="633.7" cy="148.5" r="2.8"/>
							<circle id="Ellipse_265" class="st9" cx="635.6" cy="169.8" r="1.1"/>
							<circle id="Ellipse_266" class="st9" cx="622.4" cy="146.5" r="1.1"/>
							<circle id="Ellipse_267" class="st9" cx="665.7" cy="168.1" r="2.8"/>
							<circle id="Ellipse_268" class="st9" cx="667.5" cy="189.4" r="1.1"/>
							<circle id="Ellipse_269" class="st9" cx="654.4" cy="166" r="1.1"/>
							<circle id="Ellipse_270" class="st9" cx="680.1" cy="139.2" r="2.8"/>
							<circle id="Ellipse_271" class="st9" cx="681.9" cy="160.6" r="1.1"/>
							<circle id="Ellipse_272" class="st9" cx="668.8" cy="137.2" r="1.1"/>
							<circle id="Ellipse_273" class="st9" cx="728.5" cy="190.8" r="2.8"/>
							<circle id="Ellipse_274" class="st9" cx="730.3" cy="212.1" r="1.1"/>
							<circle id="Ellipse_275" class="st9" cx="717.2" cy="188.7" r="1.1"/>
							<circle id="Ellipse_276" class="st9" cx="728.5" cy="107.1" r="1.8"/>
							<circle id="Ellipse_277" class="st9" cx="736" cy="393.4" r="3.1"/>
							<circle id="Ellipse_278" class="st9" cx="708.9" cy="402" r="2.8"/>
							<circle id="Ellipse_279" class="st9" cx="738.6" cy="442.6" r="1.1"/>
							<circle id="Ellipse_280" class="st9" cx="730.3" cy="421" r="1.1"/>
							<circle id="Ellipse_281" class="st9" cx="731.6" cy="446.9" r="1.1"/>
							<circle id="Ellipse_282" class="st9" cx="710.8" cy="423.3" r="1.1"/>
							<circle id="Ellipse_283" class="st9" cx="714" cy="455.3" r="1.8"/>
							<circle id="Ellipse_284" class="st9" cx="763.9" cy="290.4" r="3.1"/>
							<circle id="Ellipse_285" class="st9" cx="736.7" cy="298.9" r="2.8"/>
							<circle id="Ellipse_286" class="st9" cx="766.4" cy="339.6" r="1.1"/>
							<circle id="Ellipse_287" class="st9" cx="758.1" cy="318" r="1.1"/>
							<circle id="Ellipse_288" class="st9" cx="759.4" cy="343.8" r="1.1"/>
							<circle id="Ellipse_289" class="st9" cx="738.6" cy="320.3" r="1.1"/>
							<circle id="Ellipse_290" class="st9" cx="741.8" cy="352.3" r="1.8"/>
							<circle id="Ellipse_291" class="st9" cx="735.7" cy="146.5" r="2.8"/>
							<circle id="Ellipse_292" class="st9" cx="737.6" cy="167.8" r="1.1"/>
							<circle id="Ellipse_293" class="st9" cx="740.8" cy="199.8" r="1.8"/>
							<circle id="Ellipse_294" class="st9" cx="702" cy="75.6" r="3.1"/>
							<circle id="Ellipse_295" class="st9" cx="674.8" cy="84.1" r="2.8"/>
							<circle id="Ellipse_296" class="st9" cx="696.2" cy="103.1" r="1.1"/>
							<circle id="Ellipse_297" class="st9" cx="676.7" cy="105.5" r="1.1"/>
							<circle id="Ellipse_298" class="st9" cx="663.6" cy="82.1" r="1.1"/>
							<circle id="Ellipse_299" class="st9" cx="655.2" cy="59.3" r="1.1"/>
							<circle id="Ellipse_300" class="st9" cx="671.3" cy="60" r="1.1"/>
							<circle id="Ellipse_301" class="st9" cx="566.7" cy="5.1" r="1.8"/>
							<circle id="Ellipse_302" class="st9" cx="534.5" cy="1.1" r="1.1"/>
							<circle id="Ellipse_303" class="st9" cx="514.9" cy="3.5" r="1.1"/>
							<circle id="Ellipse_304" class="st9" cx="713.4" cy="506.8" r="3.1"/>
							<circle id="Ellipse_305" class="st9" cx="686.3" cy="515.3" r="2.8"/>
							<circle id="Ellipse_306" class="st9" cx="725.9" cy="543.2" r="1.1"/>
							<circle id="Ellipse_307" class="st9" cx="716" cy="555.9" r="1.1"/>
							<circle id="Ellipse_308" class="st9" cx="707.6" cy="534.3" r="1.1"/>
							<circle id="Ellipse_309" class="st9" cx="731.2" cy="558.9" r="1.1"/>
							<circle id="Ellipse_310" class="st9" cx="708.9" cy="560.2" r="1.1"/>
							<circle id="Ellipse_311" class="st9" cx="688.1" cy="536.6" r="1.1"/>
							<circle id="Ellipse_312" class="st9" cx="675" cy="513.2" r="1.1"/>
							<circle id="Ellipse_313" class="st9" cx="691.4" cy="568.6" r="1.8"/>
							<circle id="Ellipse_314" class="st9" cx="664.9" cy="537.1" r="3.1"/>
							<circle id="Ellipse_315" class="st9" cx="660.4" cy="587.9" r="2.8"/>
							<circle id="Ellipse_316" class="st9" cx="659.1" cy="564.7" r="1.1"/>
							<circle id="Ellipse_317" class="st9" cx="662.3" cy="609.3" r="1.1"/>
							<circle id="Ellipse_318" class="st9" cx="649.1" cy="585.9" r="1.1"/>
							<path id="Path_212" class="st9" d="M55.9,445.7"/>
							<circle id="Ellipse_319" class="st9" cx="697.1" cy="243.9" r="5.4"/>
							<circle id="Ellipse_320" class="st9" cx="623.9" cy="114.6" r="8.2"/>
							<line id="Line_27" class="st7" x1="472" y1="251.7" x2="469.4" y2="251.2"/>
							<path id="Path_213" class="st7" d="M463.4,247.1"/>
							<path id="Path_214" class="st7" d="M596.8,426.5"/>
							<path id="Path_215" class="st7" d="M575.4,410.1"/>
							<path id="Path_216" class="st7" d="M501.4,238"/>
							<path id="Path_217" class="st8" d="M518.3,600.5l29-30.2l32.1,0.9l-66.9,59.3L518.3,600.5z"/>
							<circle id="Ellipse_321" class="st9" cx="548.5" cy="570.4" r="4"/>
							<circle id="Ellipse_322" class="st9" cx="520.2" cy="599.4" r="4"/>
							<path id="Path_218" class="st7" d="M357.7,594.6L340,614.5l-18.7-34.4l-28.2-46.7L273,496.2l60.7,44.1l10.5-47.7l5.3-22.5
								l-32.5,8.9l-50.6-27.7l-32.8-28.2l15.7,30.3l8.8-38.8l58,61.5l6.6-29.3l26.8,23.2l40.2,36.5"/>
							<path id="Path_219" class="st6" d="M514.3,102.4L494.9,118l-0.3,27l29.9,11.6l20-17.3l-8.3-31.2L514.3,102.4z"/>
							<path id="Path_220" class="st6" d="M552.8,159.4l23.6,19.4l24.4,29.9h40.7l40.1,8.4l44.1,28.7"/>
							<path id="Path_221" class="st6" d="M718,288.4l-19.4-27.9l-41.2-24.6l-45.5-2.4l-39.1,13.6l-20,25.1L538.4,285l0.6,37.4
								l-0.6,11.3l10.9,34.1l35.2,40.6l46.1,4.3l44.6-15.6l37.5-31.6l7.4-38.1"/>
							<path id="Path_222" class="st6" d="M392.7,146.5l87.4-4.8l-8.9-21.9l8.9-12.4l34.3-21l28.6,6.7l23.5,37.2l35.9,16.9"/>
							<line id="Line_28" class="st7" x1="494.9" y1="162.8" x2="522.3" y2="170.5"/>
							<path id="Path_223" class="st6" d="M462.8,265.4l-16.2-27.8l-15.2-22.7l-4.5-11.1l23.6-17L497,164"/>
							<path id="Path_224" class="st6" d="M25.2,389.4l9.8,7.2l11.6,10l15,12.7L78,420l36.7,3l16.4,12.8l40-14.6l29.8,0.1l33.9,2.6
								l22.3-8.2l9.1-16l-14.8-12.5l-7.5-13.9l7.2,14l0.4,16.9L234.8,424"/>
							<path id="Path_225" class="st7" d="M419,628.7l-4.9,31.9l-26.9-6.3l-1.2-25.6l29.2-32l-1.7-0.7l-33.3-13.5L361.7,596l13.3,11
								l5.1-24.6"/>
							<line id="Line_29" class="st7" x1="391.9" y1="680" x2="413.3" y2="660.5"/>
							<path id="Path_226" class="st7" d="M436.7,684.7l-20.8,22.1l-4.8-47.8"/>
							<path id="Path_227" class="st7" d="M469.6,582.7"/>
							<path id="Path_228" class="st7" d="M514.5,660.6l-1.1-29.7l-17.7-30.5"/>
							<path id="Path_229" class="st7" d="M437.5,684l23.5,28.9l42.9-27"/>
							<path id="Path_230" class="st7" d="M484.7,655.9l20.5,30.7l-37.8-4.4"/>
							<line id="Line_30" class="st7" x1="513.6" y1="630.6" x2="488.7" y2="654.2"/>
							<path id="Path_231" class="st7" d="M512.9,629.4l-39.1-4.9l22.5-23.2"/>
							<path id="Path_232" class="st7" d="M513.3,629.7l1.3,30.5l-28.6-4.5"/>
							<path id="Path_233" class="st7" d="M89.7,402.4l-6.8-25.3l-8.2,14.1l-2.8-20.3l-10,19.1l-4.7-26.1l-8.8,16.3l0.4-22L35.4,371
								l7.9-15.8l6.9-20.4"/>
							<path id="Path_234" class="st7" d="M56.8,362.7l-9.1-4.6l-4.4-3l-19.6,12.1"/>
							<path id="Path_235" class="st6" d="M316,391.1"/>
							<circle id="Ellipse_323" class="st9" cx="513.6" cy="630.6" r="4"/>
							<circle id="Ellipse_324" class="st9" cx="580.1" cy="571.1" r="5.4"/>
							<path id="Path_236" class="st7" d="M25.2,389.4l-0.7-20.5l1.5,20.4l9.8-18.4l-1,25.7l13.4-14.2L47,405.5l14.5-15.5l0.5,23.9
								l12.9-20.3l3.5,24.5l23.4-31"/>
						</g>
						<path id="Path_237" class="st7" d="M385.5,629.7l-10.3-22.8l-35.4,8l45.7,38.8"/>
						<line id="Line_31" class="st7" x1="584.1" y1="408.3" x2="572.7" y2="415.2"/>
						<path id="Path_238" class="st7" d="M230.3,357l-24.5-9.7l-39.9,8l-42.2,18.3l-14.8-5.7l-12.6-5.7l-9.7-4l-14.8,12.6l14.8-12.6
							l-3.4,19.4l13.7-16l4.6,25.1l6.8-18.3c0,0,4.6,22.8,4.6,21.7"/>
						<path id="Path_239" class="st6" d="M244,373l-14.1-16.3l-24.1-9.4l-39.1,7.6l-43,18.6l-14.8-5.7l-12.6-5.7l-10.3-3.4
							l-14.8,12.6"/>
						<path id="Path_240" class="st6" d="M548.7,368.4"/>
						<path id="Path_241" class="st6" d="M657.7,273.1l-36.5-4.6l-38.8,22.8l-8,46.8l27.4,34.2h52.5l27.4-26.2v-44.5L657.7,273.1z"
							/>
						<path id="Path_242" class="st6" d="M548.7,368.4L527,388.9l-13.7,13.7l-9.1,28.5l-24,69.6l-1.1,33.1l-27.4,50.2l-25.7,1.7
							l-26-29L385,537.9l-27.4-27.4l-14.1-15.4l5.1-25.7"/>
						<path id="Path_243" class="st6" d="M243.4,316.5"/>
						<path id="Path_244" class="st6" d="M539,323.5l-0.6,10.2l10.9,34.1l-22.6,23.3l-13.3,11.5l-9.1,28.5l-24,69.6l-1.1,33.1
							l-28,49.6l18.3-1.1l25.1,18.3l19.4,29.7l1.1,29.7l-10.3,26.2l-43.4,26.2l-45.7-5.7l-25.7-25.7l-50.2-66.2l-19.3-35.4
							L272,495.6l-22.8-43.4l-16-29.7"/>
						<path id="Path_245" class="st7" d="M425.5,568.1"/>
						<path id="Path_246" class="st7" d="M543,686.8"/>
						<path id="Path_247" class="st6" d="M266.3,401l55.9,45.6l26.4,22.8l-5.1,25.7l14.1,15.4l27.4,27.4l16,19.4l23.6,29.4l-10,9.4
							l-28.8,32.6l1.4,24.5l3.4,28.5"/>
						<path id="Path_248" class="st6" d="M674.8,396.4l-16,52.5l-21.7,38.3"/>
						<path id="Path_249" class="st6" d="M513.3,629.7l66.8-58.8l26.8-32.5l29.6-51.2l21.8-37.8l16-49.1"/>
						<path id="Path_250" class="st9" d="M225.2,393.4"/>
					</g>
				</g>
			</g>
		</g>
	</g>
</g>
</svg>
