<svg xmlns="http://www.w3.org/2000/svg" width="155.459" height="23.273" viewBox="0 0 155.459 23.273">
  <g id="Group_11" data-name="Group 11" transform="translate(-609.15 -484.898)">
    <g id="Group_10" data-name="Group 10" transform="translate(641.379 490.532)">
      <g id="Group_9" data-name="Group 9" transform="translate(0)">
        <path id="Path_4" data-name="Path 4" d="M768.283,522.188a1.3,1.3,0,0,1-.483,1.02,1.633,1.633,0,0,1-1.1.419,1.4,1.4,0,0,1-.765-.218,1.477,1.477,0,0,1-.546-.656l-.82-1.84h-5.9l-.838,1.84a1.424,1.424,0,0,1-1.33.874,1.7,1.7,0,0,1-1.12-.419,1.283,1.283,0,0,1-.5-1.02,1.569,1.569,0,0,1,.164-.674l4.809-9.873a1.693,1.693,0,0,1,.7-.756,2.12,2.12,0,0,1,2.049,0,1.681,1.681,0,0,1,.711.756l4.809,9.873A1.57,1.57,0,0,1,768.283,522.188Zm-8.488-3.789h3.643l-1.822-4.062Z" transform="translate(-754.876 -510.565)" fill="#fff"/>
        <path id="Path_5" data-name="Path 5" d="M833.353,522.742a5.519,5.519,0,0,1-2.241-2.3,8.076,8.076,0,0,1,0-6.977,5.521,5.521,0,0,1,2.241-2.3,7.438,7.438,0,0,1,7.441.419,1.415,1.415,0,0,1,.446.474,1.384,1.384,0,0,1,.137.656,1.467,1.467,0,0,1-.319.956.966.966,0,0,1-.774.392,1.394,1.394,0,0,1-.492-.082,2.965,2.965,0,0,1-.51-.264,5.176,5.176,0,0,0-1.2-.546,4.16,4.16,0,0,0-1.166-.164,2.927,2.927,0,0,0-2.414.974,5.959,5.959,0,0,0,0,5.939,2.926,2.926,0,0,0,2.414.975,3.262,3.262,0,0,0,1.056-.173q.51-.173,1.312-.537.383-.2.565-.273a1.182,1.182,0,0,1,.437-.073.967.967,0,0,1,.774.392,1.467,1.467,0,0,1,.319.956,1.24,1.24,0,0,1-.583,1.129,7.437,7.437,0,0,1-7.441.419Z" transform="translate(-813.634 -510.373)" fill="#fff"/>
        <path id="Path_6" data-name="Path 6" d="M910.533,511.149a1.614,1.614,0,0,1,.446,1.193v9.746a1.643,1.643,0,0,1-.446,1.2,1.594,1.594,0,0,1-1.193.456,1.612,1.612,0,0,1-1.193-.446,1.637,1.637,0,0,1-.446-1.212v-3.643h-5.246v3.643a1.642,1.642,0,0,1-.446,1.2,1.594,1.594,0,0,1-1.193.456,1.611,1.611,0,0,1-1.193-.446,1.637,1.637,0,0,1-.446-1.212v-9.746a1.641,1.641,0,1,1,3.279,0v3.443H907.7v-3.443a1.689,1.689,0,0,1,2.833-1.193Z" transform="translate(-867.261 -510.63)" fill="#fff"/>
        <path id="Path_7" data-name="Path 7" d="M975.064,523.3a1.636,1.636,0,0,1-.446-1.212v-9.746a1.613,1.613,0,0,1,.446-1.193,1.638,1.638,0,0,1,1.211-.446,1.694,1.694,0,0,1,1.239.446,1.6,1.6,0,0,1,.455,1.193v9.746a1.619,1.619,0,0,1-.455,1.212,1.692,1.692,0,0,1-1.239.446A1.636,1.636,0,0,1,975.064,523.3Z" transform="translate(-926.018 -510.63)" fill="#fff"/>
        <path id="Path_8" data-name="Path 8" d="M1012.248,523.557a1.552,1.552,0,0,1-.4-1.148v-9.746a1.4,1.4,0,0,1,1.548-1.548h6.3a1.836,1.836,0,0,1,1.184.328,1.154,1.154,0,0,1,.4.947q0,1.312-1.585,1.312h-4.59v2.441h4.226q1.585,0,1.585,1.293a1.154,1.154,0,0,1-.4.947,1.837,1.837,0,0,1-1.184.328h-4.226v2.66h4.59q1.585,0,1.585,1.311a1.154,1.154,0,0,1-.4.947,1.836,1.836,0,0,1-1.184.328h-6.3A1.551,1.551,0,0,1,1012.248,523.557Z" transform="translate(-955.014 -510.951)" fill="#fff"/>
        <path id="Path_9" data-name="Path 9" d="M1079.138,510.922a1.528,1.528,0,0,1,.8-.219,1.857,1.857,0,0,1,1.184.419,1.3,1.3,0,0,1,.528,1.057,1.423,1.423,0,0,1-.164.638l-4.809,9.928a1.678,1.678,0,0,1-.71.756,2.1,2.1,0,0,1-2.04,0,1.68,1.68,0,0,1-.71-.756l-4.809-9.928a1.4,1.4,0,0,1-.146-.638,1.289,1.289,0,0,1,.546-1.047,1.932,1.932,0,0,1,1.22-.428,1.577,1.577,0,0,1,.811.219,1.418,1.418,0,0,1,.574.656l3.589,7.76,3.57-7.76A1.434,1.434,0,0,1,1079.138,510.922Z" transform="translate(-998.953 -510.63)" fill="#fff"/>
        <path id="Path_10" data-name="Path 10" d="M1146.378,523.3a1.636,1.636,0,0,1-.446-1.212v-9.746a1.614,1.614,0,0,1,.446-1.193,1.637,1.637,0,0,1,1.211-.446,1.7,1.7,0,0,1,1.239.446,1.6,1.6,0,0,1,.455,1.193v9.746a1.619,1.619,0,0,1-.455,1.212,1.693,1.693,0,0,1-1.239.446A1.636,1.636,0,0,1,1146.378,523.3Z" transform="translate(-1059.444 -510.63)" fill="#fff"/>
        <path id="Path_11" data-name="Path 11" d="M1184.692,522.733a5.528,5.528,0,0,1-2.232-2.3,8.163,8.163,0,0,1,0-6.977,5.473,5.473,0,0,1,2.232-2.286,7.678,7.678,0,0,1,6.831,0,5.418,5.418,0,0,1,2.222,2.286,8.2,8.2,0,0,1-.009,6.977,5.528,5.528,0,0,1-2.232,2.3,7.562,7.562,0,0,1-6.812,0Zm5.692-2.787a4.724,4.724,0,0,0,.82-3,4.648,4.648,0,0,0-.829-2.987,3.05,3.05,0,0,0-4.545-.009,5.906,5.906,0,0,0,0,6,3.042,3.042,0,0,0,4.554-.009Z" transform="translate(-1087.283 -510.373)" fill="#fff"/>
        <path id="Path_12" data-name="Path 12" d="M1271.261,511.158a1.621,1.621,0,0,1,.446,1.184v9.746a1.663,1.663,0,0,1-.437,1.2,1.5,1.5,0,0,1-1.129.456,1.464,1.464,0,0,1-1.239-.547l-5.537-6.9v5.793a1.706,1.706,0,0,1-.419,1.2,1.458,1.458,0,0,1-1.129.456,1.494,1.494,0,0,1-1.129-.456,1.661,1.661,0,0,1-.437-1.2v-9.746a1.638,1.638,0,0,1,.437-1.184,1.5,1.5,0,0,1,1.129-.455,1.476,1.476,0,0,1,1.221.547l5.537,6.886v-5.793a1.652,1.652,0,0,1,.428-1.193,1.482,1.482,0,0,1,1.12-.446A1.526,1.526,0,0,1,1271.261,511.158Z" transform="translate(-1148.479 -510.63)" fill="#fff"/>
      </g>
    </g>
    <path id="Path_42" data-name="Path 42" d="M2.623,0A2.623,2.623,0,1,1,0,2.623,2.623,2.623,0,0,1,2.623,0Z" transform="translate(617.737 492.685)" fill="#d2def1"/>
    <path id="Path_13" data-name="Path 13" d="M642.6,540.847a3.233,3.233,0,0,0-.834-2.091,2.512,2.512,0,0,0-4.183,1.814l-.069,1.279h0l-.015-.006-.047-.023-.046-.023-.041-.021-.042-.023-.045-.025-.044-.025-.044-.026-.044-.026-.044-.027-.043-.027-.043-.027c-.01-.006-.02-.014-.031-.02l-.04-.028-.042-.03-.041-.03-.041-.03-.041-.03-.041-.031-.041-.031-.04-.031-.025-.021v0l-.032-.027-.009-.009-.03-.024-.012-.012-.026-.022-.014-.015-.023-.019-.017-.017-.02-.017-.02-.021-.017-.014-.023-.023-.014-.012-.026-.026-.011-.009-.028-.029-.008-.006-.018-.018-.034-.036-.035-.037-.034-.037-.034-.038-.034-.038-.034-.038-.034-.038-.033-.039c-.011-.013-.021-.026-.033-.039l-.022-.027-.028-.035-.031-.041-.031-.041-.023-.03-.008-.011-.03-.041-.03-.042-.03-.042-.029-.042-.029-.042-.029-.042-.02-.03c-.008-.014-.018-.027-.026-.041l-.027-.044c-.008-.015-.018-.029-.027-.044l-.027-.044-.026-.044-.026-.045-.026-.045-.025-.045-.025-.046c-.008-.015-.016-.03-.025-.045s-.013-.026-.02-.038-.014-.027-.021-.04l-.023-.047c-.007-.016-.015-.031-.023-.047l-.023-.047-.022-.047-.022-.047-.022-.048-.021-.048c-.007-.016-.013-.032-.021-.048s-.013-.032-.021-.049-.013-.032-.02-.048-.009-.026-.015-.038-.012-.031-.018-.047-.013-.033-.019-.049-.012-.033-.018-.049-.012-.033-.018-.05l-.017-.05-.017-.049c-.006-.017-.011-.033-.017-.05l-.017-.05-.016-.05c-.006-.017-.01-.034-.016-.05s-.01-.034-.016-.051-.007-.027-.012-.04-.01-.033-.014-.049-.01-.034-.014-.051l-.014-.051c0-.017-.009-.034-.013-.051s-.009-.034-.013-.051l-.013-.052c0-.017-.008-.034-.012-.051s-.008-.035-.012-.052-.007-.035-.012-.052-.007-.035-.011-.052-.007-.035-.011-.052,0-.029-.008-.043-.007-.033-.009-.05-.006-.035-.009-.053-.006-.035-.009-.052-.005-.035-.008-.052-.005-.035-.008-.053,0-.035-.008-.053,0-.035-.008-.053,0-.035-.007-.053,0-.035-.007-.053,0-.035-.007-.053,0-.035-.006-.053,0-.03,0-.045,0-.032,0-.049,0-.036,0-.054,0-.035,0-.053,0-.036,0-.053,0-.036,0-.054,0-.036,0-.054,0-.036,0-.054,0-.036,0-.053,0-.036,0-.054,0-.035,0-.053,0-.036,0-.054,0-.029,0-.044,0-.033,0-.049,0-.036,0-.054,0-.036,0-.054,0-.036,0-.054,0-.036,0-.054,0-.035,0-.054,0-.035,0-.053,0-.036,0-.054,0-.036,0-.054,0-.036,0-.053,0-.036,0-.054,0-.026,0-.039,0-.035.005-.052,0-.036.006-.054,0-.035.006-.053,0-.036.006-.053,0-.036.007-.054,0-.035.007-.053.005-.035.007-.053.006-.035.008-.053v-.008l-.006,0c0,.012-.005.023-.009.035s-.01.043-.016.064-.009.042-.015.063-.007.034-.011.05-.009.042-.013.063-.009.043-.013.064-.008.043-.013.065-.008.043-.012.064-.008.043-.012.065-.007.043-.011.065-.007.043-.011.065-.006.043-.01.065-.006.043-.01.065-.006.044-.01.065-.005.044-.009.065,0,.036-.007.054-.005.041-.007.062,0,.044-.007.065,0,.044-.006.066,0,.044-.006.065,0,.044-.006.066,0,.044-.005.065,0,.044,0,.066,0,.044,0,.066,0,.044,0,.066,0,.044,0,.066,0,.044,0,.066,0,.037,0,.055,0,.04,0,.061,0,.044,0,.066,0,.044,0,.066,0,.044,0,.066,0,.044,0,.067,0,.044,0,.066,0,.044,0,.067,0,.044,0,.066,0,.044,0,.067,0,.044,0,.066,0,.044,0,.067,0,.036,0,.055,0,.04,0,.06,0,.044.006.066,0,.044.006.066,0,.044.007.066,0,.044.006.066.005.044.007.066.005.044.008.066.006.044.008.066.006.044.008.066.007.044.009.066.007.044.009.066.006.032.007.048.007.043.011.064.007.044.012.066.008.044.012.066.008.044.012.065.009.043.013.065l.013.066c0,.021.009.043.014.065s.01.044.014.066.01.043.014.065.011.043.015.065.01.038.014.057.008.033.013.049.011.043.017.064.012.043.018.064.012.043.018.064.012.042.019.064l.019.064.02.064c.007.021.014.042.02.064s.015.042.021.063.014.042.021.063.014.039.02.059.009.028.015.041.015.042.024.063.016.041.024.062.016.041.025.062.016.041.025.062l.025.062.026.062c.009.021.018.041.026.062s.018.041.027.061.019.04.027.061.017.036.025.054.012.026.018.039.02.041.03.06.02.04.03.06.02.04.03.06l.031.06.031.059.032.059.032.059c.011.02.022.039.032.058s.023.039.033.059.012.02.018.03.022.037.033.055.023.038.035.057.024.038.036.057l.036.056.037.056.037.056.038.056.038.056c.012.019.026.036.038.055l.022.03.022.03.013.018c.014.018.027.036.041.054l.042.054.042.053.042.053.043.053.043.052.043.052.043.05c.015.017.03.033.044.051l.012.014,0,0c.014.014.025.029.038.043l.01.009c.013.013.023.027.035.04l.014.012c.011.011.021.024.032.036l.017.015c.01.01.019.022.029.033l.02.018c.009.009.017.02.026.029l.023.021.023.026c.009.009.018.016.027.025s.015.018.024.026.022.019.032.03l.02.022c.012.012.025.022.036.034l.016.018c.013.013.027.024.04.037l.012.014c.015.014.03.027.045.041l0,0,.039.036.053.047.054.047.054.046.054.046.054.045.055.044.055.044.055.044c.016.013.033.023.048.036l.037.028.056.04.056.039.056.039.057.038.057.038.057.037.056.036c.019.012.039.023.058.036l.029.018c.018.01.035.021.053.031l.058.033.058.032.058.032.058.031.058.031.059.03.059.03c.018.009.037.017.055.027l.025.012.059.026.059.026.06.026.059.025,0,0,.056.023.06.024.06.023.06.023.024.009.054.019.061.02.061.019.061.019.061.018.061.018.061.017.061.017.061.016.014,0,.061.014.061.013.062.013.062.013.062.012.062.011.062.011.062.011.061.01.012,0,.062.008.062.007.062.007.062.006.062.006.062.005.062,0,.062,0,.062,0h.014l.058,0h.374l.063,0,.062,0,.062,0h.005l.065,0,.062-.005.062-.006.062-.006.062-.007.062-.007.062-.007.062-.008.062-.008.062-.009.011,0,.056-.009.062-.011.062-.012.062-.012.061-.013.062-.013.061-.014.061-.014.061-.014.061-.015.061-.015.007,0,.058-.016.06-.018.061-.018.029-.009Z" transform="translate(-19.724 -39.506)" fill="#d2def1"/>
    <path id="Path_14" data-name="Path 14" d="M632.789,503.883l-.3-7.47a3.387,3.387,0,0,0-.034-.349c0-.022,0-.043-.006-.068s0-.046-.006-.068-.006-.046-.009-.068-.006-.046-.009-.068-.006-.046-.009-.071a.559.559,0,0,0-.009-.068l-.009-.065c0-.025-.006-.046-.009-.068s-.006-.046-.009-.068-.009-.046-.012-.068l-.009-.065c0-.024-.009-.046-.012-.068s-.009-.043-.012-.065a3.114,3.114,0,0,0-.065-.342.546.546,0,0,0-.012-.068c0-.021-.009-.043-.012-.065s-.009-.043-.015-.065-.009-.043-.012-.065-.009-.043-.016-.065-.009-.043-.015-.065-.009-.043-.015-.065-.009-.043-.016-.065-.009-.043-.015-.065-.012-.04-.019-.062a.467.467,0,0,0-.015-.065c-.006-.021-.012-.043-.019-.062a3,3,0,0,0-.092-.333l-.019-.065c-.006-.019-.012-.04-.019-.062l-.018-.062c-.006-.022-.012-.043-.019-.062s-.015-.043-.022-.062-.012-.043-.018-.062-.015-.043-.021-.062a.519.519,0,0,0-.022-.062c-.006-.021-.012-.04-.019-.062a.424.424,0,0,1-.022-.059.517.517,0,0,1-.021-.062c-.009-.022-.016-.04-.025-.059s-.016-.04-.022-.062c-.037-.108-.077-.216-.124-.321-.009-.022-.015-.04-.025-.059s-.015-.04-.022-.062-.016-.037-.024-.059-.016-.037-.025-.059-.016-.037-.025-.055-.015-.04-.025-.059-.019-.04-.025-.059-.018-.04-.028-.059a.431.431,0,0,0-.025-.056c-.009-.021-.019-.04-.028-.059s-.018-.037-.024-.056-.019-.04-.028-.059l-.028-.056-.028-.056c-.046-.1-.1-.207-.154-.309l-.028-.056-.028-.055a.5.5,0,0,1-.031-.055c-.009-.016-.019-.034-.028-.053a.509.509,0,0,1-.031-.055.3.3,0,0,0-.031-.052.552.552,0,0,0-.031-.056.3.3,0,0,0-.031-.052.459.459,0,0,0-.031-.056.438.438,0,0,0-.031-.052c-.009-.019-.021-.034-.031-.053s-.022-.034-.031-.052a.492.492,0,0,0-.034-.052,2.937,2.937,0,0,0-.182-.293l-.031-.049c-.012-.019-.022-.037-.034-.053l-.034-.052c-.012-.016-.021-.034-.034-.049l-.034-.052c-.012-.015-.022-.034-.034-.049s-.021-.034-.034-.049-.025-.034-.037-.049a.464.464,0,0,0-.034-.052.293.293,0,0,1-.034-.049l-.037-.046c-.012-.019-.025-.034-.037-.049a.275.275,0,0,0-.034-.049c-.012-.015-.025-.031-.037-.05l-.037-.046c-.065-.1-.136-.185-.21-.275-.015-.016-.025-.031-.04-.046a.469.469,0,0,0-.037-.046l-.037-.046c-.012-.015-.025-.034-.037-.049a.469.469,0,0,1-.04-.043l-.037-.046a.49.49,0,0,1-.04-.046.532.532,0,0,0-.04-.047l-.037-.046a.5.5,0,0,1-.04-.043c-.012-.016-.028-.031-.04-.046s-.028-.028-.04-.043-.028-.028-.04-.043-.028-.031-.04-.046a.58.58,0,0,1-.043-.043,3.1,3.1,0,0,0-.237-.25l-.037-.04a0,0,0,0,1,0,0,.423.423,0,0,1-.037-.037l-.006-.006a.335.335,0,0,1-.034-.034s-.006-.006-.009-.006a.341.341,0,0,0-.028-.034.038.038,0,0,1-.012-.009c-.009-.009-.019-.021-.028-.031a.031.031,0,0,1-.016-.012c-.009-.006-.015-.018-.025-.025s-.012-.009-.018-.016-.015-.015-.022-.025-.016-.009-.022-.015a.127.127,0,0,0-.019-.021c-.009-.009-.015-.012-.025-.022a.105.105,0,0,0-.019-.019c-.006-.006-.015-.012-.025-.021s-.009-.009-.015-.015-.018-.016-.028-.025a.07.07,0,0,1-.012-.016.254.254,0,0,1-.031-.025l-.012-.012c-.009-.009-.022-.019-.031-.028l-.009-.009a.331.331,0,0,1-.034-.028l-.009-.009a.18.18,0,0,0-.037-.031s0,0,0-.006-.028-.021-.04-.034a0,0,0,0,1,0,0c-.083-.077-.17-.151-.26-.219a.565.565,0,0,0-.043-.04.525.525,0,0,1-.046-.037c-.015-.012-.028-.025-.043-.037l-.046-.037-.046-.037-.046-.037-.046-.037c-.016-.012-.031-.022-.046-.034l-.046-.037a.5.5,0,0,0-.046-.034l-.046-.037c-.016-.013-.034-.022-.049-.034a.443.443,0,0,0-.046-.034l-.046-.037a.024.024,0,0,1-.012-.006l-.037-.028c-.016-.012-.031-.022-.047-.034-.09-.068-.182-.13-.275-.188-.015-.009-.031-.022-.049-.034s-.031-.021-.046-.031-.034-.022-.049-.034l-.049-.031c-.016-.009-.031-.022-.049-.031s-.031-.022-.049-.034l-.049-.031-.05-.031-.049-.031c-.015-.009-.031-.019-.049-.028a.454.454,0,0,0-.049-.031.4.4,0,0,0-.049-.031l-.052-.028a.262.262,0,0,0-.05-.031l-.049-.028-.052-.028a.383.383,0,0,0-.049-.028,2.835,2.835,0,0,0-.284-.157l-.053-.028a.408.408,0,0,0-.052-.025l-.05-.028-.052-.028a.411.411,0,0,1-.052-.025.292.292,0,0,0-.053-.025c-.015-.009-.034-.018-.052-.028s-.034-.016-.05-.025-.037-.016-.052-.025-.037-.016-.052-.025-.037-.016-.053-.025-.037-.016-.055-.025-.034-.016-.052-.022-.034-.015-.052-.025a.26.26,0,0,0-.052-.022c-.018-.009-.037-.015-.053-.025a2.641,2.641,0,0,0-.293-.12.412.412,0,0,0-.056-.022.261.261,0,0,0-.052-.022.374.374,0,0,0-.052-.021c-.018-.006-.037-.015-.055-.022s-.034-.015-.052-.022l-.056-.019c-.018-.006-.034-.015-.052-.021l-.056-.019-.052-.019-.055-.018c-.018-.009-.037-.012-.056-.022s-.037-.009-.056-.015a.258.258,0,0,0-.052-.019l-.055-.018-.055-.019c-.019-.006-.037-.009-.056-.016a2.616,2.616,0,0,0-.3-.09l-.052-.018a.388.388,0,0,1-.056-.016.394.394,0,0,1-.056-.015.365.365,0,0,1-.055-.016c-.018,0-.037-.009-.055-.012a.36.36,0,0,0-.056-.016c-.018-.006-.037-.009-.056-.016s-.037-.009-.055-.012-.04-.009-.059-.015a.336.336,0,0,1-.056-.012c-.019,0-.037-.009-.055-.012a.363.363,0,0,0-.055-.012.37.37,0,0,0-.056-.012.388.388,0,0,1-.055-.012.341.341,0,0,1-.059-.013c-.1-.025-.2-.043-.3-.059l-.053-.009h0l-.055-.009a.472.472,0,0,0-.059-.009c-.019,0-.037-.009-.056-.012l-.056-.009c-.021,0-.04-.006-.059-.006l-.055-.009-.059-.009a.359.359,0,0,0-.055-.006l-.055-.009c-.021,0-.04,0-.059-.006s-.037,0-.055-.006a.436.436,0,0,0-.059-.006.344.344,0,0,0-.055-.006c-.022,0-.04,0-.059-.006a2.653,2.653,0,0,0-.305-.028l-.056-.006c-.018,0-.037,0-.058,0s-.037,0-.055,0-.04,0-.059-.006a.334.334,0,0,1-.056,0,.358.358,0,0,1-.059,0,.326.326,0,0,1-.056,0h-.059a.352.352,0,0,0-.059,0h-.055a.4.4,0,0,0-.059,0h-.114a.368.368,0,0,0-.059,0,.332.332,0,0,0-.056,0,2.523,2.523,0,0,0-.305,0H620.1a.352.352,0,0,0-.059,0h-.059a.327.327,0,0,1-.056,0l-.058,0c-.019,0-.037,0-.059,0s-.037,0-.056,0l-.059,0c-.019,0-.037,0-.055.006s-.04,0-.059,0a.383.383,0,0,0-.059.006c-.019,0-.037,0-.056,0a.4.4,0,0,1-.059.006c-.019,0-.037.006-.056.006-.1.006-.2.019-.3.034-.018,0-.037,0-.056.006l-.059.009a.455.455,0,0,0-.059.006l-.055.009c-.019,0-.037,0-.059.006l-.056.009-.059.009-.055.009c-.019,0-.037.009-.059.012l-.055.009a.5.5,0,0,0-.059.012l-.056.009c-.019,0-.037.009-.059.012-.1.016-.2.037-.293.062a.4.4,0,0,1-.059.012c-.018.006-.037.009-.056.016a.363.363,0,0,0-.056.012c-.021,0-.04.009-.059.012s-.037.009-.055.015a.389.389,0,0,0-.055.015c-.021,0-.04.009-.059.013a.348.348,0,0,1-.055.015.345.345,0,0,1-.056.016l-.059.019a.377.377,0,0,0-.056.015.362.362,0,0,1-.056.016l-.056.018-.055.019a1.42,1.42,0,0,0-.151.049h0c-.045.015-.091.027-.136.044l-.056.019-.055.019-.056.019-.055.02-.055.02-.056.021-.055.021-.056.021-.055.022-.055.022-.055.023-.055.023c-.023.009-.045.02-.067.029a2.878,2.878,0,0,0-.266.116l-.054.024-.054.025-.055.025-.054.026-.054.026-.054.027-.054.027-.054.027-.054.028-.054.028-.053.029-.053.029a2.951,2.951,0,0,0-.267.15c-.017.01-.036.019-.053.03l-.052.03-.052.031-.052.031-.052.032-.052.032-.052.033-.052.033-.052.033-.052.034-.052.034-.051.035c-.018.011-.034.024-.051.035a3.035,3.035,0,0,0-.254.178l-.05.036c-.017.012-.034.024-.051.037l-.05.037-.05.038-.05.038-.05.038-.05.039-.05.039-.049.039-.05.04-.049.04-.049.041c-.017.013-.032.028-.049.041a3.1,3.1,0,0,0-.238.205c-.016.015-.033.028-.048.042s-.032.028-.048.043l-.048.043-.048.044-.048.044-.047.045-.047.045-.047.046-.047.046-.047.046-.047.047c-.016.015-.03.032-.046.047s-.031.032-.046.047a3.148,3.148,0,0,0-.219.231h0c-.014.015-.028.028-.042.044l0,0c-.012.014-.026.026-.038.041l-.006.008c-.012.013-.024.024-.036.038l-.009.012c-.01.012-.022.022-.033.035l-.012.015c-.01.011-.02.02-.03.031l-.015.019c-.008.01-.018.018-.027.028l-.018.023c-.008.009-.016.016-.024.025s-.013.017-.02.026l-.021.022c-.008.01-.015.02-.023.03l-.018.019c-.009.011-.017.023-.026.033l-.015.016c-.01.012-.018.025-.029.037l-.012.013c-.011.013-.021.027-.031.04l-.009.009c-.011.013-.021.027-.031.041l0,0c-.012.014-.022.029-.033.043l0,0q-.1.121-.193.25c-.012.016-.025.032-.037.048l-.037.049c-.012.016-.025.032-.036.049l-.036.05-.036.049-.035.049-.035.05-.035.05-.035.05-.034.05-.034.05c-.012.017-.023.034-.034.052s-.023.035-.035.053l-.035.053c-.012.017-.022.036-.034.053a3.078,3.078,0,0,0-.166.265c-.011.018-.023.036-.033.054s-.022.036-.032.054-.022.036-.033.054-.022.036-.032.055l-.032.054-.031.055-.031.055-.031.055-.03.055c-.01.018-.02.037-.03.055s-.02.037-.029.056-.019.037-.029.056-.019.037-.029.056a3.047,3.047,0,0,0-.138.275c-.009.019-.019.037-.028.056s-.019.037-.027.056-.019.038-.027.057-.018.038-.026.057-.018.038-.026.057l-.026.057-.025.057-.025.057-.025.057c-.008.019-.016.038-.024.057s-.016.038-.024.058-.015.038-.023.058-.015.038-.023.058-.015.039-.023.058q-.061.139-.108.283c-.007.019-.015.039-.022.058s-.015.038-.021.058-.015.039-.021.059-.014.039-.02.059-.014.039-.02.058-.014.039-.02.059l-.019.059-.019.059-.007.024-.011.035c-.007.02-.012.039-.018.059s-.012.039-.018.059-.011.04-.018.059-.011.04-.017.059c-.014.043-.025.087-.037.131-.022.072-.043.144-.06.217-.005.02-.011.04-.016.06s-.011.04-.016.06-.011.04-.015.06-.01.04-.015.06-.01.04-.014.06-.01.04-.014.06-.01.04-.014.06-.009.04-.013.06-.009.04-.013.06-.008.04-.013.06-.008.04-.013.06-.008.04-.012.06-.007.04-.012.06-.007.04-.011.06q-.033.145-.052.291c0,.02-.008.041-.011.061s-.007.04-.01.06-.007.04-.009.06-.007.041-.009.061-.006.04-.009.06-.006.04-.008.061-.006.041-.008.061-.005.04-.008.061,0,.041-.007.061,0,.04-.007.061,0,.041-.007.061,0,.041-.006.061,0,.04-.006.061,0,.04-.005.061c-.013.1-.021.195-.025.292,0,.02,0,.041,0,.061s0,.04,0,.061,0,.04,0,.061,0,.04,0,.061,0,.041,0,.061,0,.041,0,.061,0,.041,0,.061,0,.041,0,.061,0,.04,0,.061,0,.041,0,.061,0,.041,0,.061,0,.041,0,.061,0,.041,0,.061,0,.04,0,.061,0,.041,0,.061q-.006.145,0,.29c0,.02,0,.041,0,.061s0,.04,0,.061,0,.04,0,.061,0,.041,0,.061,0,.04,0,.06,0,.041,0,.061,0,.041,0,.061,0,.04,0,.061,0,.04,0,.061,0,.04,0,.061,0,.04,0,.06,0,.04,0,.061,0,.04.005.061,0,.04.005.06q.007.144.028.287c0,.02,0,.04.006.06s0,.04.007.06,0,.04.007.06,0,.04.007.06,0,.04.008.06,0,.04.008.06.005.04.008.06.005.04.008.06l.009.06c0,.02.006.04.009.06s.007.04.01.06.007.039.01.059.007.04.01.06.007.04.011.059.008.039.011.059c.014.094.032.188.054.281,0,.02.007.039.012.059s.007.04.012.059.008.039.013.059.008.039.013.059.008.039.013.059.009.039.013.058.009.039.014.059.009.039.014.058.009.039.015.059.01.039.015.058.01.039.015.058.01.039.015.058.011.038.016.058.011.039.016.058.011.038.016.058.012.038.017.057c.01.042.025.083.036.125s.017.061.027.092.011.038.017.057.011.038.017.057.011.038.018.057.012.038.018.057.012.038.018.057.012.038.019.057.012.038.019.056l.02.057c.006.019.013.038.02.056s.013.037.02.056.013.037.02.056.014.037.021.056.014.037.021.056.014.037.021.056.015.037.021.055.015.037.022.055.011.026.016.039c.022.057.043.114.068.169.008.018.014.037.022.055s.015.037.023.055.015.037.023.055.015.035.023.052v0c.008.018.015.036.023.054l.024.054.024.054.024.054.025.054.025.054c.008.018.017.036.025.053l.026.053c.008.018.018.035.026.053s.018.035.027.053.018.035.027.053q.059.129.13.252c.01.017.018.035.028.052s.018.035.028.052.018.034.028.052l.028.052.029.051.029.051.029.051.03.051.03.051.03.05.031.05c.01.017.021.033.031.05s.021.033.031.05.021.033.031.049.022.033.032.05q.071.122.155.238c.011.016.021.033.033.049l.033.048c.011.016.021.032.033.048l.033.048.034.048.034.048.034.048.035.047.035.047c.011.016.023.031.035.047s.024.031.036.047.024.031.036.046.024.03.036.046.025.03.036.046l.006.008c.044.058.088.115.136.17.013.015.024.031.037.045s.024.03.037.045.024.03.038.045.024.03.038.044l.038.044.038.044.038.044.039.044.039.043.04.043.04.043c.013.015.027.028.04.042s.027.028.04.042.028.028.041.042a2.841,2.841,0,0,0,.2.2l0,0c.013.012.023.025.036.037l0,0c.012.011.022.023.034.035l.008.006.031.032.011.009.029.029.014.011.026.026.017.014.023.023.02.016.02.02.023.019.017.018c.008.008.018.014.026.021l.015.015.029.024.012.012.032.027.009.009c.011.01.024.019.035.029l.007.006c.012.012.026.021.038.032l0,0c.013.012.028.022.041.034h0a2.749,2.749,0,0,0,.221.182l.045.036.046.036.046.036.046.036.047.035.047.035.047.035.048.035.047.034.048.034.048.034.048.033a2.735,2.735,0,0,0,.233.155c.017.01.032.022.049.032l.05.032.05.031.05.031.05.031.051.031.051.03.052.03.051.029.052.029c.017.01.035.019.052.029s.035.019.052.029a2.689,2.689,0,0,0,.243.128l.053.027.053.027.054.027.054.026.054.026.054.026.054.025.055.025.011,0,.044.02.055.024.056.024.056.023a2.593,2.593,0,0,0,.25.1l.057.022.057.022.057.021.057.021.058.02.058.02.058.02.059.019.059.019.059.018c.019.007.039.012.059.018a2.589,2.589,0,0,0,.256.075c.02.005.039.012.06.017l.06.016.06.016.061.015.061.015.061.015.061.014.062.014.062.013.062.013c.021.005.042.008.062.012a2.593,2.593,0,0,0,.259.049l.063.011.063.011.063.01.064.01.064.009.064.009.064.008.065.008.065.008.065.007.066.007c.086.012.173.02.26.023l.066.005.066,0,.066,0,.067,0,.067,0,.067,0,.068,0,.068,0h.2c.087,0,.174,0,.26,0h.069l.069,0,.069,0,.069,0,.07,0,.07,0,.07,0,.071,0,.071-.005.071-.006.071-.006a2.775,2.775,0,0,0,1.891-.9,2.693,2.693,0,0,0,.669-1.942c0-.019,0-.038,0-.057s0-.038,0-.057,0-.038,0-.057,0-.038,0-.057,0-.038,0-.057v-.006l-.029.009-.061.018-.061.017-.058.016-.007,0-.061.015-.061.015-.061.014-.061.014-.061.013-.062.013-.061.013-.062.012-.061.012-.062.011-.056.01-.012,0-.062.009-.062.008-.062.008-.062.008-.062.007-.062.007-.062.006-.062.006-.062.005-.062,0h-.008l-.062,0-.062,0-.062,0h-.374l-.058,0h-.014l-.062,0-.062,0-.062,0-.062-.005-.062-.006-.062-.006-.062-.007-.062-.007-.062-.008-.012,0-.061-.01-.062-.011-.062-.011-.062-.012-.062-.012-.062-.012-.062-.013-.061-.013-.061-.014-.014,0-.061-.016-.061-.017-.061-.017-.061-.018-.061-.018L619.35,505l-.06-.019-.061-.02c-.018-.006-.036-.013-.054-.019l-.024-.009-.06-.023-.06-.023-.06-.024-.056-.023h0l-.06-.025-.06-.026-.059-.026-.059-.026-.025-.012-.055-.027-.059-.03-.059-.03-.058-.031-.058-.031-.058-.032-.058-.032-.058-.033c-.018-.01-.035-.022-.053-.031l-.029-.018-.058-.036-.057-.036-.057-.037-.056-.038-.056-.039-.056-.039-.056-.039c-.019-.013-.037-.027-.056-.04l-.037-.028c-.016-.013-.033-.024-.049-.036l-.055-.044-.055-.044-.055-.044-.055-.045-.054-.046-.054-.046-.054-.047c-.018-.015-.035-.032-.054-.047l-.039-.036,0-.005c-.014-.015-.03-.027-.044-.041l-.012-.013c-.013-.013-.027-.024-.041-.037l-.016-.018c-.012-.012-.025-.022-.036-.033l-.02-.022-.032-.03-.023-.026-.027-.025-.023-.026-.023-.021-.026-.029-.02-.018c-.01-.01-.019-.022-.029-.033l-.016-.015c-.011-.012-.021-.025-.032-.036l-.013-.012c-.012-.013-.023-.027-.035-.039l-.01-.009c-.013-.014-.024-.029-.038-.043l0,0-.013-.014c-.014-.017-.029-.034-.044-.051l-.043-.05-.043-.051-.044-.052-.043-.052-.043-.053-.042-.053c-.014-.018-.027-.036-.041-.054l-.041-.054-.013-.018c-.007-.01-.014-.02-.022-.03l-.022-.03c-.012-.019-.026-.037-.038-.055s-.026-.037-.038-.056L616,502.4l-.037-.056-.037-.057-.036-.056c-.012-.019-.023-.038-.036-.057s-.023-.038-.035-.057-.021-.037-.033-.055-.012-.02-.018-.03-.022-.039-.033-.058-.022-.039-.033-.059l-.032-.059-.032-.059-.031-.059-.031-.059c-.01-.02-.02-.04-.03-.06s-.019-.04-.03-.06-.019-.04-.03-.06-.012-.027-.018-.04-.017-.036-.025-.054-.018-.04-.027-.061-.018-.041-.026-.061-.017-.041-.026-.061l-.026-.062c-.008-.021-.016-.041-.025-.061s-.016-.042-.025-.062l-.024-.062c-.008-.021-.015-.042-.024-.062s-.015-.042-.024-.063-.009-.028-.015-.042-.014-.039-.02-.059-.014-.042-.021-.063-.014-.042-.021-.063-.013-.042-.02-.063-.013-.043-.02-.064l-.019-.064c-.006-.021-.012-.042-.019-.064s-.012-.043-.018-.064-.011-.043-.018-.064-.011-.043-.018-.064-.008-.033-.013-.049-.01-.038-.014-.058-.01-.043-.015-.065-.01-.043-.015-.065-.01-.044-.015-.065-.009-.043-.014-.065-.009-.044-.013-.065l-.013-.065c0-.022-.008-.044-.013-.065s-.007-.044-.012-.065-.007-.044-.012-.066-.006-.042-.011-.064-.005-.032-.007-.048-.006-.044-.009-.066-.006-.044-.009-.066-.005-.044-.008-.066-.005-.044-.008-.066,0-.044-.008-.066,0-.044-.007-.066,0-.044-.007-.066,0-.044-.006-.066,0-.044-.006-.066,0-.044-.006-.066,0-.04,0-.06,0-.036,0-.054,0-.044,0-.067,0-.044,0-.066,0-.044,0-.067,0-.044,0-.066,0-.044,0-.067,0-.044,0-.066,0-.044,0-.066,0-.044,0-.066,0-.044,0-.066,0-.044,0-.066,0-.04,0-.061,0-.037,0-.056,0-.044,0-.066,0-.044,0-.066,0-.044,0-.066,0-.044,0-.066,0-.044,0-.066,0-.044,0-.065,0-.044.006-.066,0-.044.006-.066,0-.044.006-.066.005-.044.007-.065.005-.041.007-.062,0-.036.007-.054.006-.043.009-.065.006-.044.01-.065.007-.044.01-.065.007-.043.01-.065.007-.043.011-.065.008-.043.011-.065.008-.043.011-.065.009-.043.012-.064.009-.043.012-.065.009-.043.013-.064.009-.042.013-.062.007-.034.011-.05.01-.042.015-.063.01-.042.015-.064.006-.023.009-.035l.007-.029.01-.039c0-.009,0-.018,0-.026s.006-.031.008-.047,0-.027.007-.04.007-.035.011-.053.007-.035.011-.053.007-.035.011-.053.008-.035.012-.053.008-.035.012-.052l.012-.052c0-.017.009-.035.013-.052l.013-.052c0-.017.009-.034.013-.052s.009-.032.013-.048.006-.023.01-.035.01-.034.016-.052.01-.034.016-.051.01-.034.016-.051.011-.034.017-.051l.017-.051.017-.051c.006-.017.012-.034.017-.051s.012-.034.018-.051.013-.034.018-.051.012-.03.017-.045.008-.022.013-.033.013-.034.02-.05.014-.033.021-.05l.021-.05.021-.05.022-.049.022-.049c.008-.017.016-.033.023-.049l.023-.049c.007-.016.016-.032.023-.048s.009-.017.013-.026.016-.031.024-.046l.025-.048.026-.048.026-.048.026-.047.027-.047.027-.047.027-.047.028-.047.016-.025c.009-.013.016-.027.025-.04l.03-.046.031-.046.031-.045.031-.045.031-.045.032-.045.032-.044.032-.043c.01-.015.022-.029.032-.043l.009-.012,0,0,.028-.036.008-.008c.009-.011.017-.023.026-.034l.01-.011c.009-.01.016-.021.024-.03l.013-.013.022-.028.015-.016.019-.025.017-.018c.007-.007.011-.015.017-.023l.02-.021.017-.022.025-.026.014-.019.028-.029.012-.016c.01-.011.021-.021.031-.032l.009-.011c.011-.012.023-.023.034-.035l0,0,.029-.031c.014-.013.027-.028.041-.041l.041-.04.041-.04.041-.04.041-.039.029-.028.012-.011.042-.039.042-.038.037-.032.028-.024.043-.035.043-.035.043-.034.043-.034.044-.033.044-.033.044-.033.044-.032.023-.016.041-.028.044-.029.045-.029.045-.029.045-.029.045-.028.046-.028.046-.027.043-.025.019-.01.046-.025.046-.024.047-.024.046-.023.047-.023.047-.023.047-.022.047-.022.019-.008.042-.018.048-.019.048-.019.048-.019.048-.018.048-.018.048-.017.048-.017.049-.017.011,0,.048-.015.049-.014.049-.014.049-.013.049-.013.049-.013.049-.012.05-.012.048-.011.01,0,.049-.01.05-.009.05-.009.05-.008.05-.008.05-.008.05-.007.05-.007.05-.007h.011l.046,0,.05,0,.05,0,.05,0,.05,0,.05,0,.05,0,.05,0,.05,0h.208l.051,0,.05,0,.05,0,.05,0,.051,0,.05,0,.051,0h.009l.046,0,.05.005.05.006.05.006.05.007.051.007.05.007.05.008.05.008.05.008.05.009h.006l.047.01.049.011.05.011.05.011.049.012.049.012.049.012.05.013.049.013.049.013.049.014.044.013.007,0,.048.016.049.016.048.016.048.017.049.017.048.017.048.018.048.018.048.018.048.019.048.019.042.017,0,0,.047.021.047.021.047.021.047.022.046.022.047.022.047.023.046.023.046.023.046.023.046.024.042.023.044.025.045.026.045.026.044.027.045.027.044.027.044.027.044.028.044.028.044.028.044.029.039.026.037.026.042.031.042.031.042.031.042.031.042.032.041.032.041.032.041.033.041.033.041.033.039.033.026.022.007.007.032.028.009.01.03.025.012.012.027.023.014.015.025.021.016.017.022.019.019.019.02.017.021.022.017.015.023.024.015.012c.009.009.016.018.025.027l.012.011.028.029.01.008c.01.01.019.021.03.032l0,0,.024.025.036.039.035.039.036.04.019.021.016.018.035.04.035.04.034.041.034.041.034.041.034.042.024.031c.01.014.021.027.03.04l.032.043.031.043.031.044.031.044.031.044.03.044.03.044.03.045c.01.015.019.03.029.045l.019.031,0,0c.009.016.019.031.028.047s.018.031.027.046.018.031.027.047l.027.047.026.047.026.047.026.048c.009.016.017.032.026.048s.016.032.025.048.014.029.022.043.015.032.023.048.016.033.023.05.015.033.023.05.015.033.022.05l.022.05.022.05.021.051c.008.017.014.034.021.051s.013.034.021.051v0c.005.016.012.031.018.047s.013.035.019.052.013.035.018.052.012.035.018.053l.018.053c.006.018.012.035.018.053s.011.036.017.053.011.036.017.053.01.036.016.054l0,.009c0,.016.009.031.013.047s.01.037.014.055.009.036.014.055.009.037.013.055.009.037.013.056v.012h0c0,.015.006.031.009.043a.374.374,0,0,0,.012.055.324.324,0,0,0,.013.055c0,.019.006.037.009.059,0,0,0,.006,0,.012s.006.034.009.053l.009.055c0,.019.006.04.009.059s.006.037.009.059.006.037.009.056a.331.331,0,0,0,.006.059.429.429,0,0,1,.006.059c0,.018.006.04.009.059s0,.04.006.059v.016a.419.419,0,0,1,.006.059c0,.022,0,.04,0,.062s0,.04.006.059a.4.4,0,0,0,0,.061.38.38,0,0,0,0,.059v.062l-.052,7.574a2.109,2.109,0,0,0,.021.241,2.555,2.555,0,0,0,.04.256c.015.083.034.17.055.253a3.827,3.827,0,0,0,1.043,1.818l0,0c.049.05.1.1.154.139s.1.089.16.129.114.083.173.12c0,0,.006,0,.009.006.052.037.1.068.158.1a3.364,3.364,0,0,0,4.345-.809A4.582,4.582,0,0,0,632.789,503.883Z" transform="translate(0 0)" fill="#fff"/>
  </g>
</svg>
