<svg xmlns="http://www.w3.org/2000/svg" xmlns:xlink="http://www.w3.org/1999/xlink" width="155.889" height="23.338" viewBox="0 0 155.889 23.338">
  <defs>
    <linearGradient id="linear-gradient" x1="0.21" y1="-1.506" x2="0.658" y2="1.692" gradientUnits="objectBoundingBox">
      <stop offset="0.309" stop-color="#48edf1"/>
      <stop offset="1" stop-color="#0c9df1"/>
    </linearGradient>
  </defs>
  <g id="Group_11" data-name="Group 11" transform="translate(-609.15 -484.898)">
    <g id="Group_10" data-name="Group 10" transform="translate(641.468 490.548)">
      <g id="Group_9" data-name="Group 9" transform="translate(0)">
        <path id="Path_4" data-name="Path 4" d="M768.32,522.22a1.306,1.306,0,0,1-.484,1.023,1.638,1.638,0,0,1-1.105.42,1.408,1.408,0,0,1-.767-.219,1.48,1.48,0,0,1-.548-.658l-.822-1.845h-5.918l-.84,1.845a1.428,1.428,0,0,1-1.334.877,1.705,1.705,0,0,1-1.123-.42,1.287,1.287,0,0,1-.5-1.023,1.575,1.575,0,0,1,.164-.676l4.822-9.9a1.7,1.7,0,0,1,.7-.758,2.126,2.126,0,0,1,2.055,0,1.685,1.685,0,0,1,.712.758l4.822,9.9A1.575,1.575,0,0,1,768.32,522.22Zm-8.512-3.8h3.653l-1.827-4.074Z" transform="translate(-754.876 -510.565)" fill="#474747"/>
        <path id="Path_5" data-name="Path 5" d="M833.361,522.776a5.535,5.535,0,0,1-2.247-2.3,8.1,8.1,0,0,1,0-7,5.538,5.538,0,0,1,2.247-2.3,7.458,7.458,0,0,1,7.462.42,1.417,1.417,0,0,1,.447.475,1.388,1.388,0,0,1,.137.658,1.471,1.471,0,0,1-.32.959.969.969,0,0,1-.776.393,1.4,1.4,0,0,1-.493-.082,2.977,2.977,0,0,1-.511-.265,5.189,5.189,0,0,0-1.206-.548,4.171,4.171,0,0,0-1.169-.164,2.935,2.935,0,0,0-2.42.977,5.976,5.976,0,0,0,0,5.955,2.934,2.934,0,0,0,2.42.977,3.271,3.271,0,0,0,1.059-.174q.511-.174,1.315-.539.384-.2.566-.274a1.185,1.185,0,0,1,.438-.073.97.97,0,0,1,.776.393,1.472,1.472,0,0,1,.32.959,1.244,1.244,0,0,1-.584,1.132,7.458,7.458,0,0,1-7.462.42Z" transform="translate(-813.588 -510.373)" fill="#474747"/>
        <path id="Path_6" data-name="Path 6" d="M910.564,511.15a1.618,1.618,0,0,1,.447,1.2v9.773a1.648,1.648,0,0,1-.447,1.206,1.6,1.6,0,0,1-1.2.457,1.616,1.616,0,0,1-1.2-.448,1.642,1.642,0,0,1-.447-1.215v-3.653h-5.261v3.653a1.647,1.647,0,0,1-.447,1.206,1.6,1.6,0,0,1-1.2.457,1.616,1.616,0,0,1-1.2-.448,1.641,1.641,0,0,1-.447-1.215v-9.773a1.645,1.645,0,1,1,3.288,0V515.8h5.261v-3.453a1.694,1.694,0,0,1,2.84-1.2Z" transform="translate(-867.173 -510.63)" fill="#474747"/>
        <path id="Path_7" data-name="Path 7" d="M975.066,523.335a1.64,1.64,0,0,1-.448-1.215v-9.773a1.617,1.617,0,0,1,.448-1.2,1.642,1.642,0,0,1,1.215-.447,1.7,1.7,0,0,1,1.242.447,1.6,1.6,0,0,1,.457,1.2v9.773a1.623,1.623,0,0,1-.457,1.215,1.7,1.7,0,0,1-1.242.448A1.64,1.64,0,0,1,975.066,523.335Z" transform="translate(-925.884 -510.63)" fill="#474747"/>
        <path id="Path_8" data-name="Path 8" d="M1012.249,523.591a1.556,1.556,0,0,1-.4-1.151v-9.773a1.4,1.4,0,0,1,1.553-1.553h6.32a1.84,1.84,0,0,1,1.187.329,1.157,1.157,0,0,1,.4.95q0,1.315-1.589,1.315h-4.6v2.448h4.238q1.589,0,1.589,1.3a1.157,1.157,0,0,1-.4.95,1.842,1.842,0,0,1-1.188.329h-4.238V521.4h4.6q1.589,0,1.589,1.315a1.157,1.157,0,0,1-.4.95,1.841,1.841,0,0,1-1.187.329h-6.32A1.555,1.555,0,0,1,1012.249,523.591Z" transform="translate(-954.856 -510.95)" fill="#474747"/>
        <path id="Path_9" data-name="Path 9" d="M1079.168,510.922a1.533,1.533,0,0,1,.8-.219,1.863,1.863,0,0,1,1.187.42,1.3,1.3,0,0,1,.53,1.06,1.426,1.426,0,0,1-.164.639l-4.823,9.956a1.681,1.681,0,0,1-.712.758,2.109,2.109,0,0,1-2.046,0,1.684,1.684,0,0,1-.712-.758l-4.822-9.956a1.4,1.4,0,0,1-.146-.639,1.293,1.293,0,0,1,.548-1.05,1.937,1.937,0,0,1,1.224-.429,1.582,1.582,0,0,1,.813.219,1.423,1.423,0,0,1,.575.658l3.6,7.782,3.58-7.782A1.439,1.439,0,0,1,1079.168,510.922Z" transform="translate(-998.761 -510.63)" fill="#474747"/>
        <path id="Path_10" data-name="Path 10" d="M1146.38,523.335a1.641,1.641,0,0,1-.448-1.215v-9.773a1.618,1.618,0,0,1,.448-1.2,1.641,1.641,0,0,1,1.215-.447,1.7,1.7,0,0,1,1.242.447,1.6,1.6,0,0,1,.457,1.2v9.773a1.623,1.623,0,0,1-.457,1.215,1.7,1.7,0,0,1-1.242.448A1.64,1.64,0,0,1,1146.38,523.335Z" transform="translate(-1059.204 -510.63)" fill="#474747"/>
        <path id="Path_11" data-name="Path 11" d="M1184.7,522.767a5.543,5.543,0,0,1-2.238-2.3,8.184,8.184,0,0,1,0-7,5.489,5.489,0,0,1,2.238-2.293,7.7,7.7,0,0,1,6.85,0,5.434,5.434,0,0,1,2.228,2.293,8.226,8.226,0,0,1-.009,7,5.542,5.542,0,0,1-2.238,2.3,7.582,7.582,0,0,1-6.831,0Zm5.708-2.795a4.736,4.736,0,0,0,.822-3,4.661,4.661,0,0,0-.831-3,3.059,3.059,0,0,0-4.558-.009,5.922,5.922,0,0,0,0,6.019,3.051,3.051,0,0,0,4.567-.009Z" transform="translate(-1087.022 -510.373)" fill="#474747"/>
        <path id="Path_12" data-name="Path 12" d="M1271.292,511.16a1.625,1.625,0,0,1,.448,1.187v9.773a1.667,1.667,0,0,1-.439,1.206,1.5,1.5,0,0,1-1.133.457,1.468,1.468,0,0,1-1.242-.548l-5.553-6.923v5.809a1.711,1.711,0,0,1-.42,1.206,1.463,1.463,0,0,1-1.132.457,1.5,1.5,0,0,1-1.132-.457,1.666,1.666,0,0,1-.439-1.206v-9.773a1.642,1.642,0,0,1,.439-1.187,1.5,1.5,0,0,1,1.132-.457,1.48,1.48,0,0,1,1.224.548l5.553,6.9v-5.809a1.656,1.656,0,0,1,.429-1.2,1.486,1.486,0,0,1,1.123-.447A1.53,1.53,0,0,1,1271.292,511.16Z" transform="translate(-1148.169 -510.63)" fill="#474747"/>
      </g>
    </g>
    <ellipse id="Ellipse_2" data-name="Ellipse 2" cx="2.631" cy="2.631" rx="2.631" ry="2.631" transform="translate(617.761 492.706)" fill="#396fef"/>
    <path id="Path_13" data-name="Path 13" d="M642.627,540.861a3.243,3.243,0,0,0-.836-2.1,2.519,2.519,0,0,0-4.195,1.819l-.07,1.282h0l-.015-.006-.047-.023-.046-.023-.041-.021-.042-.023-.045-.025-.044-.025-.044-.026-.044-.026-.044-.027-.043-.027-.043-.027-.031-.02-.04-.028-.042-.03-.041-.03-.041-.03-.041-.03-.041-.031-.041-.031-.04-.031-.026-.021v0l-.033-.027-.009-.009-.03-.024-.012-.012-.026-.022-.014-.015-.023-.019-.017-.017-.02-.017-.02-.021-.017-.014-.023-.023-.014-.012-.026-.026-.011-.009-.029-.029-.008-.006-.018-.018-.034-.036-.035-.037-.034-.037-.034-.038-.034-.038-.034-.038-.034-.039-.033-.039c-.011-.013-.021-.026-.033-.039l-.022-.027-.028-.035-.031-.041-.031-.041-.023-.03-.008-.011-.03-.041-.03-.042-.03-.042-.029-.042-.029-.042-.029-.043-.02-.03c-.008-.014-.018-.027-.026-.041l-.027-.044c-.009-.015-.018-.029-.027-.044L635.54,540l-.026-.044-.026-.045-.026-.045-.025-.045-.025-.046c-.008-.015-.016-.031-.025-.046s-.013-.026-.02-.038-.014-.027-.021-.04l-.023-.047c-.007-.016-.015-.031-.023-.047l-.023-.047-.022-.047-.022-.047-.022-.048-.021-.048c-.007-.016-.013-.032-.021-.048s-.013-.033-.021-.049-.013-.033-.021-.048-.009-.026-.015-.038-.012-.031-.018-.047-.013-.033-.019-.05-.012-.033-.018-.049-.012-.033-.018-.05l-.017-.05-.017-.049c-.006-.017-.011-.034-.017-.05l-.017-.05-.016-.05c-.006-.017-.01-.034-.016-.05s-.01-.034-.016-.051-.007-.027-.012-.04-.01-.033-.014-.049-.01-.034-.014-.052-.009-.034-.013-.051-.009-.034-.013-.051-.009-.034-.013-.052l-.013-.052c0-.017-.008-.034-.012-.052l-.012-.052c0-.017-.007-.035-.012-.052s-.007-.035-.011-.052-.007-.035-.011-.052,0-.029-.008-.043-.007-.033-.009-.05-.006-.035-.009-.053-.006-.035-.009-.053-.006-.035-.008-.053l-.008-.053c0-.018,0-.035-.008-.053s0-.035-.008-.053,0-.035-.007-.053,0-.035-.007-.053,0-.035-.007-.053,0-.036-.006-.053,0-.03,0-.045,0-.032,0-.049,0-.036,0-.054,0-.036,0-.053,0-.036,0-.053,0-.036,0-.054,0-.036,0-.054,0-.036,0-.054,0-.036,0-.054,0-.036,0-.054,0-.036,0-.054,0-.036,0-.054,0-.029,0-.044,0-.033,0-.049,0-.036,0-.054,0-.036,0-.054,0-.036,0-.054,0-.036,0-.054,0-.036,0-.054,0-.036,0-.054,0-.036,0-.054,0-.036,0-.054,0-.036,0-.054,0-.036,0-.054,0-.026,0-.039,0-.035.005-.052,0-.036.006-.054,0-.036.006-.053,0-.036.006-.053,0-.036.007-.054,0-.035.007-.053.005-.035.007-.053.006-.035.008-.053v-.008l-.006,0c0,.012-.005.023-.009.035s-.01.043-.016.064-.009.042-.015.064-.007.034-.011.05-.009.042-.013.063-.009.043-.013.064-.008.043-.013.065-.008.043-.012.065-.008.043-.012.065-.007.043-.011.065-.007.044-.011.065-.006.043-.01.065-.006.044-.01.065-.006.044-.01.065-.005.044-.009.065,0,.036-.007.054-.005.041-.007.062,0,.044-.007.066,0,.044-.006.066,0,.044-.006.066,0,.044-.006.066,0,.044-.005.066,0,.044,0,.067,0,.044,0,.066,0,.044,0,.066,0,.044,0,.067,0,.044,0,.066,0,.037,0,.056,0,.041,0,.061,0,.044,0,.067,0,.044,0,.066,0,.044,0,.067,0,.044,0,.067,0,.044,0,.066,0,.044,0,.067,0,.044,0,.067,0,.044,0,.067,0,.044,0,.066,0,.044,0,.067,0,.037,0,.055,0,.04,0,.061,0,.044.006.067,0,.044.006.066,0,.044.007.066,0,.044.006.066.005.044.007.066.006.044.008.067.006.044.008.066.006.044.008.067.007.044.009.066.007.044.009.066.006.032.007.048.007.043.011.064.008.044.012.066.008.044.012.066.008.044.013.065l.013.065.013.066c0,.022.009.043.014.065s.01.044.014.066.01.043.014.065.011.043.015.065.01.038.014.057.008.033.013.049.011.043.017.064.012.043.018.065.012.043.018.064l.019.064.019.064.02.064c.007.021.014.043.02.064s.015.042.021.063.014.042.021.064.014.039.02.059.009.028.015.042.016.042.024.063.016.041.024.062.016.041.025.062.016.041.025.062l.025.062.026.062c.009.021.018.041.026.062s.018.041.027.062.019.04.027.061.017.036.025.054.012.026.018.039.02.041.03.061.02.04.03.06.02.04.03.06l.031.06.031.059.032.059c.011.02.022.039.032.059s.022.039.033.058.023.039.033.059.012.02.018.03.022.037.034.055.023.038.035.057.024.038.036.057l.036.056.037.057.037.056.038.056.039.056.038.055.022.03.022.03.013.018c.014.018.027.036.041.054s.028.036.042.054l.042.053.042.053.043.053.044.052.043.052c.014.017.029.034.043.051s.03.033.044.051l.012.014,0,0c.014.014.025.029.038.043l.01.009c.013.013.023.027.035.04l.013.012c.011.011.021.024.032.036l.017.015c.01.01.019.022.029.033s.014.012.02.018.017.02.026.029l.023.021.024.026c.009.009.018.016.027.025s.015.018.024.026.022.019.032.03l.02.022c.012.012.025.022.036.034l.016.018c.013.013.027.024.041.037l.012.014c.015.014.03.027.045.041l0,0,.039.036c.018.015.035.032.054.047l.054.047.054.046.054.046.055.045.055.045.055.044.055.044c.016.013.033.023.049.037l.037.028.056.04.056.039.056.039.057.038.057.038.057.037.057.037c.019.013.039.024.058.036l.03.018c.018.01.035.021.053.031l.058.033.058.032.058.032.058.031.059.031.059.03.059.03c.018.009.037.017.055.027l.025.012.059.026.059.026.06.026.059.025h0l.056.023.06.024.06.023.06.023.024.009.054.019.061.02.061.019.061.019.061.018.061.018.061.017.061.017.061.016.014,0,.061.014.062.013.062.013.062.013.062.012.062.011.062.011.062.011.061.01.012,0,.062.008.062.007.062.007.063.006.062.006.062.005.063,0,.063,0,.063,0h.014l.058,0h.375l.063,0,.062,0,.063,0h.005l.065,0,.063-.005.062-.006.062-.006.062-.007.062-.007.062-.008.062-.008.062-.008.062-.009.012,0,.057-.009.062-.011.062-.012.062-.012.061-.013.062-.013.061-.014.062-.014.061-.014.061-.015.061-.015.007,0,.058-.016.061-.018.061-.018.029-.009Z" transform="translate(-19.708 -39.474)" fill="#396fef"/>
    <path id="Path_14" data-name="Path 14" d="M632.855,503.935l-.3-7.49a3.37,3.37,0,0,0-.034-.35c0-.022,0-.043-.006-.068s0-.047-.006-.068-.006-.046-.009-.068-.006-.047-.009-.068-.006-.047-.009-.071a.573.573,0,0,0-.009-.068c0-.022-.006-.044-.009-.065s-.006-.046-.009-.068-.006-.047-.009-.068-.009-.047-.012-.068l-.009-.065c0-.025-.009-.046-.012-.068s-.009-.043-.012-.065a3.139,3.139,0,0,0-.065-.343.569.569,0,0,0-.012-.068c0-.022-.009-.043-.012-.065s-.009-.043-.016-.065-.009-.043-.012-.065-.009-.043-.016-.065-.009-.043-.015-.065-.009-.043-.016-.065-.009-.043-.016-.065-.009-.043-.016-.065-.012-.04-.019-.062a.489.489,0,0,0-.015-.065c-.006-.021-.012-.043-.019-.062a3.014,3.014,0,0,0-.093-.334l-.019-.065c-.006-.019-.013-.04-.019-.062l-.018-.062c-.006-.022-.012-.043-.019-.062s-.015-.043-.022-.062-.012-.043-.019-.062-.015-.043-.022-.062a.5.5,0,0,0-.022-.062c-.006-.022-.012-.04-.019-.062a.431.431,0,0,1-.022-.059.5.5,0,0,1-.022-.062c-.009-.022-.016-.04-.025-.059s-.016-.04-.022-.062c-.037-.108-.077-.217-.124-.322-.009-.022-.015-.04-.025-.059s-.016-.04-.022-.062-.016-.037-.025-.059-.016-.037-.025-.059-.016-.037-.025-.056-.015-.04-.025-.059-.019-.04-.025-.059-.019-.04-.028-.059a.432.432,0,0,0-.025-.056c-.009-.022-.019-.04-.028-.059s-.018-.037-.025-.056-.019-.04-.028-.059l-.028-.056-.028-.056c-.047-.105-.1-.207-.155-.31l-.028-.056-.028-.056a.5.5,0,0,1-.031-.056c-.009-.016-.019-.034-.028-.053a.506.506,0,0,1-.031-.056.3.3,0,0,0-.031-.052.553.553,0,0,0-.031-.056.305.305,0,0,0-.031-.053.479.479,0,0,0-.031-.056.444.444,0,0,0-.031-.052c-.009-.019-.021-.034-.031-.053s-.022-.034-.031-.053a.5.5,0,0,0-.034-.053,2.946,2.946,0,0,0-.183-.294l-.031-.049c-.012-.019-.022-.037-.034-.053l-.034-.053c-.012-.016-.022-.034-.034-.05l-.034-.053c-.012-.015-.022-.034-.034-.049s-.022-.034-.034-.05-.025-.034-.037-.049a.442.442,0,0,0-.034-.053.289.289,0,0,1-.034-.05l-.037-.046c-.013-.019-.025-.034-.037-.049a.27.27,0,0,0-.034-.049c-.012-.016-.025-.031-.037-.05l-.037-.046c-.065-.1-.136-.186-.211-.275-.015-.016-.025-.031-.04-.046a.485.485,0,0,0-.037-.046l-.037-.047c-.012-.015-.025-.034-.037-.049a.48.48,0,0,1-.04-.044l-.037-.046a.493.493,0,0,1-.04-.046.531.531,0,0,0-.04-.047l-.037-.046a.48.48,0,0,1-.04-.043c-.012-.016-.028-.031-.04-.046s-.028-.028-.04-.043-.028-.028-.04-.043-.028-.031-.04-.046a.6.6,0,0,1-.043-.043,3.09,3.09,0,0,0-.238-.251c-.012-.012-.025-.028-.037-.04a0,0,0,0,1,0,0,.425.425,0,0,1-.037-.037l-.006-.006a.353.353,0,0,1-.034-.034s-.006-.006-.009-.006a.346.346,0,0,0-.028-.034.038.038,0,0,1-.012-.009c-.009-.009-.019-.022-.028-.031a.031.031,0,0,1-.016-.012c-.009-.006-.015-.018-.025-.025s-.012-.009-.018-.015-.016-.016-.022-.025-.016-.009-.022-.016a.128.128,0,0,0-.019-.022c-.009-.009-.015-.012-.025-.022a.108.108,0,0,0-.019-.019c-.006-.006-.016-.012-.025-.021s-.009-.009-.015-.016-.019-.016-.028-.025a.067.067,0,0,1-.012-.016.238.238,0,0,1-.031-.025l-.012-.012c-.009-.009-.022-.019-.031-.028l-.009-.009a.324.324,0,0,1-.034-.028l-.009-.009a.183.183,0,0,0-.037-.031s0,0,0-.006-.028-.022-.04-.034a0,0,0,0,1,0,0c-.084-.077-.17-.152-.26-.22a.582.582,0,0,0-.043-.04.531.531,0,0,1-.047-.037l-.043-.037-.046-.037-.046-.037-.047-.037-.046-.037-.047-.034-.046-.037a.508.508,0,0,0-.046-.034l-.046-.037c-.015-.013-.034-.022-.05-.034a.445.445,0,0,0-.046-.034l-.046-.037a.023.023,0,0,1-.012-.006l-.037-.028c-.016-.012-.031-.022-.047-.034-.09-.068-.182-.13-.275-.189-.015-.009-.031-.022-.05-.034l-.046-.031c-.019-.013-.034-.022-.05-.034l-.049-.031c-.016-.009-.031-.022-.049-.031s-.031-.022-.049-.034l-.049-.031-.05-.031-.049-.031c-.016-.009-.031-.019-.049-.028a.461.461,0,0,0-.05-.031.414.414,0,0,0-.049-.031l-.053-.028a.263.263,0,0,0-.05-.031l-.049-.028-.053-.028a.373.373,0,0,0-.049-.028,2.838,2.838,0,0,0-.285-.158l-.053-.028a.42.42,0,0,0-.052-.025l-.05-.028-.052-.028a.405.405,0,0,1-.053-.025.291.291,0,0,0-.053-.025c-.015-.009-.034-.018-.052-.028s-.034-.015-.05-.025-.037-.016-.053-.025-.037-.016-.052-.025-.037-.016-.053-.025-.037-.016-.056-.025-.034-.016-.052-.022-.034-.015-.053-.025a.263.263,0,0,0-.053-.022c-.018-.009-.037-.015-.053-.025a2.664,2.664,0,0,0-.294-.121.414.414,0,0,0-.056-.022.261.261,0,0,0-.053-.022.375.375,0,0,0-.053-.021c-.018-.006-.037-.016-.056-.022s-.034-.015-.053-.022l-.056-.019c-.018-.006-.034-.015-.052-.021l-.056-.019-.053-.019-.056-.018c-.018-.009-.037-.012-.056-.022s-.037-.009-.056-.015a.259.259,0,0,0-.053-.019l-.056-.018-.056-.019c-.019-.006-.037-.009-.056-.016a2.614,2.614,0,0,0-.3-.09l-.053-.018a27.033,27.033,0,0,0-.112-.031.363.363,0,0,1-.056-.016c-.018,0-.037-.009-.056-.012a.36.36,0,0,0-.056-.016c-.018-.006-.037-.009-.056-.016s-.037-.009-.056-.012-.04-.009-.059-.016a.336.336,0,0,1-.056-.012c-.019,0-.037-.009-.056-.012a.369.369,0,0,0-.056-.013.376.376,0,0,0-.056-.012.386.386,0,0,1-.056-.012.351.351,0,0,1-.059-.013c-.1-.025-.2-.043-.3-.059l-.053-.009h0l-.056-.009a.472.472,0,0,0-.059-.009c-.019,0-.037-.009-.056-.012l-.056-.009c-.021,0-.04-.006-.059-.006l-.056-.009-.059-.009A.366.366,0,0,0,622,485l-.056-.009c-.021,0-.04,0-.059-.006s-.037,0-.056-.006a.433.433,0,0,0-.059-.006.341.341,0,0,0-.056-.006c-.022,0-.04,0-.059-.006a2.624,2.624,0,0,0-.306-.028c-.019,0-.037,0-.056-.006s-.037,0-.059,0-.037,0-.056,0-.04,0-.059-.006a.332.332,0,0,1-.056,0,.357.357,0,0,1-.059,0,.329.329,0,0,1-.056,0h-.059a.357.357,0,0,0-.059,0h-.056a.392.392,0,0,0-.059,0H620.6a.375.375,0,0,0-.059,0,.336.336,0,0,0-.056,0,2.525,2.525,0,0,0-.306,0h-.056a.358.358,0,0,0-.059,0h-.059a.331.331,0,0,1-.056,0l-.059,0c-.019,0-.037,0-.059,0s-.037,0-.056,0l-.059,0c-.019,0-.037,0-.056.006s-.04,0-.059,0a.394.394,0,0,0-.059.006c-.019,0-.037,0-.056,0a.4.4,0,0,1-.059.006c-.019,0-.037.006-.056.006-.1.006-.2.019-.3.034-.018,0-.037,0-.056.006l-.059.009a.461.461,0,0,0-.059.006l-.056.009c-.019,0-.037,0-.059.006l-.056.009-.059.009-.056.009c-.019,0-.037.009-.059.012l-.056.009a.511.511,0,0,0-.059.012l-.056.009c-.019,0-.037.009-.059.012-.1.016-.2.037-.294.062a.41.41,0,0,1-.059.012c-.018.006-.037.009-.056.016a.356.356,0,0,0-.056.012c-.022,0-.04.009-.059.012s-.037.009-.056.015a.377.377,0,0,0-.056.015c-.022,0-.04.009-.059.013a.349.349,0,0,1-.056.015.343.343,0,0,1-.056.016l-.059.019a.381.381,0,0,0-.056.015.363.363,0,0,1-.056.016l-.056.018-.056.019a1.436,1.436,0,0,0-.152.049h0c-.045.015-.091.027-.136.044l-.056.019-.056.019-.056.019-.056.02-.055.02-.056.021-.055.021-.056.021-.055.022-.055.022-.055.023-.055.023c-.023.009-.045.02-.067.029a2.9,2.9,0,0,0-.267.117l-.054.024-.054.025-.055.026-.054.026-.054.026-.054.027-.054.027-.054.027-.054.028-.054.028-.053.029-.054.029a2.945,2.945,0,0,0-.268.15c-.017.01-.036.019-.053.03l-.052.03-.052.031-.053.032-.053.032-.052.032-.052.033-.052.033-.052.033-.052.034-.052.034-.052.035-.051.035a3.032,3.032,0,0,0-.255.178c-.017.012-.034.023-.051.036s-.034.024-.051.037l-.05.037-.051.038-.05.038-.05.038-.05.039-.05.039-.049.04-.05.04-.049.04-.049.041c-.017.013-.032.028-.049.041a3.13,3.13,0,0,0-.238.206c-.016.015-.033.028-.049.043s-.032.028-.048.043l-.048.043-.048.044-.048.044-.047.045-.047.045-.047.046-.047.046-.047.046-.047.047-.046.048c-.016.015-.031.032-.046.048q-.114.109-.22.232h0c-.014.015-.029.028-.042.044l0,0c-.012.014-.026.026-.039.041l-.006.008c-.012.013-.024.024-.036.038l-.009.012c-.01.012-.022.022-.033.035l-.012.016c-.01.011-.02.02-.03.031l-.015.019c-.008.01-.018.018-.027.028l-.017.023c-.008.009-.016.016-.024.025s-.013.018-.02.026l-.021.022c-.008.01-.015.02-.023.03L612,488.9c-.009.011-.017.023-.026.034l-.015.016c-.01.012-.018.025-.029.037l-.012.013c-.011.013-.021.027-.031.041l-.009.009c-.011.013-.021.028-.032.041l0,0c-.012.014-.022.029-.033.043l0,0c-.069.081-.134.165-.194.251-.012.016-.025.032-.037.049s-.025.032-.037.049-.025.032-.036.049l-.036.05-.036.049-.036.049-.035.05-.035.05-.035.05-.034.05-.034.051c-.012.017-.023.034-.034.052s-.023.035-.035.053l-.035.053c-.012.018-.022.036-.035.053a3.094,3.094,0,0,0-.167.266c-.011.018-.023.036-.034.054s-.022.036-.033.054-.023.036-.033.055-.022.036-.032.055-.022.036-.032.055l-.031.055-.031.055c-.011.018-.021.037-.031.055l-.03.055c-.01.018-.02.037-.03.056s-.02.037-.03.056-.019.037-.029.056-.019.037-.029.056a3.081,3.081,0,0,0-.138.276c-.009.019-.019.037-.028.057s-.019.037-.027.056-.019.038-.027.057-.018.038-.026.057-.018.038-.026.057l-.026.057c-.009.019-.017.038-.025.057l-.025.057-.025.057c-.009.019-.016.038-.024.058s-.016.038-.024.058-.015.039-.023.058-.015.039-.023.058-.015.039-.023.058q-.061.139-.109.283c-.007.02-.015.039-.022.059s-.015.038-.021.058-.015.039-.021.059-.014.039-.02.059-.014.039-.02.059-.014.039-.02.059l-.02.059-.019.059-.008.024-.011.035c-.007.02-.013.039-.018.059s-.012.04-.018.059-.011.04-.018.059-.011.04-.017.059c-.014.043-.025.087-.037.131-.022.072-.043.144-.06.218-.005.02-.011.04-.016.06s-.011.04-.016.06-.011.04-.015.06-.01.04-.015.06-.01.04-.014.06-.01.04-.014.06-.01.04-.014.06-.009.04-.013.06-.009.04-.013.06-.008.04-.013.061-.008.04-.012.06-.008.04-.012.06-.007.04-.012.061-.007.04-.011.06q-.033.145-.052.292c0,.02-.008.041-.011.061s-.007.04-.01.06-.007.04-.009.061-.007.041-.009.061-.006.04-.009.061-.006.04-.009.061-.006.041-.008.061-.005.041-.008.061,0,.041-.007.061,0,.04-.007.061,0,.041-.007.061,0,.041-.006.061,0,.041-.006.061,0,.041-.006.061c-.013.1-.021.2-.025.293,0,.02,0,.041,0,.061s0,.041,0,.061,0,.041,0,.061,0,.041,0,.061,0,.041,0,.061,0,.041,0,.061,0,.041,0,.061,0,.041,0,.061,0,.04,0,.061,0,.041,0,.061,0,.041,0,.061,0,.041,0,.061,0,.041,0,.061,0,.041,0,.061,0,.041,0,.061q-.005.146,0,.291c0,.02,0,.041,0,.061s0,.04,0,.061,0,.041,0,.061,0,.041,0,.061,0,.04,0,.061,0,.041,0,.061,0,.041,0,.061,0,.04,0,.061,0,.041,0,.061,0,.041,0,.061,0,.04,0,.06,0,.04,0,.061,0,.04.005.061,0,.04.005.061q.007.144.028.288c0,.02,0,.04.006.06s0,.04.007.06,0,.04.007.06,0,.04.007.06,0,.04.008.06,0,.04.008.06.005.04.008.06.005.04.008.06l.009.06c0,.02.006.04.009.06s.007.04.01.06.007.039.01.059.007.04.01.06.007.04.011.06.008.039.011.059c.014.095.032.189.055.282,0,.02.007.039.012.059s.007.04.012.059.008.04.013.059.008.039.013.059.008.039.013.059.009.039.013.059.009.039.014.059.009.039.014.058.009.039.015.059.01.039.015.058.01.039.015.058.01.039.015.058.011.039.016.058.011.039.016.058.011.039.016.058.012.038.017.058c.01.042.025.083.037.125s.017.062.027.092.011.039.017.057.011.038.017.057.011.038.018.057.012.038.018.057.012.038.018.057.012.038.019.057.012.038.019.057l.02.057c.006.019.013.038.02.057s.013.037.02.056.014.038.02.056.014.037.021.056.014.037.021.056.014.037.021.056.015.037.021.055.015.037.022.056.011.026.016.039c.022.057.043.114.068.17.008.018.014.037.022.055s.015.037.023.055.015.037.023.055.015.035.023.052v0c.008.018.015.037.024.055l.024.055.024.054.025.054.025.054.025.054c.008.018.017.036.025.054l.026.053c.008.018.018.035.026.053s.018.036.027.053.018.035.027.053q.059.129.131.253c.01.017.018.035.028.052s.018.035.028.052.018.035.028.052l.029.052.029.051.029.051.029.051.03.051.03.051.03.051.031.05c.01.017.021.033.031.05l.032.05c.01.017.021.033.031.05s.022.033.032.05q.072.122.156.239c.011.016.021.033.033.049l.033.048c.011.016.021.033.033.048l.033.048.034.048.034.048.034.048.035.047.035.047c.011.016.023.031.035.047s.024.031.036.047.024.031.036.046.024.031.036.046.025.03.036.046l.007.008c.044.058.088.116.137.17.013.015.024.031.037.045s.024.03.037.045.024.03.038.045.025.03.038.044l.038.045.038.044.039.044.039.044.039.043.04.043.04.043c.013.015.027.028.04.043s.027.028.04.042.028.028.041.042a2.838,2.838,0,0,0,.2.2l0,0c.013.012.023.025.036.037l0,0c.012.011.022.023.034.035l.008.006.031.032.011.009.029.029.014.012.026.026.017.014.023.024.02.016.02.02.023.019.017.018c.008.008.018.014.026.022l.015.015.029.024.012.012.032.027.009.009c.011.01.024.019.035.029l.007.006c.012.012.026.021.038.032l0,0c.013.012.028.022.041.034h0a2.74,2.74,0,0,0,.222.183l.046.037.046.036.046.036.046.036.047.036.047.035.047.035.048.035.048.034.048.034.049.034.049.033a2.745,2.745,0,0,0,.234.156l.049.032.05.032.05.031.05.031.051.031.051.031.051.03.052.03.051.029.052.029c.017.01.035.019.052.029s.035.019.053.029a2.68,2.68,0,0,0,.243.128l.053.028.053.027.054.027.054.026.054.026.055.026.055.025.055.025.011,0,.044.02.055.024.056.024.056.023a2.608,2.608,0,0,0,.251.1l.057.022.057.022.057.021.057.021.058.02.058.02.059.02.059.019.059.019.059.018c.019.007.04.012.059.018a2.58,2.58,0,0,0,.256.075c.02.005.04.012.06.017l.06.016.061.016.061.015.061.015.062.015.062.014.062.014.062.013.062.013c.021.005.042.008.063.012a2.612,2.612,0,0,0,.26.049l.063.011.063.011.064.01.064.01.064.009.065.009.064.008.065.008.065.007.066.007.066.007c.087.012.174.02.261.023l.066.005.066,0,.066,0,.067,0,.067,0,.067,0,.068,0,.068,0h.2c.087,0,.174,0,.261,0h.069l.069,0,.069,0,.07,0,.07,0,.07,0,.07,0,.071,0,.071-.005.071-.006c.024,0,.047,0,.071-.006a2.783,2.783,0,0,0,1.9-.9,2.7,2.7,0,0,0,.671-1.947c0-.019,0-.038,0-.057s0-.038,0-.057,0-.038,0-.058,0-.038,0-.057,0-.038,0-.057v-.007l-.029.009-.061.018-.061.017-.058.016-.007,0-.061.015-.061.015-.061.014-.061.014-.061.013-.062.013-.062.013-.062.012-.062.012-.062.011-.056.01-.012,0-.062.009-.062.008-.062.008-.062.008-.062.007-.062.007-.062.006-.062.006-.062.005-.062,0h-.008l-.063,0-.062,0-.063,0h-.375l-.058,0h-.014l-.062,0-.062,0-.063,0-.062-.005-.062-.006-.062-.006-.062-.007-.062-.007-.062-.008-.012,0-.061-.01-.063-.011-.062-.011-.062-.012-.062-.012-.062-.012-.062-.013-.062-.013-.061-.014-.014,0-.061-.016-.061-.017-.061-.017-.061-.018-.061-.018-.061-.019-.061-.019-.061-.02L619.2,505l-.024-.009-.06-.023-.06-.023-.06-.024-.056-.023,0,0-.06-.025-.06-.026-.059-.026-.059-.026-.025-.012-.055-.027-.059-.03-.059-.03-.058-.031-.059-.031-.058-.032-.058-.032-.058-.033c-.018-.01-.035-.022-.054-.031l-.029-.018-.058-.036-.057-.037-.057-.037-.057-.038-.057-.039-.056-.039-.056-.039-.056-.04-.037-.028c-.016-.013-.033-.024-.049-.037l-.055-.044-.055-.044-.055-.045-.055-.045-.054-.046-.054-.046-.054-.047-.054-.047c-.013-.012-.026-.025-.039-.036l0-.005c-.014-.015-.03-.027-.045-.041l-.012-.013c-.013-.013-.027-.024-.041-.037L617,503.6c-.012-.012-.025-.022-.036-.033l-.02-.022-.032-.03-.023-.026-.027-.025-.024-.026-.023-.021-.026-.029-.02-.018c-.01-.01-.019-.022-.029-.033l-.017-.015c-.011-.012-.021-.025-.032-.036l-.013-.012c-.012-.013-.023-.027-.035-.039l-.01-.009c-.013-.014-.025-.029-.038-.043l0,0-.013-.014c-.014-.017-.029-.034-.044-.051l-.043-.051-.043-.052-.044-.053-.043-.053-.043-.053-.042-.053c-.014-.018-.027-.036-.042-.054s-.027-.036-.041-.054l-.013-.018c-.007-.01-.014-.02-.022-.03l-.022-.03-.039-.056c-.012-.019-.026-.037-.038-.056l-.038-.056-.037-.056-.037-.057-.036-.056c-.012-.019-.024-.038-.036-.057s-.023-.038-.035-.057-.021-.037-.033-.055-.012-.02-.018-.03-.023-.039-.033-.059-.022-.039-.033-.059-.021-.039-.032-.059l-.032-.059-.031-.059-.031-.06c-.01-.02-.02-.04-.03-.06s-.019-.04-.03-.06-.019-.04-.03-.06-.012-.027-.018-.04-.017-.036-.025-.054-.018-.041-.027-.061-.018-.041-.026-.062-.017-.041-.026-.061l-.026-.062c-.008-.021-.016-.041-.025-.062l-.025-.062c-.008-.021-.016-.042-.024-.062s-.015-.042-.024-.062-.015-.042-.024-.063-.009-.028-.015-.042-.014-.039-.02-.059-.014-.042-.021-.063-.014-.042-.021-.064-.013-.042-.02-.063-.013-.043-.02-.064l-.019-.064c-.006-.021-.012-.043-.019-.064s-.012-.043-.018-.064-.012-.043-.018-.064-.011-.043-.018-.064-.008-.033-.013-.049-.01-.038-.015-.058-.01-.043-.015-.065-.01-.043-.015-.065-.01-.044-.015-.066-.009-.043-.014-.065-.009-.044-.013-.065l-.013-.065c0-.022-.008-.044-.013-.066s-.007-.044-.012-.066-.007-.044-.012-.066-.006-.043-.011-.064-.005-.032-.008-.048-.006-.044-.009-.066-.006-.044-.009-.066-.005-.044-.008-.067-.005-.044-.008-.066,0-.044-.008-.067,0-.044-.007-.066,0-.044-.007-.067,0-.044-.006-.066,0-.044-.006-.066,0-.044-.006-.067,0-.04,0-.06,0-.036,0-.055,0-.045,0-.067,0-.044,0-.066,0-.045,0-.067,0-.044,0-.066,0-.044,0-.067,0-.044,0-.066,0-.044,0-.067,0-.044,0-.067,0-.044,0-.066,0-.044,0-.067,0-.041,0-.061,0-.037,0-.056,0-.044,0-.066,0-.044,0-.067,0-.044,0-.066,0-.044,0-.066,0-.044,0-.067,0-.044,0-.066,0-.044.006-.066,0-.044.006-.066,0-.044.006-.066.005-.044.007-.066.005-.041.007-.062,0-.036.007-.054.006-.043.009-.065.006-.044.01-.065.007-.044.01-.065.007-.043.01-.065.007-.044.011-.065.008-.043.011-.065.008-.043.011-.065.009-.043.012-.065.009-.043.012-.065.009-.043.013-.064.009-.042.013-.063.007-.034.011-.051.01-.043.015-.064.01-.043.015-.064.006-.023.009-.035l.007-.029.01-.039c0-.009,0-.018,0-.027s.006-.031.008-.047,0-.027.007-.04.007-.035.011-.053.007-.035.011-.053.007-.035.011-.053.008-.035.012-.053.008-.035.012-.052l.012-.053c0-.017.009-.035.013-.053l.013-.052c0-.017.009-.035.013-.052s.009-.032.013-.049.006-.023.01-.035.01-.034.016-.052.01-.034.016-.051.011-.034.016-.051l.017-.051.017-.052.017-.051c.006-.017.012-.034.018-.051s.012-.034.018-.051.013-.034.018-.051.012-.03.017-.045.008-.022.013-.033.013-.034.02-.05.014-.033.021-.05l.021-.05.021-.05.022-.05.022-.049c.008-.017.016-.033.023-.049l.023-.049c.007-.016.016-.032.023-.049s.009-.017.013-.026.016-.031.024-.046l.025-.048.026-.048.026-.048.026-.047.027-.048.027-.047.028-.047c.009-.016.019-.031.028-.047l.016-.025c.009-.013.016-.027.025-.04s.02-.031.03-.046l.031-.046.031-.045.031-.045.032-.045.032-.045.032-.044c.01-.014.022-.028.032-.043s.022-.029.032-.043l.009-.012,0,0,.028-.037.008-.008c.009-.011.017-.023.026-.034l.01-.011c.009-.01.016-.021.024-.031l.013-.013.022-.028.015-.016.019-.025.018-.018c.006-.007.011-.015.017-.023l.02-.021.017-.022.025-.026.014-.019.028-.029.012-.016c.01-.011.021-.021.031-.032l.009-.012c.011-.012.023-.023.034-.035l0,0,.029-.031c.014-.013.027-.028.041-.041l.041-.04.041-.04.041-.04.042-.039.029-.028.012-.011.042-.039.042-.038.037-.032.028-.024.043-.035.043-.035.043-.034.044-.034.044-.033.044-.033.044-.033.044-.032.023-.016.041-.028.044-.03.045-.029.045-.029.046-.029.045-.028.046-.028.046-.027.043-.025.019-.011.046-.025.046-.024.047-.024.046-.023.047-.023.047-.023.047-.022.047-.022.019-.008.042-.018.048-.019.048-.019.048-.019.048-.018.048-.018.048-.017.048-.017.049-.017.011,0,.049-.015.049-.014.049-.014.049-.014.049-.013.049-.013.049-.012.05-.012.048-.011.01,0,.05-.01.05-.009.05-.009.05-.008.05-.008.05-.008.05-.007.05-.007.05-.007h.011l.046,0,.05,0,.05,0,.05,0,.05,0,.05,0,.05,0,.051,0,.05,0h.208l.051,0,.05,0,.051,0,.05,0,.051,0,.05,0,.051,0h.009l.046,0,.05.005.051.006.05.006.05.007.051.007.05.007.05.008.05.008.05.008.05.009h.006l.047.01.05.011.05.011.05.011.05.012.05.012.049.012.05.013.049.013.049.014.049.014.044.013.007,0,.049.016.049.016.049.016.049.017.049.017.048.017.049.018.048.018.048.018.048.019.048.019.042.017,0,0,.047.021.047.021.047.021.047.022.047.022.047.022.047.023.046.023.046.024.046.023.046.024.042.023.044.025.045.026.045.026.045.027.045.027.045.027.044.027.044.028.044.028.044.028.044.029.039.026.037.026.043.031.042.031.042.031.042.032.042.032.041.032.041.032.041.033.041.033.041.033.04.033.026.022.007.007.032.028.009.01.03.026.012.012.027.023.014.015.025.022.016.017.022.019.019.02.02.017.021.022.017.015.023.024.015.013c.009.009.016.018.025.027l.012.011c.01.009.018.02.028.029l.01.008c.01.01.019.022.03.032l0,0,.024.025.036.04.035.039.036.04.019.022.016.018.035.04.035.041.034.041.034.041.034.041.034.042c.009.01.016.021.024.031s.021.027.03.04l.032.043.031.043.031.044.031.044.031.044.03.044.03.045.03.045c.01.015.019.03.029.045l.019.031,0,0c.009.016.019.031.028.047s.018.031.027.046.018.031.027.047l.027.047.027.047.026.047.026.048c.009.016.017.032.026.048s.016.032.025.048.014.029.022.043.016.032.023.048.016.033.023.05.015.033.023.05.015.033.022.05l.022.05.022.051.021.051c.008.017.014.034.022.051s.013.034.021.051v0c.005.016.012.031.018.047s.013.035.019.052.013.035.019.053.012.035.018.053l.018.053.018.053c.005.018.011.036.017.053s.011.036.017.054.01.036.016.054l0,.009c0,.016.009.031.013.047s.01.037.014.055.009.036.014.055.009.037.013.055.009.037.013.056l0,.007v.006h0c0,.015.006.031.009.043a.377.377,0,0,0,.012.056.326.326,0,0,0,.013.056c0,.019.006.037.009.059,0,0,0,.006,0,.012s.006.034.009.053l.009.055c0,.019.006.04.009.059s.006.037.009.059.006.037.009.056a.333.333,0,0,0,.007.059.421.421,0,0,1,.006.059c0,.019.006.04.009.059s0,.04.006.059v.016a.422.422,0,0,1,.006.059c0,.022,0,.04,0,.062s0,.04.006.059a.393.393,0,0,0,0,.062.383.383,0,0,0,0,.059v.062l-.053,7.595a2.109,2.109,0,0,0,.021.241,2.553,2.553,0,0,0,.04.257c.015.084.034.17.056.254a3.837,3.837,0,0,0,1.046,1.823l0,0c.05.05.1.1.155.139s.105.09.161.13.115.084.173.121c0,0,.006,0,.009.006.053.037.105.068.158.1a3.373,3.373,0,0,0,4.357-.811A4.6,4.6,0,0,0,632.855,503.935Z" fill="url(#linear-gradient)"/>
  </g>
</svg>
