<svg xmlns="http://www.w3.org/2000/svg" width="22" height="22" viewBox="0 0 22 22">
  <g id="Group_8408" data-name="Group 8408" transform="translate(-1000 -3526)">
    <path id="Path_363" data-name="Path 363" d="M1020.533,3535.487l-1.6-.47a.607.607,0,0,1-.408-.4,7.869,7.869,0,0,0-.517-1.249.609.609,0,0,1,0-.573l.8-1.465a.65.65,0,0,0-.111-.771l-1.258-1.258a.65.65,0,0,0-.771-.111l-1.465.8a.609.609,0,0,1-.573,0,7.885,7.885,0,0,0-1.249-.517.608.608,0,0,1-.4-.408l-.47-1.6a.649.649,0,0,0-.623-.467h-1.78a.649.649,0,0,0-.623.467l-.47,1.6a.608.608,0,0,1-.4.408,7.885,7.885,0,0,0-1.249.517.609.609,0,0,1-.573,0l-1.465-.8a.65.65,0,0,0-.771.111l-1.258,1.258a.65.65,0,0,0-.111.771l.8,1.465a.609.609,0,0,1,0,.573,7.869,7.869,0,0,0-.517,1.249.607.607,0,0,1-.408.4l-1.6.47a.649.649,0,0,0-.467.623v1.78a.649.649,0,0,0,.467.623l1.6.47a.607.607,0,0,1,.408.4,7.869,7.869,0,0,0,.517,1.249.609.609,0,0,1,0,.573l-.8,1.465a.65.65,0,0,0,.111.771l1.258,1.258a.65.65,0,0,0,.771.111l1.465-.8a.609.609,0,0,1,.573,0,7.885,7.885,0,0,0,1.249.517.608.608,0,0,1,.4.408l.47,1.6a.649.649,0,0,0,.623.467h1.78a.649.649,0,0,0,.623-.467l.47-1.6a.608.608,0,0,1,.4-.408,7.885,7.885,0,0,0,1.249-.517.609.609,0,0,1,.573,0l1.465.8a.65.65,0,0,0,.771-.111l1.258-1.258a.65.65,0,0,0,.111-.771l-.8-1.465a.609.609,0,0,1,0-.573,7.869,7.869,0,0,0,.517-1.249.607.607,0,0,1,.408-.4l1.6-.47a.649.649,0,0,0,.467-.623v-1.78A.649.649,0,0,0,1020.533,3535.487Z" fill="none" stroke="#ef39a6" stroke-miterlimit="10" stroke-width="2"/>
    <circle id="Ellipse_505" data-name="Ellipse 505" cx="3" cy="3" r="3" transform="translate(1008 3534)" fill="none" stroke="#ef39a6" stroke-miterlimit="10" stroke-width="2"/>
  </g>
</svg>
