<svg xmlns="http://www.w3.org/2000/svg" width="21.169" height="20.191" viewBox="0 0 21.169 20.191">
  <path id="Path_360" data-name="Path 360" d="M1259,3412.194a1.126,1.126,0,0,1-.523-.129l-5.325-2.8-5.326,2.8a1.121,1.121,0,0,1-1.628-1.182l1.018-5.932-4.31-4.2a1.122,1.122,0,0,1,.623-1.914l5.954-.865,2.664-5.4a1.168,1.168,0,0,1,2.01,0l2.664,5.4,5.954.865a1.122,1.122,0,0,1,.623,1.914l-4.31,4.2,1.018,5.932a1.121,1.121,0,0,1-1.105,1.312Zm-5.848-5.319a1.124,1.124,0,0,1,.523.129l3.836,2.017-.734-4.272a1.123,1.123,0,0,1,.323-.993l3.1-3.025-4.288-.623a1.121,1.121,0,0,1-.845-.615l-1.918-3.886-1.918,3.886a1.121,1.121,0,0,1-.845.615l-4.288.623,3.1,3.025a1.123,1.123,0,0,1,.323.993l-.734,4.272,3.836-2.017A1.125,1.125,0,0,1,1253.15,3406.875Z" transform="translate(-1242.565 -3392.002)" fill="#ef39a6"/>
</svg>
