<svg xmlns="http://www.w3.org/2000/svg" width="20.33" height="20.339" viewBox="0 0 20.33 20.339">
  <g id="Group_173" data-name="Group 173" transform="translate(-1251.94 -3249.66)">
    <path id="Path_122" data-name="Path 122" d="M1263.615,3256a4.206,4.206,0,0,1-.069.8,5.3,5.3,0,0,1-4.472,4.472,4.2,4.2,0,0,1-.8.069,5.338,5.338,0,1,1,5.338-5.337Z" fill="none" stroke="#ef39a6" stroke-linecap="round" stroke-linejoin="round" stroke-width="2"/>
    <path id="Path_123" data-name="Path 123" d="M1256.122,3255.141a2.4,2.4,0,0,1,1.5-1.37" transform="translate(-0.054 -0.053)" fill="none" stroke="#ef39a6" stroke-linecap="round" stroke-linejoin="round" stroke-width="2"/>
    <path id="Path_124" data-name="Path 124" d="M1271.376,3265.8l-3.3,3.3-8.893-7.733a5.3,5.3,0,0,0,4.472-4.472Z" transform="translate(-0.106 -0.107)" fill="none" stroke="#ef39a6" stroke-linecap="round" stroke-linejoin="round" stroke-width="2"/>
    <line id="Line_9" data-name="Line 9" y1="3.303" x2="3.303" transform="translate(1265.337 3263.067)" fill="none" stroke="#ef39a6" stroke-linecap="round" stroke-linejoin="round" stroke-width="2"/>
  </g>
</svg>
