<svg xmlns="http://www.w3.org/2000/svg" width="71.547" height="71.943" viewBox="0 0 71.547 71.943">
  <g id="Group_854" data-name="Group 854" transform="translate(-1915.592 -2937.387)">
    <g id="Group_835" data-name="Group 835">
      <path id="Path_999" data-name="Path 999" d="M1985.639,2955.912h-68.547a1.5,1.5,0,0,1-1.5-1.5v-11.5a5.534,5.534,0,0,1,5.528-5.528h60.491a5.534,5.534,0,0,1,5.528,5.528v11.5A1.5,1.5,0,0,1,1985.639,2955.912Zm-67.047-3h65.547v-10a2.531,2.531,0,0,0-2.528-2.528H1921.12a2.531,2.531,0,0,0-2.528,2.528Z" fill="#396fef"/>
    </g>
    <g id="Group_836" data-name="Group 836">
      <path id="Path_1000" data-name="Path 1000" d="M1945.96,2948.15h-21.995a1.5,1.5,0,1,1,0-3h21.995a1.5,1.5,0,0,1,0,3Z" fill="#396fef"/>
    </g>
    <g id="Group_840" data-name="Group 840">
      <g id="Group_837" data-name="Group 837">
        <path id="Path_1001" data-name="Path 1001" d="M1966.487,2948.15h-1.239a1.5,1.5,0,0,1,0-3h1.239a1.5,1.5,0,0,1,0,3Z" fill="#396fef"/>
      </g>
      <g id="Group_838" data-name="Group 838">
        <path id="Path_1002" data-name="Path 1002" d="M1972.157,2948.15h-1.239a1.5,1.5,0,0,1,0-3h1.239a1.5,1.5,0,0,1,0,3Z" fill="#396fef"/>
      </g>
      <g id="Group_839" data-name="Group 839">
        <path id="Path_1003" data-name="Path 1003" d="M1977.828,2948.15h-1.239a1.5,1.5,0,1,1,0-3h1.239a1.5,1.5,0,0,1,0,3Z" fill="#396fef"/>
      </g>
    </g>
    <g id="Group_841" data-name="Group 841">
      <path id="Path_1004" data-name="Path 1004" d="M1917.092,2979.108a1.5,1.5,0,0,1-1.5-1.5v-23.2a1.5,1.5,0,0,1,3,0v23.2A1.5,1.5,0,0,1,1917.092,2979.108Z" fill="#396fef"/>
    </g>
    <g id="Group_842" data-name="Group 842">
      <path id="Path_1005" data-name="Path 1005" d="M1985.639,2979.108a1.5,1.5,0,0,1-1.5-1.5v-23.2a1.5,1.5,0,0,1,3,0v23.2A1.5,1.5,0,0,1,1985.639,2979.108Z" fill="#396fef"/>
    </g>
    <g id="Group_843" data-name="Group 843">
      <path id="Path_1006" data-name="Path 1006" d="M1975.558,2993.521H1949.97a1.5,1.5,0,0,1-1.5-1.5v-10.568a1.5,1.5,0,0,1,1.5-1.5h25.588a1.5,1.5,0,0,1,1.5,1.5v10.568A1.5,1.5,0,0,1,1975.558,2993.521Zm-24.088-3h22.588v-7.568H1951.47Z" fill="#396fef"/>
    </g>
    <g id="Group_844" data-name="Group 844">
      <path id="Path_1007" data-name="Path 1007" d="M1949.97,2988.237h-15.007a1.5,1.5,0,0,1-1.5-1.5v-11.449a1.5,1.5,0,0,1,3,0v9.949h13.507a1.5,1.5,0,0,1,0,3Z" fill="#396fef"/>
    </g>
    <g id="Group_845" data-name="Group 845">
      <path id="Path_1008" data-name="Path 1008" d="M1975.558,3009.33h-17.067a1.5,1.5,0,0,1,0-3h15.567v-7.568H1951.47v7.568h3.02a1.5,1.5,0,0,1,0,3h-4.52a1.5,1.5,0,0,1-1.5-1.5v-10.568a1.5,1.5,0,0,1,1.5-1.5h25.588a1.5,1.5,0,0,1,1.5,1.5v10.568A1.5,1.5,0,0,1,1975.558,3009.33Z" fill="#396fef"/>
    </g>
    <g id="Group_846" data-name="Group 846">
      <path id="Path_1009" data-name="Path 1009" d="M1949.97,3004.046h-15.007a1.5,1.5,0,0,1-1.5-1.5v-4.617a1.5,1.5,0,0,1,3,0v3.117h13.507a1.5,1.5,0,0,1,0,3Z" fill="#396fef"/>
    </g>
    <g id="Group_847" data-name="Group 847">
      <path id="Path_1010" data-name="Path 1010" d="M1934.963,2993.937a1.5,1.5,0,0,1-1.5-1.5v-5.7a1.5,1.5,0,0,1,3,0v5.7A1.5,1.5,0,0,1,1934.963,2993.937Z" fill="#396fef"/>
    </g>
    <g id="Group_848" data-name="Group 848">
      <path id="Path_1011" data-name="Path 1011" d="M1985.639,2984.951a1.5,1.5,0,0,1-1.5-1.5v-1.563a1.5,1.5,0,0,1,3,0v1.563A1.5,1.5,0,0,1,1985.639,2984.951Z" fill="#396fef"/>
    </g>
    <g id="Group_849" data-name="Group 849">
      <path id="Path_1012" data-name="Path 1012" d="M1962.67,2976.788h-35.383a1.5,1.5,0,0,1-1.5-1.5V2964.72a1.5,1.5,0,0,1,1.5-1.5h35.383a1.5,1.5,0,0,1,1.5,1.5v10.568A1.5,1.5,0,0,1,1962.67,2976.788Zm-33.883-3h32.383v-7.568h-32.383Z" fill="#ef39a6"/>
    </g>
    <g id="Group_850" data-name="Group 850">
      <path id="Path_1013" data-name="Path 1013" d="M1942.466,2971.5H1931.99a1.5,1.5,0,0,1,0-3h10.476a1.5,1.5,0,0,1,0,3Z" fill="#396fef"/>
    </g>
    <g id="Group_851" data-name="Group 851">
      <path id="Path_1014" data-name="Path 1014" d="M1963.592,2988.218h-8.227a1.5,1.5,0,0,1,0-3h8.227a1.5,1.5,0,0,1,0,3Z" fill="#396fef"/>
    </g>
    <g id="Group_852" data-name="Group 852">
      <path id="Path_1015" data-name="Path 1015" d="M1963.592,3004.046h-8.227a1.5,1.5,0,0,1,0-3h8.227a1.5,1.5,0,0,1,0,3Z" fill="#396fef"/>
    </g>
    <g id="Group_853" data-name="Group 853">
      <path id="Path_1016" data-name="Path 1016" d="M1948.342,2971.5h-1.522a1.5,1.5,0,1,1,0-3h1.522a1.5,1.5,0,0,1,0,3Z" fill="#396fef"/>
    </g>
  </g>
</svg>
