<svg xmlns="http://www.w3.org/2000/svg" width="74.436" height="74.433" viewBox="0 0 74.436 74.433">
  <g id="Group_919" data-name="Group 919" transform="translate(-3301.616 -2256.921)">
    <g id="Group_909" data-name="Group 909">
      <path id="Path_1065" data-name="Path 1065" d="M3348.245,2267.793a1.482,1.482,0,0,1-.553-.107,31.5,31.5,0,0,0-22.126-.43,1.5,1.5,0,1,1-1-2.829,34.5,34.5,0,0,1,24.231.472,1.5,1.5,0,0,1-.554,2.894Z" fill="#396fef"/>
    </g>
    <g id="Group_910" data-name="Group 910">
      <path id="Path_1066" data-name="Path 1066" d="M3336.146,2331.354a34.456,34.456,0,0,1-16.167-64.92,1.5,1.5,0,0,1,1.4,2.653,31.463,31.463,0,0,0,25.171,57.491,1.5,1.5,0,0,1,1,2.829A34.255,34.255,0,0,1,3336.146,2331.354Z" fill="#396fef"/>
    </g>
    <g id="Group_911" data-name="Group 911">
      <path id="Path_1067" data-name="Path 1067" d="M3351.743,2327.41a1.5,1.5,0,0,1-.716-2.819c.646-.351,1.288-.729,1.907-1.123a1.5,1.5,0,0,1,1.611,2.531c-.677.431-1.38.845-2.089,1.229A1.491,1.491,0,0,1,3351.743,2327.41Z" fill="#396fef"/>
    </g>
    <g id="Group_912" data-name="Group 912">
      <path id="Path_1068" data-name="Path 1068" d="M3357.546,2323.4a1.5,1.5,0,0,1-.98-2.636c.591-.51,1.173-1.05,1.729-1.607a31.411,31.411,0,0,0,6.911-34.079,1.5,1.5,0,1,1,2.78-1.127,34.4,34.4,0,0,1-7.569,37.327c-.609.609-1.245,1.2-1.893,1.758A1.49,1.49,0,0,1,3357.546,2323.4Z" fill="#396fef"/>
    </g>
    <g id="Group_913" data-name="Group 913">
      <path id="Path_1069" data-name="Path 1069" d="M3316.319,2290.4a1.484,1.484,0,0,1-.562-.11,1.5,1.5,0,0,1-.828-1.953,22.8,22.8,0,0,1,29.556-12.6,1.5,1.5,0,0,1-1.106,2.789,19.8,19.8,0,0,0-25.669,10.94A1.5,1.5,0,0,1,3316.319,2290.4Z" fill="#396fef"/>
    </g>
    <g id="Group_914" data-name="Group 914">
      <path id="Path_1070" data-name="Path 1070" d="M3336.055,2319.71a22.777,22.777,0,0,1-22.481-26.572,1.5,1.5,0,1,1,2.959.493,19.8,19.8,0,1,0,37.867-4.17,1.5,1.5,0,1,1,2.781-1.126,22.789,22.789,0,0,1-21.126,31.375Z" fill="#396fef"/>
    </g>
    <g id="Group_915" data-name="Group 915">
      <path id="Path_1071" data-name="Path 1071" d="M3336.055,2308.065h0a11.149,11.149,0,1,1,4.125-21.507,1.5,1.5,0,1,1-1.106,2.788,8.152,8.152,0,1,0,4.532,4.5,1.5,1.5,0,0,1,2.78-1.126,11.146,11.146,0,0,1-10.331,15.344Z" fill="#396fef"/>
    </g>
    <g id="Group_916" data-name="Group 916">
      <path id="Path_1072" data-name="Path 1072" d="M3336.055,2298.418a1.5,1.5,0,0,1-1.061-2.561l31.372-31.371a1.5,1.5,0,0,1,2.121,2.121l-31.372,31.371A1.5,1.5,0,0,1,3336.055,2298.418Z" fill="#ef39a6"/>
    </g>
    <g id="Group_917" data-name="Group 917">
      <path id="Path_1073" data-name="Path 1073" d="M3350.5,2283.973a1.5,1.5,0,0,1-1.438-1.075l-.582-1.966c-1.525-5.157.219-11.219,4.444-15.443l8.128-8.129a1.5,1.5,0,0,1,2.5.636l2.839,9.6a1.5,1.5,0,0,1-.378,1.486l-14.451,14.451A1.5,1.5,0,0,1,3350.5,2283.973Zm10.89-22.708-6.345,6.345a13.046,13.046,0,0,0-3.812,12.009l12.027-12.028Z" fill="#ef39a6"/>
    </g>
    <g id="Group_918" data-name="Group 918">
      <path id="Path_1074" data-name="Path 1074" d="M3355.875,2285.036a13.5,13.5,0,0,1-3.835-.544l-1.965-.581a1.5,1.5,0,0,1-.635-2.5l14.451-14.451a1.493,1.493,0,0,1,1.486-.378l9.6,2.838a1.5,1.5,0,0,1,.635,2.5l-4.054,4.054a1.5,1.5,0,0,1-2.121-2.122l2.269-2.269-6.326-1.871-12.027,12.028a13.039,13.039,0,0,0,12.008-3.812l.522-.522a1.5,1.5,0,1,1,2.121,2.122l-.522.521A16.68,16.68,0,0,1,3355.875,2285.036Z" fill="#ef39a6"/>
    </g>
  </g>
</svg>
