<svg xmlns="http://www.w3.org/2000/svg" width="78.582" height="80.875" viewBox="0 0 78.582 80.875">
  <g id="Group_977" data-name="Group 977" transform="translate(-4020.325 -2206.06)">
    <g id="Group_952" data-name="Group 952">
      <path id="Path_1101" data-name="Path 1101" d="M4092.154,2286.935a1.5,1.5,0,0,1-1.5-1.5v-14.659a5.038,5.038,0,0,0-.354-1.86,1.5,1.5,0,0,1,2.789-1.1,8.021,8.021,0,0,1,.565,2.965v14.659A1.5,1.5,0,0,1,4092.154,2286.935Z" fill="#396fef"/>
    </g>
    <g id="Group_953" data-name="Group 953">
      <path id="Path_1102" data-name="Path 1102" d="M4051.825,2239.062h-8.752a1.5,1.5,0,0,1-1.5-1.5v-4.252a4.751,4.751,0,0,0-9.5,0v4.252a1.5,1.5,0,0,1-1.5,1.5h-8.746a1.5,1.5,0,0,1-1.5-1.5v-21.037a10.475,10.475,0,0,1,10.463-10.463h21.037a1.5,1.5,0,0,1,1.5,1.5v7.245h2.746a7.752,7.752,0,1,1,0,15.5h-2.746v7.252A1.5,1.5,0,0,1,4051.825,2239.062Zm-7.252-3h5.752v-7.252a1.5,1.5,0,0,1,1.5-1.5h4.246a4.752,4.752,0,1,0,0-9.5h-4.246a1.5,1.5,0,0,1-1.5-1.5v-7.245h-19.537a7.472,7.472,0,0,0-7.463,7.463v19.537h5.746v-2.752a7.751,7.751,0,0,1,15.5,0Z" fill="#396fef"/>
    </g>
    <g id="Group_954" data-name="Group 954">
      <path id="Path_1103" data-name="Path 1103" d="M4026.325,2218.025a1.5,1.5,0,0,1-1.5-1.5,5.97,5.97,0,0,1,5.963-5.963,1.5,1.5,0,0,1,0,3,2.967,2.967,0,0,0-2.963,2.963A1.5,1.5,0,0,1,4026.325,2218.025Z" fill="#396fef"/>
    </g>
    <g id="Group_955" data-name="Group 955">
      <path id="Path_1104" data-name="Path 1104" d="M4051.825,2269.062h-12.813a1.5,1.5,0,0,1,0-3h11.313v-5.752h-2.752a7.752,7.752,0,0,1,0-15.5h2.752v-5.745h-7.252a1.5,1.5,0,0,1-1.5-1.5v-4.252a4.751,4.751,0,0,0-9.5,0v4.252a1.5,1.5,0,0,1-1.5,1.5h-7.246v19.53a7.475,7.475,0,0,0,7.463,7.47h3.161a1.5,1.5,0,0,1,0,3h-3.161a10.479,10.479,0,0,1-10.463-10.47v-21.03a1.5,1.5,0,0,1,1.5-1.5h7.246v-2.752a7.751,7.751,0,0,1,15.5,0v2.752h7.252a1.5,1.5,0,0,1,1.5,1.5v8.745a1.5,1.5,0,0,1-1.5,1.5h-4.252a4.752,4.752,0,0,0,0,9.5h4.252a1.5,1.5,0,0,1,1.5,1.5v8.752A1.5,1.5,0,0,1,4051.825,2269.062Z" fill="#396fef"/>
    </g>
    <g id="Group_957" data-name="Group 957">
      <g id="Group_956" data-name="Group 956">
        <path id="Path_1105" data-name="Path 1105" d="M4072.856,2206.06h-22.53V2217.8h5.745a4.763,4.763,0,0,1,4.755,4.755,4.755,4.755,0,0,1-4.755,4.748h-5.745v11.752h8.745V2240a1.4,1.4,0,0,0,1.711,1.356l.134-.027a1.407,1.407,0,0,0,1.155-1.371v-3.9h-8.745v-5.752h2.5a7.912,7.912,0,0,0,7.988-7.367,7.724,7.724,0,0,0-2.6-6.18,8.089,8.089,0,0,0-5.4-1.956h-2.5v-5.745h19.53a7.479,7.479,0,0,1,7.47,7.463V2233.2a1.485,1.485,0,0,0,1.276,1.471l.03,0a1.485,1.485,0,0,0,1.694-1.47v-16.678A10.478,10.478,0,0,0,4072.856,2206.06Z" fill="#396fef"/>
      </g>
    </g>
    <g id="Group_958" data-name="Group 958">
      <path id="Path_1106" data-name="Path 1106" d="M4087.242,2239.943l-.552,4.22a4.994,4.994,0,0,1-1.5,3.041,4.755,4.755,0,0,1-7.253-.945,4.991,4.991,0,0,1-.67-3.329l.538-4.114a1.424,1.424,0,0,0-1.227-1.6l-8.822-1.155a1.424,1.424,0,0,0-1.6,1.227l-.95,7.259-2.729-.357a7.753,7.753,0,0,0-6.943,12.669,8.08,8.08,0,0,0,5.179,2.734l2.481.325-.978,7.469a1.219,1.219,0,0,0,1.051,1.368l8.144,1.066c.1-.344.219-.685.316-1.014.186-.633.385-1.265.594-1.892l-6.9-.9,1-7.652a1.034,1.034,0,0,0-.891-1.16l-4.5-.589a4.984,4.984,0,0,1-3.044-1.506,4.754,4.754,0,0,1,4.1-7.94l4.679.613a1.035,1.035,0,0,0,1.16-.891l1-7.646,5.7.746-.324,2.476a8.082,8.082,0,0,0,1.3,5.7,7.756,7.756,0,0,0,11.338,1.484,8.1,8.1,0,0,0,2.729-5.179L4090,2242l5.7.747-2.535,19.364a7.476,7.476,0,0,1-8.377,6.438l-6.838-.9c.256.582.515,1.161.789,1.737.227.478.526.974.723,1.487l4.937.646a10.466,10.466,0,0,0,11.741-9.022l2.754-21.035a1.315,1.315,0,0,0-1.134-1.475l-9.044-1.184A1.316,1.316,0,0,0,4087.242,2239.943Z" fill="#ef39a6"/>
    </g>
    <g id="Group_959" data-name="Group 959">
      <path id="Path_1107" data-name="Path 1107" d="M4084.469,2285.75a1.68,1.68,0,0,1-.174-.01c-2.991-.344-8.481-2.619-8.6-8.752l-4.391-4.326a4.4,4.4,0,0,1,6.079-6.351l7.209,6.529,2.338,2.175a1.5,1.5,0,0,1-2.043,2.2l-2.324-2.162-7.209-6.529a1.4,1.4,0,0,0-1.945,2l5.322,5.242-.03.668c-.249,5.55,5.68,6.295,5.933,6.324a1.5,1.5,0,0,1-.169,2.991Z" fill="#396fef"/>
    </g>
    <g id="Group_960" data-name="Group 960">
      <path id="Path_1108" data-name="Path 1108" d="M4073.982,2284.7a1.5,1.5,0,0,1-1.2-.6,13.857,13.857,0,0,1-1.807-13.087,1.5,1.5,0,0,1,2.77,1.153,10.82,10.82,0,0,0,1.432,10.126,1.5,1.5,0,0,1-1.2,2.4Z" fill="#396fef"/>
    </g>
  </g>
</svg>
