<svg xmlns="http://www.w3.org/2000/svg" width="63.779" height="76.53" viewBox="0 0 63.779 76.53">
  <g id="Group_964" data-name="Group 964" transform="translate(-1798.141 -2041.364)">
    <g id="Group_964-2" data-name="Group 964">
      <path id="Path_1109" data-name="Path 1109" d="M1857.394,2057.851h-10.111a4.882,4.882,0,0,1-4.876-4.877v-10.11a1.5,1.5,0,0,1,3,0v10.11a1.878,1.878,0,0,0,1.876,1.877h10.111a1.5,1.5,0,0,1,0,3Z" fill="#396fef"/>
    </g>
    <g id="Group_965" data-name="Group 965">
      <path id="Path_1110" data-name="Path 1110" d="M1825.085,2082.811h-16.36a1.5,1.5,0,0,1,0-3h16.36a1.5,1.5,0,0,1,0,3Z" fill="#396fef"/>
    </g>
    <g id="Group_966" data-name="Group 966">
      <path id="Path_1111" data-name="Path 1111" d="M1815.414,2088.027h-6.689a1.5,1.5,0,0,1,0-3h6.689a1.5,1.5,0,0,1,0,3Z" fill="#396fef"/>
    </g>
    <g id="Group_967" data-name="Group 967">
      <path id="Path_1112" data-name="Path 1112" d="M1821.44,2088.027h-1.407a1.5,1.5,0,0,1,0-3h1.407a1.5,1.5,0,0,1,0,3Z" fill="#396fef"/>
    </g>
    <g id="Group_968" data-name="Group 968">
      <path id="Path_1113" data-name="Path 1113" d="M1857.394,2107.059a1.5,1.5,0,0,1-1.5-1.5V2086.84a1.5,1.5,0,0,1,3,0v18.719A1.5,1.5,0,0,1,1857.394,2107.059Z" fill="#396fef"/>
    </g>
    <g id="Group_969" data-name="Group 969">
      <path id="Path_1114" data-name="Path 1114" d="M1799.641,2088.348a1.5,1.5,0,0,1-1.5-1.5v-39.811a5.68,5.68,0,0,1,5.673-5.673h40.093a1.5,1.5,0,0,1,1.06.439l13.487,13.488a1.5,1.5,0,0,1,.44,1.06v24.261a1.5,1.5,0,0,1-3,0v-23.639l-12.608-12.609h-39.472a2.676,2.676,0,0,0-2.673,2.673v39.811A1.5,1.5,0,0,1,1799.641,2088.348Z" fill="#396fef"/>
    </g>
    <g id="Group_970" data-name="Group 970">
      <path id="Path_1115" data-name="Path 1115" d="M1799.641,2094.926a1.5,1.5,0,0,1-1.5-1.5v-1.437a1.5,1.5,0,0,1,3,0v1.437A1.5,1.5,0,0,1,1799.641,2094.926Z" fill="#396fef"/>
    </g>
    <g id="Group_971" data-name="Group 971">
      <path id="Path_1116" data-name="Path 1116" d="M1848.6,2113.882h-44.782a5.68,5.68,0,0,1-5.673-5.674v-9.548a1.5,1.5,0,0,1,3,0v9.548a2.677,2.677,0,0,0,2.673,2.674H1848.6a1.5,1.5,0,0,1,0,3Z" fill="#396fef"/>
    </g>
    <g id="Group_973" data-name="Group 973">
      <g id="Group_972" data-name="Group 972">
        <path id="Path_1117" data-name="Path 1117" d="M1852.609,2117.894a1.5,1.5,0,0,1-1.061-.439l-8.585-8.585a13.955,13.955,0,0,1-13.566-3.638,14.1,14.1,0,0,1-3.646-13.541,1.5,1.5,0,0,1,2.511-.677l7.265,7.265,5.347-1.43,1.432-5.349-7.262-7.262a1.5,1.5,0,0,1,.676-2.511,14.1,14.1,0,0,1,13.539,3.643,13.954,13.954,0,0,1,3.636,13.569l8.585,8.585a1.5,1.5,0,1,1-2.121,2.121l-9.222-9.221a1.5,1.5,0,0,1-.358-1.546,11.042,11.042,0,0,0-10.47-14.618l5.731,5.732a1.5,1.5,0,0,1,.388,1.448l-1.881,7.022a1.5,1.5,0,0,1-1.061,1.061l-7.02,1.878a1.5,1.5,0,0,1-1.448-.388l-5.733-5.733a11.1,11.1,0,0,0,3.233,7.831,10.984,10.984,0,0,0,11.385,2.642,1.505,1.505,0,0,1,1.545.36l9.221,9.221a1.5,1.5,0,0,1-1.06,2.56Z" fill="#ef39a6"/>
      </g>
    </g>
    <g id="Group_974" data-name="Group 974">
      <path id="Path_1118" data-name="Path 1118" d="M1817.066,2072.79a1.5,1.5,0,0,1-1.082-.461l-8.141-8.47a1.5,1.5,0,0,1,0-2.079l8.141-8.47a1.5,1.5,0,0,1,2.163,2.078l-7.141,7.432,7.141,7.43a1.5,1.5,0,0,1-1.081,2.54Z" fill="#396fef"/>
    </g>
    <g id="Group_975" data-name="Group 975">
      <path id="Path_1119" data-name="Path 1119" d="M1827.407,2072.79a1.5,1.5,0,0,1-1.081-2.54l7.142-7.43-7.142-7.432a1.5,1.5,0,0,1,2.163-2.078l8.141,8.47a1.5,1.5,0,0,1,0,2.079l-8.141,8.47A1.5,1.5,0,0,1,1827.407,2072.79Z" fill="#396fef"/>
    </g>
    <g id="Group_976" data-name="Group 976">
      <path id="Path_1120" data-name="Path 1120" d="M1855.13,2112.5a1.5,1.5,0,0,1-1.061-.439l-3.757-3.758a1.5,1.5,0,1,1,2.121-2.121l3.757,3.758a1.5,1.5,0,0,1-1.06,2.56Z" fill="#ef39a6"/>
    </g>
  </g>
</svg>
