<svg xmlns="http://www.w3.org/2000/svg" width="77.714" height="93.275" viewBox="0 0 77.714 93.275">
  <g id="Group_348" data-name="Group 348" transform="translate(-2784.354 -2052.676)">
    <path id="Path_656" data-name="Path 656" d="M2840.032,2071.65c-.085.014-.172.019-.257.031-.346.052-.692.093-1.041.127-.154.015-.308.034-.463.045-.5.037-1,.061-1.5.061a20.237,20.237,0,0,0-25.064,0q-.522,0-1.032-.027a14.74,14.74,0,0,0,29.353-.237Z" fill="none"/>
    <path id="Path_657" data-name="Path 657" d="M2832.046,2089.414q-.687-.267-1.4-.478l-.185-.057a18.882,18.882,0,0,0-10.22,0c-.078.022-.155.047-.232.07q-.657.2-1.294.443c-.067.025-.134.049-.2.075a15.995,15.995,0,0,0,13.657,0C2832.133,2089.446,2832.089,2089.431,2832.046,2089.414Z" fill="none"/>
    <path id="Path_658" data-name="Path 658" d="M2811.711,2068.914a17.179,17.179,0,0,0,10.3-3.409,20.019,20.019,0,0,1-1.31-1.539l2.385-1.82a16.973,16.973,0,0,0,2.157,2.337l.008.007a17.222,17.222,0,0,0,11.529,4.424c.478,0,.955-.027,1.43-.067.128-.011.256-.024.383-.037q.606-.064,1.207-.17c.058-.01.117-.017.175-.028a14.731,14.731,0,0,0-29.275.266C2811.029,2068.9,2811.366,2068.914,2811.711,2068.914Z" fill="none"/>
    <path id="Path_659" data-name="Path 659" d="M2787.381,2126.933l14.925,15.992,8.505-7.938-14.924-15.993Zm4.086,1.995-2.046-2.194,6.128-5.718,2.046,2.193Z" fill="none"/>
    <path id="Path_660" data-name="Path 660" d="M2854.177,2110.629l-.087.077-11.118,9.057c-.241,4.152-3.279,5.453-4.945,5.549a1.532,1.532,0,0,1-.164,0l-8.738-.456a24.117,24.117,0,0,0-4.839.235l-3.891.586a1.577,1.577,0,0,1-.226.017,1.5,1.5,0,0,1-.221-2.983l3.891-.586a27.058,27.058,0,0,1,5.443-.265l8.63.45c.56-.068,2.14-.51,2.078-3.239a2.586,2.586,0,0,0-.754-1.916,4.959,4.959,0,0,0-3.152-1.045c-.049,0-.1,0-.145,0s-4.258-.3-10.588-.553a22.029,22.029,0,0,1-6.414-1.346c-2.732-.9-4.889-1.612-9.006-.253a17.167,17.167,0,0,0-8.757,6.307l9.353,10.023c3.777-.986,12.357-.585,22.3.011,2.707.162,5.046.3,6.223.306a10.646,10.646,0,0,0,6.668-2.375l12.43-14.3c.17-.2,1.711-2.114.338-3.331A3.067,3.067,0,0,0,2854.177,2110.629Z" fill="none"/>
    <path id="Path_661" data-name="Path 661" d="M2860.472,2108.345a6.037,6.037,0,0,0-8.319.069l-9.8,7.982a5.24,5.24,0,0,0-1.05-1.414,7.964,7.964,0,0,0-5.219-1.873c-.558-.038-4.663-.313-10.614-.553a19.222,19.222,0,0,1-5.595-1.2c-2.867-.945-5.831-1.923-10.887-.252a20.272,20.272,0,0,0-9.9,6.925l-1.055-1.131a2.936,2.936,0,0,0-4.15-.143l-8.6,8.025a2.935,2.935,0,0,0-.144,4.15l15.011,16.084a2.906,2.906,0,0,0,2.046.932c.034,0,.069,0,.1,0a2.918,2.918,0,0,0,2-.789l8.6-8.026a2.939,2.939,0,0,0,.142-4.149l-.1-.11c4.579-.491,14.115.079,19.7.413,2.866.172,5.13.307,6.394.312h.039a13.676,13.676,0,0,0,8.723-3.217l12.613-14.5C2861.7,2114.4,2863.359,2110.9,2860.472,2108.345Zm-58.166,34.58-14.925-15.992,8.506-7.939,14.924,15.993Zm55.839-29-12.43,14.3a10.646,10.646,0,0,1-6.668,2.375c-1.177,0-3.516-.144-6.223-.306-9.94-.6-18.52-1-22.3-.011l-9.353-10.023a17.167,17.167,0,0,1,8.757-6.307c4.117-1.359,6.274-.648,9.006.253a22.029,22.029,0,0,0,6.414,1.346c6.33.255,10.546.55,10.588.553s.1,0,.145,0a4.959,4.959,0,0,1,3.152,1.045,2.586,2.586,0,0,1,.754,1.916c.062,2.729-1.518,3.171-2.078,3.239l-8.63-.45a27.058,27.058,0,0,0-5.443.265l-3.891.586a1.5,1.5,0,0,0,.221,2.983,1.577,1.577,0,0,0,.226-.017l3.891-.586a24.117,24.117,0,0,1,4.839-.235l8.738.456a1.532,1.532,0,0,0,.164,0c1.666-.1,4.7-1.4,4.945-5.549l11.118-9.057.087-.077a3.067,3.067,0,0,1,4.306-.038C2859.856,2111.808,2858.315,2113.719,2858.145,2113.922Z" fill="#396fef"/>
    <rect id="Rectangle_198" data-name="Rectangle 198" width="8.382" height="3" transform="matrix(0.731, -0.682, 0.682, 0.731, 2789.42, 2126.734)" fill="#396fef"/>
    <path id="Path_662" data-name="Path 662" d="M2818.51,2089.458l.009,0c.066-.026.133-.05.2-.075C2818.65,2089.413,2818.578,2089.431,2818.51,2089.458Z" fill="#396fef"/>
    <path id="Path_663" data-name="Path 663" d="M2820.013,2088.944c.077-.023.154-.048.232-.07C2820.167,2088.9,2820.09,2088.921,2820.013,2088.944Z" fill="#396fef"/>
    <path id="Path_664" data-name="Path 664" d="M2808.009,2093.957a21.331,21.331,0,0,0-4.129,12.659h3a18.33,18.33,0,0,1,8.462-15.493c-.291-.182-.583-.362-.865-.56l-1.806-1.271A21.417,21.417,0,0,0,2808.009,2093.957Z" fill="#396fef"/>
    <path id="Path_665" data-name="Path 665" d="M2832.182,2089.461c-.045-.018-.091-.029-.136-.047.043.017.087.032.13.05Z" fill="#396fef"/>
    <path id="Path_666" data-name="Path 666" d="M2830.465,2088.879l.185.057C2830.588,2088.918,2830.527,2088.9,2830.465,2088.879Z" fill="#396fef"/>
    <path id="Path_667" data-name="Path 667" d="M2835.353,2091.126a18.322,18.322,0,0,1,8.457,15.49h3a21.456,21.456,0,0,0-8.782-17.318l-1.816,1.274C2835.931,2090.768,2835.642,2090.946,2835.353,2091.126Z" fill="#396fef"/>
    <path id="Path_668" data-name="Path 668" d="M2836.107,2088.048l.236.138c-.08-.048-.157-.1-.238-.147a21.085,21.085,0,0,0-3.295-1.541h0A21.188,21.188,0,0,1,2836.107,2088.048Z" fill="#396fef"/>
    <path id="Path_669" data-name="Path 669" d="M2815.342,2091.123a18.879,18.879,0,0,0,20.011,0c.289-.18.578-.358.859-.554l1.816-1.274.1-.07-1.784-1.042-.236-.138a21.149,21.149,0,0,0-3.3-1.549h0a17.759,17.759,0,0,0,10.26-15.553l.042-.011-.045-1.2v-.016l-.074-1.857-.1.028a17.726,17.726,0,0,0-35.273,2.32v.071c0,.045-.007.09-.007.133s0,.095,0,.143l-.01.958.044.007a17.767,17.767,0,0,0,10.234,14.976,21.116,21.116,0,0,0-3.294,1.541l-2.022,1.177.107.076,1.806,1.271C2814.759,2090.761,2815.051,2090.941,2815.342,2091.123Zm3.177-1.661-.009,0c.068-.027.14-.045.209-.071q.638-.246,1.294-.443c.077-.023.154-.048.232-.07a18.882,18.882,0,0,1,10.22,0c.062.018.123.039.185.057q.708.21,1.4.478c.045.018.091.029.136.047l-.006,0a15.995,15.995,0,0,1-13.657,0Zm.582-32.4a14.681,14.681,0,0,1,6.244-1.382,14.7,14.7,0,0,1,14.625,12.936c-.058.011-.117.018-.175.028q-.6.107-1.207.17c-.127.013-.255.026-.383.037-.475.04-.952.067-1.43.067a17.222,17.222,0,0,1-11.529-4.424l-.008-.007a16.973,16.973,0,0,1-2.157-2.337l-2.385,1.82a20.019,20.019,0,0,0,1.31,1.539,17.179,17.179,0,0,1-10.3,3.409c-.345,0-.682-.016-1.016-.036A14.825,14.825,0,0,1,2819.1,2057.058Zm-8.422,14.829q.51.027,1.032.027a20.237,20.237,0,0,1,25.064,0c.5,0,1-.024,1.5-.061.155-.011.309-.03.463-.045.349-.034.7-.075,1.041-.127.085-.012.172-.017.257-.031a14.74,14.74,0,0,1-29.353.237Z" fill="#ef39a6"/>
    <rect id="Rectangle_199" data-name="Rectangle 199" width="8.082" height="3" transform="translate(2813.807 2096.899)" fill="#396fef"/>
    <rect id="Rectangle_200" data-name="Rectangle 200" width="8.082" height="3" transform="translate(2813.807 2101.807)" fill="#396fef"/>
  </g>
</svg>
